<?xml version="1.0" encoding="UTF-8"?>
<svg version="1.1" xmlns="http://www.w3.org/2000/svg" width="192" height="148">
<path d="M0 0 C63.36 0 126.72 0 192 0 C192 48.84 192 97.68 192 148 C128.64 148 65.28 148 0 148 C0 99.16 0 50.32 0 0 Z " fill="#FCFCFC" transform="translate(0,0)"/>
<path d="M0 0 C0.763125 0.20625 1.52625 0.4125 2.3125 0.625 C2.38683779 5.51795147 2.44119027 10.41057183 2.47729492 15.30395508 C2.49235114 16.96742481 2.51280063 18.63085505 2.53881836 20.29418945 C2.57534207 22.68971522 2.59225782 25.08471467 2.60546875 27.48046875 C2.62095261 28.2202446 2.63643646 28.96002045 2.65238953 29.72221375 C2.65384467 34.21973762 2.11310378 37.06775337 -0.6875 40.625 C-2.85539125 42.10544152 -4.883745 43.34758443 -7.1875 44.5625 C-7.80536377 44.90168457 -8.42322754 45.24086914 -9.05981445 45.59033203 C-10.92951037 46.61384077 -12.80766995 47.62025462 -14.6875 48.625 C-16.75047191 49.7491344 -18.81302627 50.87403571 -20.875 52 C-21.73480469 52.46148437 -22.59460938 52.92296875 -23.48046875 53.3984375 C-25.8626098 54.68348102 -25.8626098 54.68348102 -28.6875 56.625 C-30.875 56.25 -30.875 56.25 -32.6875 55.625 C-32.73698633 50.57130355 -32.77326045 45.51774858 -32.79736328 40.46386719 C-32.8074127 38.74509219 -32.82105445 37.02633425 -32.83837891 35.30761719 C-32.86267391 32.83524359 -32.87399368 30.36309631 -32.8828125 27.890625 C-32.89829636 26.74040863 -32.89829636 26.74040863 -32.91409302 25.56695557 C-32.91558462 18.4531886 -32.91558462 18.4531886 -30.6875 15.625 C-28.21313477 13.91748047 -28.21313477 13.91748047 -25.12890625 12.2421875 C-23.46698242 11.32759766 -23.46698242 11.32759766 -21.77148438 10.39453125 C-20.60939453 9.76933594 -19.44730469 9.14414063 -18.25 8.5 C-15.95921573 7.24816352 -13.66883251 5.99559281 -11.37890625 4.7421875 C-10.35998291 4.19159668 -9.34105957 3.64100586 -8.29125977 3.07373047 C-2.21216536 -0.30867424 -2.21216536 -0.30867424 0 0 Z " fill="#34201D" transform="translate(90.6875,3.375)"/>
<path d="M0 0 C6.52461786 0.74467716 11.94472572 4.59100114 17.5625 7.75 C18.69880859 8.37132812 19.83511719 8.99265625 21.00585938 9.6328125 C22.09833984 10.24382813 23.19082031 10.85484375 24.31640625 11.484375 C25.31099854 12.03834961 26.30559082 12.59232422 27.33032227 13.16308594 C30.34548018 15.23771311 32.11123374 16.85288391 34 20 C34.35490568 22.83094892 34.49305955 25.25559261 34.42578125 28.07421875 C34.42249313 28.83926224 34.41920502 29.60430573 34.41581726 30.39253235 C34.40543102 32.00209115 34.3855398 33.61161353 34.35668945 35.22094727 C34.31245836 37.68982423 34.29522658 40.15772822 34.28320312 42.62695312 C34.26978456 44.19272244 34.25486311 45.75847974 34.23828125 47.32421875 C34.23089432 48.06379318 34.22350739 48.80336761 34.21589661 49.56535339 C34.11842228 54.76315543 34.11842228 54.76315543 33 57 C28.98306802 56.28877264 25.60715988 54.35905256 22.0625 52.4375 C21.08083862 51.90829956 21.08083862 51.90829956 20.0793457 51.3684082 C2.02200122 41.53300183 2.02200122 41.53300183 -1 37 C-1.18379217 34.25401563 -1.25612169 31.61199863 -1.23046875 28.8671875 C-1.23001053 28.0747464 -1.22955231 27.2823053 -1.2290802 26.46585083 C-1.22606175 24.79313659 -1.21818761 23.12042507 -1.20581055 21.44775391 C-1.18752014 18.87782928 -1.18530113 16.30826425 -1.18554688 13.73828125 C-1.18063288 12.1145802 -1.17480507 10.4908816 -1.16796875 8.8671875 C-1.16685593 8.09430389 -1.1657431 7.32142029 -1.16459656 6.52511597 C-1.11605994 1.11605994 -1.11605994 1.11605994 0 0 Z " fill="#35211E" transform="translate(98,3)"/>
<path d="M0 0 C1.49527222 0.8511438 1.49527222 0.8511438 3.02075195 1.71948242 C4.11581055 2.33758789 5.21086914 2.95569336 6.33911133 3.5925293 C7.46768555 4.24672852 8.59625977 4.90092773 9.7590332 5.57495117 C10.89920898 6.21754883 12.03938477 6.86014648 13.21411133 7.5222168 C22.7992394 12.98568318 22.7992394 12.98568318 25.0715332 15.76245117 C25.11450195 17.71557617 25.11450195 17.71557617 24.0715332 19.76245117 C21.62231445 21.62182617 21.62231445 21.62182617 18.3840332 23.51245117 C17.52249634 24.01808594 17.52249634 24.01808594 16.64355469 24.53393555 C15.42142636 25.24881207 14.19613786 25.95830885 12.96801758 26.6628418 C11.06272465 27.7675585 9.18362603 28.90846686 7.3059082 30.05932617 C6.08247428 30.79457448 4.85853004 31.52897443 3.6340332 32.26245117 C2.52157227 32.93276367 1.40911133 33.60307617 0.26293945 34.29370117 C-3.28088608 35.92464169 -5.0746666 36.09871268 -8.9284668 35.76245117 C-11.84106445 34.52490234 -11.84106445 34.52490234 -14.8425293 32.80541992 C-15.93307617 32.18731445 -17.02362305 31.56920898 -18.1472168 30.93237305 C-19.2712793 30.27817383 -20.3953418 29.62397461 -21.5534668 28.94995117 C-23.25116211 27.98605469 -23.25116211 27.98605469 -24.9831543 27.00268555 C-33.96319155 21.86895572 -33.96319155 21.86895572 -37.9284668 18.76245117 C-37.75390625 16.97387695 -37.75390625 16.97387695 -36.9284668 14.76245117 C-34.67529297 13.05493164 -34.67529297 13.05493164 -31.72143555 11.37963867 C-30.65989258 10.76991211 -29.59834961 10.16018555 -28.50463867 9.53198242 C-27.38637695 8.90678711 -26.26811523 8.2815918 -25.1159668 7.63745117 C-24.00930664 7.00452148 -22.90264648 6.3715918 -21.76245117 5.71948242 C-18.82803024 4.04723529 -15.88974242 2.38665023 -12.9284668 0.76245117 C-12.276604 0.36815918 -11.62474121 -0.02613281 -10.953125 -0.43237305 C-6.98942328 -2.00867695 -3.87845381 -1.63900645 0 0 Z " fill="#35211F" transform="translate(100.928466796875,47.237548828125)"/>
<path d="M0 0 C4.54443188 2.37674888 8.73797922 5.1459195 13 8 C14.66030683 9.01052413 16.32462112 10.01466585 18 11 C15.88019003 16.14264121 12.00069514 17.72037938 7.3125 20.3125 C6.52166016 20.77978516 5.73082031 21.24707031 4.91601562 21.72851562 C1.24534776 23.78057355 -1.27316416 24.97743747 -5.5234375 25.109375 C-10.09208133 23.65151562 -13.88182701 21.46404178 -17.9375 18.9375 C-18.71673828 18.46505859 -19.49597656 17.99261719 -20.29882812 17.50585938 C-22.20588741 16.34758411 -24.10568539 15.17896117 -26 14 C-25.42093607 10.93742166 -25.26074896 10.20655582 -22.70703125 8.18359375 C-19.8140577 6.43843967 -16.92076373 4.69830925 -14 3 C-12.948125 2.360625 -11.89625 1.72125 -10.8125 1.0625 C-6.94094528 -0.40008734 -3.99765116 -1.03499059 0 0 Z " fill="#FAF9F9" transform="translate(99,49)"/>
<path d="M0 0 C0.1164862 3.72890255 0.18734576 7.45733514 0.25 11.1875 C0.30027344 12.77014648 0.30027344 12.77014648 0.3515625 14.38476562 C0.44928435 22.12922209 0.44928435 22.12922209 -1.515625 25.9375 C-4.80900707 28.67162851 -8.24709189 30.76947666 -12 32.8125 C-13.06734375 33.42254883 -13.06734375 33.42254883 -14.15625 34.04492188 C-17.89303294 36.11897584 -19.56452222 37 -24 37 C-24.11614929 32.9169058 -24.18723457 28.83423623 -24.25 24.75 C-24.28351563 23.59113281 -24.31703125 22.43226562 -24.3515625 21.23828125 C-24.36445312 20.12324219 -24.37734375 19.00820313 -24.390625 17.859375 C-24.41157227 16.83295898 -24.43251953 15.80654297 -24.45410156 14.74902344 C-23.87596851 11.24914272 -22.72631847 10.20014985 -20 8 C-17.43763548 6.21381391 -14.72131829 4.71824154 -12 3.1875 C-11.2884375 2.76791016 -10.576875 2.34832031 -9.84375 1.91601562 C-8.80734375 1.32916992 -8.80734375 1.32916992 -7.75 0.73046875 C-7.12609375 0.37364014 -6.5021875 0.01681152 -5.859375 -0.35083008 C-3.5451099 -1.15881733 -2.2815023 -0.78584378 0 0 Z " fill="#F8F8F8" transform="translate(91,15)"/>
<path d="M0 0 C4.50197335 0.77651365 8.14368556 3.14575542 12.0625 5.375 C12.78244141 5.77460938 13.50238281 6.17421875 14.24414062 6.5859375 C15.28538086 7.17375 15.28538086 7.17375 16.34765625 7.7734375 C16.97679932 8.12841309 17.60594238 8.48338867 18.25415039 8.84912109 C20.20124825 10.13266456 21.59384784 11.12415469 23 13 C23.34057617 15.63549805 23.34057617 15.63549805 23.29296875 18.76171875 C23.28330078 19.87998047 23.27363281 20.99824219 23.26367188 22.15039062 C23.23853516 23.31763672 23.21339844 24.48488281 23.1875 25.6875 C23.16719727 27.45577148 23.16719727 27.45577148 23.14648438 29.25976562 C23.11109326 32.17363411 23.06171809 35.08658945 23 38 C17.95228641 37.15107131 14.2775389 35.19349892 9.875 32.6875 C9.15957031 32.29626953 8.44414063 31.90503906 7.70703125 31.50195312 C7.01738281 31.11330078 6.32773438 30.72464844 5.6171875 30.32421875 C4.99440918 29.97447998 4.37163086 29.62474121 3.72998047 29.2644043 C1.58823945 27.69905336 0.35246727 26.28965413 -1 24 C-1.35644531 21.45043945 -1.35644531 21.45043945 -1.328125 18.61328125 C-1.32296875 17.59298828 -1.3178125 16.57269531 -1.3125 15.52148438 C-1.291875 14.46251953 -1.27125 13.40355469 -1.25 12.3125 C-1.24484375 11.24193359 -1.2396875 10.17136719 -1.234375 9.06835938 C-1.15407791 1.15407791 -1.15407791 1.15407791 0 0 Z " fill="#F9F9F9" transform="translate(100,14)"/>
<path d="M0 0 C4.38773175 2.19386588 7.09334197 4.44520582 9 9 C9.77944541 15.01286459 8.38668967 18.20218963 5 23 C0.63698337 25.80944781 -3.98437411 25.53651752 -9 25 C-12.68623011 23.38727433 -13.75355 22.369675 -16 19 C-16.66170797 13.59861634 -16.95497955 8.64651646 -14.1875 3.875 C-9.41246671 -0.21788568 -6.11384927 -0.84653298 0 0 Z " fill="#34201D" transform="translate(45,96)"/>
<path d="M0 0 C1.98 0 3.96 0 6 0 C7.98 3.63 9.96 7.26 12 11 C14.09836116 8.90163884 15.21416999 6.97389739 16.625 4.375 C17.07101563 3.55773437 17.51703125 2.74046875 17.9765625 1.8984375 C18.48316406 0.95871094 18.48316406 0.95871094 19 0 C20.98 0 22.96 0 25 0 C25 7.92 25 15.84 25 24 C23.02 24 21.04 24 19 24 C18.67 20.37 18.34 16.74 18 13 C17.4225 13.99 16.845 14.98 16.25 16 C15.5075 16.99 14.765 17.98 14 19 C12.68 19 11.36 19 10 19 C8.68 16.36 7.36 13.72 6 11 C5.67 15.29 5.34 19.58 5 24 C3.35 24 1.7 24 0 24 C0 16.08 0 8.16 0 0 Z " fill="#392724" transform="translate(59,97)"/>
<path d="M0 0 C12.21992104 -0.49373418 12.21992104 -0.49373418 15.89453125 1.83203125 C18 4 18 4 18.5 6.9375 C17.95663198 10.26562912 16.93185285 12.26320847 15 15 C15.66 16.11375 16.32 17.2275 17 18.375 C19 21.75 19 21.75 19 24 C17.02 24 15.04 24 13 24 C11.58398438 21.31445312 11.58398438 21.31445312 10.16796875 18.62890625 C9.00980201 16.67732013 9.00980201 16.67732013 6 16 C6 18.64 6 21.28 6 24 C4.02 24 2.04 24 0 24 C0 16.08 0 8.16 0 0 Z " fill="#372421" transform="translate(142,97)"/>
<path d="M0 0 C2.31 0 4.62 0 7 0 C10.50929804 7.88172441 13.80148049 15.63019764 16 24 C14.02 24 12.04 24 10 24 C9.505 21.525 9.505 21.525 9 19 C5.37 19 1.74 19 -2 19 C-2.33 20.65 -2.66 22.3 -3 24 C-4.98 24 -6.96 24 -9 24 C-3.57142857 7.14285714 -3.57142857 7.14285714 0 0 Z " fill="#35201E" transform="translate(122,97)"/>
<path d="M0 0 C1.98 0 3.96 0 6 0 C6.33 2.97 6.66 5.94 7 9 C7.43570313 8.3503125 7.87140625 7.700625 8.3203125 7.03125 C10.10628846 4.52624476 11.84929345 2.20222048 14 0 C17.4375 -0.5625 17.4375 -0.5625 20 0 C17.93992341 3.60513403 15.6486859 6.80331012 13 10 C14.48445114 13.27628862 16.37609285 15.88793452 18.625 18.6875 C22 22.89591837 22 22.89591837 22 24 C18.9375 24.5625 18.9375 24.5625 15 24 C12.19098584 21.31571041 9.98217186 18.33776052 8 15 C8 14.34 8 13.68 8 13 C7.34 13 6.68 13 6 13 C6 16.63 6 20.26 6 24 C4.02 24 2.04 24 0 24 C0 16.08 0 8.16 0 0 Z " fill="#321E1B" transform="translate(89,97)"/>
<path d="M0 0 C1.875 1.125 1.875 1.125 3 3 C3.50030235 6.93094707 3.5996142 9.1005787 1.375 12.4375 C-1.7370662 14.48491197 -3.34394496 14.68551032 -7 14 C-9.4375 11.9375 -9.4375 11.9375 -11 9 C-11 5.16249192 -10.81388154 2.96460035 -8.3125 0 C-5.12832007 -1.37694267 -3.29075199 -0.980224 0 0 Z " fill="#F3F2F2" transform="translate(45,102)"/>
<path d="M0 0 C1.98 0 3.96 0 6 0 C6.84388104 8.16617194 7.06162705 15.84997076 6 24 C4.02 24 2.04 24 0 24 C0 16.08 0 8.16 0 0 Z " fill="#3D2A28" transform="translate(89,97)"/>
<path d="M0 0 C1.98 0 3.96 0 6 0 C5.67 7.59 5.34 15.18 5 23 C3.68 23 2.36 23 1 23 C1 18.71 1 14.42 1 10 C-2.54321888 11.40375831 -2.54321888 11.40375831 -6 13 C-4.79358337 7.97326404 -3.4905055 3.97529793 0 0 Z " fill="#311C19" transform="translate(78,97)"/>
<path d="M0 0 C0 0.99 0 1.98 0 3 C-1.19625 3.165 -2.3925 3.33 -3.625 3.5 C-10.77779629 5.03355953 -16.83356106 9.22820947 -23 13 C-23.99 12.34 -24.98 11.68 -26 11 C-22.8033666 9.14568362 -19.59101152 7.32046827 -16.375 5.5 C-15.47136719 4.97535156 -14.56773438 4.45070313 -13.63671875 3.91015625 C-5.30097987 -0.77489407 -5.30097987 -0.77489407 0 0 Z " fill="#3C2927" transform="translate(98,46)"/>
<path d="M0 0 C2.5625 0.1875 2.5625 0.1875 4.5625 2.1875 C3.99431818 7.75568182 3.99431818 7.75568182 2.5625 9.1875 C0.125 9.4375 0.125 9.4375 -2.4375 9.1875 C-4.4375 6.1875 -4.4375 6.1875 -4.125 3.5625 C-3.16420807 0.24340062 -3.16420807 0.24340062 0 0 Z " fill="#9C9595" transform="translate(52.4375,128.8125)"/>
<path d="M0 0 C0.33 0 0.66 0 1 0 C1 11.22 1 22.44 1 34 C-0.485 34.495 -0.485 34.495 -2 35 C-1.85930243 31.04146699 -1.71148952 27.08322891 -1.5625 23.125 C-1.52318359 22.01640625 -1.48386719 20.9078125 -1.44335938 19.765625 C-1.19015781 13.1434301 -0.75898051 6.58403955 0 0 Z " fill="#000000" transform="translate(92,5)"/>
<path d="M0 0 C3.875 0.875 3.875 0.875 5 2 C5.33 1.34 5.66 0.68 6 0 C6.66 0 7.32 0 8 0 C8 2.97 8 5.94 8 9 C7.34 9 6.68 9 6 9 C5.67 8.34 5.34 7.68 5 7 C4.34 7.66 3.68 8.32 3 9 C0.875 8.625 0.875 8.625 -1 8 C-0.01 7.67 0.98 7.34 2 7 C2.33 6.34 2.66 5.68 3 5 C1.68 4.67 0.36 4.34 -1 4 C-0.67 2.68 -0.34 1.36 0 0 Z " fill="#B9B5B4" transform="translate(92,129)"/>
<path d="M0 0 C5.00895555 0.59160892 8.91368303 2.84006845 13.25 5.25 C13.9821875 5.63285156 14.714375 6.01570313 15.46875 6.41015625 C20.76954977 9.34522872 20.76954977 9.34522872 21.984375 12.796875 C21.98953125 13.52390625 21.9946875 14.2509375 22 15 C21.61199219 14.56429687 21.22398438 14.12859375 20.82421875 13.6796875 C18.65122942 11.6788622 16.43042185 10.49119335 13.8125 9.125 C9.06801208 6.59502705 4.48765997 3.96354904 0 1 C0 0.67 0 0.34 0 0 Z " fill="#2F1A19" transform="translate(96,47)"/>
<path d="M0 0 C1.65 0.33 3.3 0.66 5 1 C5.04241723 3.33294775 5.04092937 5.66702567 5 8 C4 9 4 9 1.4375 9.0625 C0.633125 9.041875 -0.17125 9.02125 -1 9 C-2.0326802 6.21176345 -2.04509293 5.1322726 -1.0625 2.25 C-0.711875 1.5075 -0.36125 0.765 0 0 Z " fill="#B6B1B0" transform="translate(147,129)"/>
<path d="M0 0 C1.65 0 3.3 0 5 0 C5.625 2.8125 5.625 2.8125 6 6 C5.01 7.485 5.01 7.485 4 9 C2.68 8.67 1.36 8.34 0 8 C-1.125 2.25 -1.125 2.25 0 0 Z " fill="#B7B2B1" transform="translate(155,129)"/>
<path d="M0 0 C1.65 0 3.3 0 5 0 C5.93065133 2.60582371 6.14917407 3.64198224 5.0625 6.25 C4.5365625 7.11625 4.5365625 7.11625 4 8 C3.67 7.67 3.34 7.34 3 7 C2.67 7.66 2.34 8.32 2 9 C1.34 9 0.68 9 0 9 C0 6.03 0 3.06 0 0 Z " fill="#A49E9D" transform="translate(40,129)"/>
<path d="M0 0 C1.65 0 3.3 0 5 0 C5.33 1.32 5.66 2.64 6 4 C4.68 4.33 3.36 4.66 2 5 C2 6.32 2 7.64 2 9 C1.34 9 0.68 9 0 9 C0 6.03 0 3.06 0 0 Z " fill="#AEA8A7" transform="translate(68,129)"/>
<path d="M0 0 C1.32 1.32 2.64 2.64 4 4 C4.33 2.68 4.66 1.36 5 0 C5.66 0 6.32 0 7 0 C7 2.97 7 5.94 7 9 C6.34 9 5.68 9 5 9 C3.375 7 3.375 7 2 5 C1.34 6.32 0.68 7.64 0 9 C0 6.03 0 3.06 0 0 Z " fill="#8D8685" transform="translate(103,129)"/>
<path d="M0 0 C1.65 0 3.3 0 5 0 C5.38218767 1.65614657 5.71395102 3.32457024 6 5 C5 6 5 6 2.4375 6.0625 C1.2309375 6.0315625 1.2309375 6.0315625 0 6 C0 4.02 0 2.04 0 0 Z " fill="#F5F4F4" transform="translate(148,102)"/>
<path d="M0 0 C0.66 0.33 1.32 0.66 2 1 C2.40729228 3.32156597 2.74438677 5.6568787 3 8 C1.02 8 -0.96 8 -3 8 C-1.125 1.125 -1.125 1.125 0 0 Z " fill="#DDDBDB" transform="translate(125,103)"/>
<path d="M0 0 C1.65 0.33 3.3 0.66 5 1 C5 2.98 5 4.96 5 7 C3.02 6.34 1.04 5.68 -1 5 C-0.67 3.35 -0.34 1.7 0 0 Z " fill="#A7A1A0" transform="translate(138,129)"/>
<path d="M0 0 C0.66 0.33 1.32 0.66 2 1 C2 1.99 2 2.98 2 4 C-4.75 8 -4.75 8 -7 8 C-7 6.68 -7 5.36 -7 4 C-1.7265625 0.77734375 -1.7265625 0.77734375 0 0 Z " fill="#E6E5E4" transform="translate(88,44)"/>
<path d="M0 0 C0.33 0 0.66 0 1 0 C1.33 7.92 1.66 15.84 2 24 C1.01 24.33 0.02 24.66 -1 25 C-0.67 16.75 -0.34 8.5 0 0 Z " fill="#190404" transform="translate(91,15)"/>
<path d="M0 0 C2.0625 0.4375 2.0625 0.4375 4 1 C4 2.65 4 4.3 4 6 C2.35 6 0.7 6 -1 6 C-1.042721 4.33388095 -1.04063832 2.66617115 -1 1 C-0.67 0.67 -0.34 0.34 0 0 Z " fill="#FDFDFD" transform="translate(51,130)"/>
<path d="M0 0 C0 0.99 0 1.98 0 3 C-4.455 3.495 -4.455 3.495 -9 4 C-8.67 3.01 -8.34 2.02 -8 1 C-5.29120665 -0.35439668 -2.99066732 -0.06501451 0 0 Z " fill="#453635" transform="translate(98,46)"/>
<path d="M0 0 C0.99 0.33 1.98 0.66 3 1 C0.47211993 3.79872437 -1.20411134 5.45773019 -5 6 C-3.86525052 2.59575156 -3.03188696 1.78346291 0 0 Z " fill="#311D1B" transform="translate(89,40)"/>
<path d="M0 0 C1.98 0 3.96 0 6 0 C6 0.66 6 1.32 6 2 C3.69 2.33 1.38 2.66 -1 3 C-0.67 2.01 -0.34 1.02 0 0 Z " fill="#D2CFCE" transform="translate(32,133)"/>
</svg>
