<?xml version="1.0" encoding="UTF-8"?>
<svg version="1.1" xmlns="http://www.w3.org/2000/svg" width="128" height="124">
<path d="M0 0 C42.24 0 84.48 0 128 0 C128 40.92 128 81.84 128 124 C85.76 124 43.52 124 0 124 C0 83.08 0 42.16 0 0 Z " fill="#FDFCFC" transform="translate(0,0)"/>
<path d="M0 0 C1.65 0 3.3 0 5 0 C5.33 1.65 5.66 3.3 6 5 C7.423125 4.9690625 7.423125 4.9690625 8.875 4.9375 C12 5 12 5 14 6 C16.58399538 9.2539201 17.0334979 10.59132563 16.6875 14.8125 C16.460625 15.864375 16.23375 16.91625 16 18 C12.7 18 9.4 18 6 18 C10.34195294 23.39001055 15.51165454 24.96600028 22 27 C22.09087891 25.73542969 22.09087891 25.73542969 22.18359375 24.4453125 C22.26738281 23.34960938 22.35117188 22.25390625 22.4375 21.125 C22.51871094 20.03445312 22.59992188 18.94390625 22.68359375 17.8203125 C23 15 23 15 24 13 C25.32 13.33 26.64 13.66 28 14 C28.23315984 18.43003695 28.36449187 21.71207613 26.4375 25.75 C24.65248217 28.75261786 24.65248217 28.75261786 25.71875 30.87109375 C25.8115625 31.57363281 25.904375 32.27617188 26 33 C24.41022243 35.00024037 22.92060784 36.59530265 21.0625 38.3125 C20.55976562 38.79525391 20.05703125 39.27800781 19.5390625 39.77539062 C16.00562596 43.14249491 12.37991521 46.40685152 8.65625 49.5625 C6.95880354 50.97825166 6.95880354 50.97825166 5.46875 52.6875 C4 54 4 54 1 54 C0.505 51.525 0.505 51.525 0 49 C-0.99 49 -1.98 49 -3 49 C-2.34 50.98 -1.68 52.96 -1 55 C-1.99 55 -2.98 55 -4 55 C-4 54.34 -4 53.68 -4 53 C-4.763125 53.061875 -5.52625 53.12375 -6.3125 53.1875 C-9 53 -9 53 -10.8125 51.625 C-12 50 -12 50 -12 48 C-13.32 48.66 -14.64 49.32 -16 50 C-16 47 -16 47 -14.3125 45.3125 C-11.62225906 43.78560649 -10.03814435 43.89419398 -7 44 C-7.47050781 43.26394531 -7.94101562 42.52789062 -8.42578125 41.76953125 C-9.04839844 40.79371094 -9.67101563 39.81789062 -10.3125 38.8125 C-10.92738281 37.84957031 -11.54226562 36.88664062 -12.17578125 35.89453125 C-16.71468251 28.69254874 -18.00783474 23.36253575 -19 15 C-18.34 15 -17.68 15 -17 15 C-17 14.34 -17 13.68 -17 13 C-16.01 12.67 -15.02 12.34 -14 12 C-13.4225 11.154375 -12.845 10.30875 -12.25 9.4375 C-10 7 -10 7 -6.5625 6.5625 C-3.31913534 6.96080794 -0.92259432 7.58298457 2 9 C2 7.68 2 6.36 2 5 C1.01 4.67 0.02 4.34 -1 4 C-0.67 2.68 -0.34 1.36 0 0 Z " fill="#8E8E8E" transform="translate(51,22)"/>
<path d="M0 0 C6 1 6 1 7 2 C7.08737645 3.85369611 7.10698153 5.71067541 7.09765625 7.56640625 C7.09282227 9.2534668 7.09282227 9.2534668 7.08789062 10.97460938 C7.07951172 12.15861328 7.07113281 13.34261719 7.0625 14.5625 C7.05798828 15.75037109 7.05347656 16.93824219 7.04882812 18.16210938 C7.03699675 21.10812226 7.02051287 24.05403681 7 27 C7.66 27 8.32 27 9 27 C9.66 25.68 10.32 24.36 11 23 C11.66 23 12.32 23 13 23 C12.95875 23.886875 12.9175 24.77375 12.875 25.6875 C12.82866033 29.38392777 12.82866033 29.38392777 15 34 C15.33 28.39 15.66 22.78 16 17 C18.31 17 20.62 17 23 17 C23.33 18.98 23.66 20.96 24 23 C26.31 23 28.62 23 31 23 C31 28.28 31 33.56 31 39 C29.02 39 27.04 39 25 39 C24.67 35.04 24.34 31.08 24 27 C23.67 30.96 23.34 34.92 23 39 C20.70839681 39.02692484 18.41670454 39.04636124 16.125 39.0625 C14.84882812 39.07410156 13.57265625 39.08570313 12.2578125 39.09765625 C9 39 9 39 7 38 C3.535 38.495 3.535 38.495 0 39 C0 26.13 0 13.26 0 0 Z " fill="#575757" transform="translate(94,68)"/>
<path d="M0 0 C1.65 0 3.3 0 5 0 C5.33 1.65 5.66 3.3 6 5 C7.423125 4.9690625 7.423125 4.9690625 8.875 4.9375 C12 5 12 5 14 6 C13.67 6.66 13.34 7.32 13 8 C12.34 7.67 11.68 7.34 11 7 C7.95826106 6.83329727 7.95826106 6.83329727 5 7 C3.75024909 8.01707287 3.75024909 8.01707287 3.97265625 10.14453125 C4.03229232 11.91546334 4.09476744 13.68630223 4.16015625 15.45703125 C3.99070777 18.14754243 3.3649995 19.70358908 2 22 C0.68 22 -0.64 22 -2 22 C-2 21.34 -2 20.68 -2 20 C-2.66 20 -3.32 20 -4 20 C-4.268125 20.61875 -4.53625 21.2375 -4.8125 21.875 C-6 24 -6 24 -9 26 C-11.6875 26.125 -11.6875 26.125 -14 26 C-14 27.98 -14 29.96 -14 32 C-18.27098165 26.98623893 -18.25038348 21.31819642 -19 15 C-18.34 15 -17.68 15 -17 15 C-17 14.34 -17 13.68 -17 13 C-16.01 12.67 -15.02 12.34 -14 12 C-13.4225 11.154375 -12.845 10.30875 -12.25 9.4375 C-10 7 -10 7 -6.5625 6.5625 C-3.31913534 6.96080794 -0.92259432 7.58298457 2 9 C2 7.68 2 6.36 2 5 C1.01 4.67 0.02 4.34 -1 4 C-0.67 2.68 -0.34 1.36 0 0 Z " fill="#F6F6F6" transform="translate(51,22)"/>
<path d="M0 0 C4.66275545 0.62767862 6.14708284 1.8804974 9.25 5.4375 C9.125 9.25 9.125 9.25 8.25 12.4375 C4.95 12.4375 1.65 12.4375 -1.75 12.4375 C1.1295976 17.01498509 1.1295976 17.01498509 5.25 20.4375 C4.92 23.4075 4.59 26.3775 4.25 29.4375 C3.59 29.4375 2.93 29.4375 2.25 29.4375 C2.25 28.4475 2.25 27.4575 2.25 26.4375 C-6.165 26.9325 -6.165 26.9325 -14.75 27.4375 C-14.42 26.4475 -14.09 25.4575 -13.75 24.4375 C-10.285 23.9425 -10.285 23.9425 -6.75 23.4375 C-8.06201173 21.87500191 -8.06201173 21.87500191 -9.75 20.4375 C-10.74 20.4375 -11.73 20.4375 -12.75 20.4375 C-13.41 21.7575 -14.07 23.0775 -14.75 24.4375 C-15.08 24.4375 -15.41 24.4375 -15.75 24.4375 C-16.1525937 20.91480515 -15.88372795 19.63809192 -13.875 16.625 C-13.17375 15.903125 -12.4725 15.18125 -11.75 14.4375 C-11.09 14.4375 -10.43 14.4375 -9.75 14.4375 C-9.75 15.0975 -9.75 15.7575 -9.75 16.4375 C-8.43 16.1075 -7.11 15.7775 -5.75 15.4375 C-4.96417375 12.29419501 -4.72457157 9.46818047 -4.8125 6.25 C-4.73897099 1.76473037 -4.47166436 0.71140115 0 0 Z " fill="#6B6B6B" transform="translate(58.75,27.5625)"/>
<path d="M0 0 C3.62519589 -0.05375085 7.2496019 -0.09355293 10.875 -0.125 C11.90753906 -0.14175781 12.94007812 -0.15851563 14.00390625 -0.17578125 C14.99003906 -0.18222656 15.97617188 -0.18867187 16.9921875 -0.1953125 C18.35899658 -0.21102295 18.35899658 -0.21102295 19.75341797 -0.22705078 C22 0 22 0 24 2 C24.1953125 5.2578125 24.1953125 5.2578125 24.125 9.125 C24.10695313 10.40632813 24.08890625 11.68765625 24.0703125 13.0078125 C24.04710938 13.99523437 24.02390625 14.98265625 24 16 C21.69 16 19.38 16 17 16 C16.67 12.04 16.34 8.08 16 4 C15.67 7.96 15.34 11.92 15 16 C12.69 16 10.38 16 8 16 C7.67 12.37 7.34 8.74 7 5 C6.67 8.3 6.34 11.6 6 15 C4.02 15 2.04 15 0 15 C0 10.05 0 5.1 0 0 Z " fill="#676767" transform="translate(51,91)"/>
<path d="M0 0 C-0.02271662 5.77002132 -0.49105694 9.00905338 -4.421875 13.34375 C-5.84410684 14.75017926 -7.28757447 16.1354128 -8.75 17.5 C-9.46671875 18.21414062 -10.1834375 18.92828125 -10.921875 19.6640625 C-16.9263818 25.46989077 -16.9263818 25.46989077 -22 26 C-24.66113189 25.6056561 -27.19766921 25.15052415 -29.8125 24.5625 C-30.50537109 24.41490234 -31.19824219 24.26730469 -31.91210938 24.11523438 C-33.60996815 23.75224388 -35.30526763 23.37731777 -37 23 C-37.58984375 20.61328125 -37.58984375 20.61328125 -38 18 C-36.5625 16.1875 -36.5625 16.1875 -35 15 C-35 16.65 -35 18.3 -35 20 C-34.01 20 -33.02 20 -32 20 C-32 20.66 -32 21.32 -32 22 C-31.01 22 -30.02 22 -29 22 C-29.66 20.02 -30.32 18.04 -31 16 C-30.01 16 -29.02 16 -28 16 C-27.67 17.65 -27.34 19.3 -27 21 C-22.89506742 18.88533776 -20.06759864 16.17529838 -16.8984375 12.90234375 C-14.31664655 10.31524047 -11.56285681 7.95566298 -8.7890625 5.578125 C-6.8537029 3.91800917 -6.8537029 3.91800917 -4.6875 1.5625 C-3 0 -3 0 0 0 Z " fill="#CDCDCD" transform="translate(79,55)"/>
<path d="M0 0 C13.45350258 -0.37027989 13.45350258 -0.37027989 15.9140625 1.296875 C17.82730671 4.29750261 17.54177 6.56878997 17 10 C13.87944243 12.70448323 12.16725696 14 8 14 C8 16.64 8 19.28 8 22 C5.36 22 2.72 22 0 22 C0 14.74 0 7.48 0 0 Z " fill="#7D7D7D" transform="translate(3,85)"/>
<path d="M0 0 C6 1 6 1 7 2 C7.41485595 6.4249877 7.51733007 10.87219939 7.6875 15.3125 C7.74744141 16.56224609 7.80738281 17.81199219 7.86914062 19.09960938 C7.91619141 20.30037109 7.96324219 21.50113281 8.01171875 22.73828125 C8.05772217 23.84212158 8.10372559 24.94596191 8.15112305 26.08325195 C8.0006501 28.98745269 7.51723603 30.55752059 6 33 C6.66 33 7.32 33 8 33 C8.33 34.65 8.66 36.3 9 38 C4.545 38.495 4.545 38.495 0 39 C0 26.13 0 13.26 0 0 Z " fill="#A67979" transform="translate(94,68)"/>
<path d="M0 0 C1.32 0.33 2.64 0.66 4 1 C4.31233884 6.93443789 3.88774951 10.75926941 1 16 C0.01 16.33 -0.98 16.66 -2 17 C-2 17.99 -2 18.98 -2 20 C-2.61875 20.226875 -3.2375 20.45375 -3.875 20.6875 C-6.23244106 21.8440732 -6.23244106 21.8440732 -6.9375 24.5 C-8 27 -8 27 -10.3125 28.375 C-13.27149356 29.06313804 -15.10351441 28.82756731 -18 28 C-18 27.34 -18 26.68 -18 26 C-18.66 25.67 -19.32 25.34 -20 25 C-19.34 24.67 -18.68 24.34 -18 24 C-16.86649466 21.98330173 -16.86649466 21.98330173 -16 20 C-15.34 20 -14.68 20 -14 20 C-14 20.66 -14 21.32 -14 22 C-13.34 22 -12.68 22 -12 22 C-11.91868537 20.56344146 -11.86066441 19.1255517 -11.8125 17.6875 C-11.77769531 16.88699219 -11.74289063 16.08648437 -11.70703125 15.26171875 C-12.06198392 12.52148416 -12.89366282 11.70828921 -15 10 C-13.58194169 10.28482368 -12.16559621 10.57818144 -10.75 10.875 C-9.96109375 11.03742187 -9.1721875 11.19984375 -8.359375 11.3671875 C-6.03168856 11.99150075 -4.10968048 12.84838542 -2 14 C-1.90912109 12.73542969 -1.90912109 12.73542969 -1.81640625 11.4453125 C-1.73261719 10.34960938 -1.64882812 9.25390625 -1.5625 8.125 C-1.48128906 7.03445312 -1.40007812 5.94390625 -1.31640625 4.8203125 C-1 2 -1 2 0 0 Z " fill="#AFAFAF" transform="translate(75,35)"/>
<path d="M0 0 C1.32 0 2.64 0 4 0 C3.47941213 4.11737677 1.34887273 5.99002414 -1.5625 8.8125 C-2.91214844 10.12347656 -2.91214844 10.12347656 -4.2890625 11.4609375 C-7.23732349 14.22227704 -10.23044043 16.91187736 -13.30859375 19.52734375 C-15.03591317 20.97321152 -15.03591317 20.97321152 -16.53515625 22.69140625 C-18 24 -18 24 -21 24 C-21.33 22.35 -21.66 20.7 -22 19 C-22.99 19 -23.98 19 -25 19 C-24.34 20.98 -23.68 22.96 -23 25 C-23.99 25 -24.98 25 -26 25 C-26 24.34 -26 23.68 -26 23 C-27.65 23 -29.3 23 -31 23 C-31.33 21.02 -31.66 19.04 -32 17 C-31.360625 16.896875 -30.72125 16.79375 -30.0625 16.6875 C-29.0415625 16.3471875 -29.0415625 16.3471875 -28 16 C-27.67 15.01 -27.34 14.02 -27 13 C-25.68 13.33 -24.36 13.66 -23 14 C-23 13.01 -23 12.02 -23 11 C-22.01 11 -21.02 11 -20 11 C-19.67 11.66 -19.34 12.32 -19 13 C-14.06189264 12.50618926 -10.19299398 11.73032166 -6 9 C-5.29289322 7.35008418 -4.62056011 5.68437744 -4 4 C-1.875 3.1875 -1.875 3.1875 0 3 C0 2.01 0 1.02 0 0 Z " fill="#767676" transform="translate(73,52)"/>
<path d="M0 0 C2.31 0 4.62 0 7 0 C7.33 3.63 7.66 7.26 8 11 C8.33 7.37 8.66 3.74 9 0 C11.31 0 13.62 0 16 0 C16 5.28 16 10.56 16 16 C13 16 10 16 7 16 C6.154375 16.061875 5.30875 16.12375 4.4375 16.1875 C3.2309375 16.0946875 3.2309375 16.0946875 2 16 C-0.42130331 12.36804504 -0.21022785 10.61650652 -0.125 6.3125 C-0.09792969 4.54326172 -0.09792969 4.54326172 -0.0703125 2.73828125 C-0.04710938 1.83464844 -0.02390625 0.93101563 0 0 Z " fill="#6E6E6E" transform="translate(76,91)"/>
<path d="M0 0 C0.99 0.33 1.98 0.66 3 1 C3.77916092 6.02125926 4.13016601 9.97703996 3 15 C3.66 15.33 4.32 15.66 5 16 C4.34 19.96 3.68 23.92 3 28 C-2.99940457 26.90919917 -7.26838733 25.90358045 -12 22 C-12.33 21.01 -12.66 20.02 -13 19 C-9.7 19 -6.4 19 -3 19 C-2.70437633 13.67829506 -2.70437633 13.67829506 -5 9 C-3.68 9 -2.36 9 -1 9 C-1.391875 8.443125 -1.78375 7.88625 -2.1875 7.3125 C-2.455625 6.549375 -2.72375 5.78625 -3 5 C-1.625 2.25 -1.625 2.25 0 0 Z " fill="#CCCCCC" transform="translate(70,21)"/>
<path d="M0 0 C1.60379341 -0.05416188 3.20811406 -0.09286638 4.8125 -0.125 C5.70582031 -0.14820312 6.59914063 -0.17140625 7.51953125 -0.1953125 C10 0 10 0 13 2 C13.546875 5.00390625 13.546875 5.00390625 13.75 8.5625 C13.82734375 9.73941406 13.9046875 10.91632813 13.984375 12.12890625 C13.98953125 13.07636719 13.9946875 14.02382812 14 15 C12.12756019 16.87243981 9.06340482 16.17380392 6.5625 16.1875 C5.38816406 16.20167969 4.21382812 16.21585938 3.00390625 16.23046875 C0 16 0 16 -2 14 C-2.4375 11.5625 -2.4375 11.5625 -2 9 C0.375 7.25 0.375 7.25 3 6 C3.66 5.67 4.32 5.34 5 5 C5.65213292 2.97536745 5.65213292 2.97536745 6 1 C5.01 1.33 4.02 1.66 3 2 C2.67 2.99 2.34 3.98 2 5 C1.01 5 0.02 5 -1 5 C-0.67 3.35 -0.34 1.7 0 0 Z " fill="#616161" transform="translate(36,91)"/>
<path d="M0 0 C2.31 0 4.62 0 7 0 C7.33 2.64 7.66 5.28 8 8 C7.34 8 6.68 8 6 8 C6 5.69 6 3.38 6 1 C4.35 1 2.7 1 1 1 C1 7.6 1 14.2 1 21 C2.65 21 4.3 21 6 21 C6 18.03 6 15.06 6 12 C6.33 12 6.66 12 7 12 C7 15.3 7 18.6 7 22 C2.38 22 -2.24 22 -7 22 C-7.33 20.02 -7.66 18.04 -8 16 C-8.66 16 -9.32 16 -10 16 C-9.38479725 12.00118212 -7.39731331 9.19641774 -5 6 C-4.34 6 -3.68 6 -3 6 C-3.04125 6.886875 -3.0825 7.77375 -3.125 8.6875 C-3.17133967 12.38392777 -3.17133967 12.38392777 -1 17 C-0.67 11.39 -0.34 5.78 0 0 Z " fill="#747474" transform="translate(110,85)"/>
<path d="M0 0 C1.51400391 0.01740234 1.51400391 0.01740234 3.05859375 0.03515625 C4.07050781 0.04417969 5.08242188 0.05320312 6.125 0.0625 C7.29869141 0.07990234 7.29869141 0.07990234 8.49609375 0.09765625 C8.82609375 1.74765625 9.15609375 3.39765625 9.49609375 5.09765625 C8.17609375 5.42765625 6.85609375 5.75765625 5.49609375 6.09765625 C5.16609375 5.10765625 4.83609375 4.11765625 4.49609375 3.09765625 C4.16609375 7.38765625 3.83609375 11.67765625 3.49609375 16.09765625 C1.18609375 16.09765625 -1.12390625 16.09765625 -3.50390625 16.09765625 C-3.5307572 13.61841824 -3.55067172 11.13946785 -3.56640625 8.66015625 C-3.57897461 7.59958008 -3.57897461 7.59958008 -3.59179688 6.51757812 C-3.60044213 4.71072066 -3.55610636 2.90378022 -3.50390625 1.09765625 C-2.50390625 0.09765625 -2.50390625 0.09765625 0 0 Z " fill="#535353" transform="translate(24.50390625,90.90234375)"/>
<path d="M0 0 C3.63 0 7.26 0 11 0 C11 0.33 11 0.66 11 1 C9.35 1 7.7 1 6 1 C6 3.97 6 6.94 6 10 C6.99 10.33 7.98 10.66 9 11 C8.01 11 7.02 11 6 11 C6 13.97 6 16.94 6 20 C4.02 20 2.04 20 0 20 C0 13.4 0 6.8 0 0 Z " fill="#555555" transform="translate(4,86)"/>
<path d="M0 0 C0.66 1.32 1.32 2.64 2 4 C1.34 4 0.68 4 0 4 C-0.103125 4.763125 -0.20625 5.52625 -0.3125 6.3125 C-1.07046269 9.27544506 -1.58806197 10.19104648 -4 12 C-8.61432752 14.71431031 -12.95184548 13.99502503 -18 13 C-21.0625 11.9375 -21.0625 11.9375 -23 11 C-22.38722388 8.03824877 -21.74627478 6.61941217 -20 4 C-20 5.65 -20 7.3 -20 9 C-19.01 9 -18.02 9 -17 9 C-17 9.66 -17 10.32 -17 11 C-16.01 11 -15.02 11 -14 11 C-14.66 9.02 -15.32 7.04 -16 5 C-15.01 5 -14.02 5 -13 5 C-12.67 6.65 -12.34 8.3 -12 10 C-7.14032976 7.49653351 -3.72143296 3.91447559 0 0 Z " fill="#CCCCCC" transform="translate(64,66)"/>
<path d="M0 0 C0.33 0 0.66 0 1 0 C1.2258868 4.41595304 1.42767834 8.83268565 1.625 13.25 C1.68945312 14.50425781 1.75390625 15.75851563 1.8203125 17.05078125 C1.871875 18.25605469 1.9234375 19.46132812 1.9765625 20.703125 C2.02893066 21.81333008 2.08129883 22.92353516 2.13525391 24.06738281 C2.00051254 26.98888697 1.52929484 28.54686494 0 31 C0.66 31 1.32 31 2 31 C2.33 32.65 2.66 34.3 3 36 C-1.455 36.495 -1.455 36.495 -6 37 C-5.01 36.505 -5.01 36.505 -4 36 C-4 30.06 -4 24.12 -4 18 C-2.68 18 -1.36 18 0 18 C0 12.06 0 6.12 0 0 Z " fill="#C6C6C6" transform="translate(100,70)"/>
<path d="M0 0 C1.670625 0.061875 1.670625 0.061875 3.375 0.125 C3.375 0.785 3.375 1.445 3.375 2.125 C4.365 2.125 5.355 2.125 6.375 2.125 C6.59120175 4.7914882 6.68394168 6.56504321 5.375 8.9375 C2.13511038 10.86118446 -0.9075819 10.30782384 -4.625 10.125 C-6.00625018 7.36249964 -5.81579306 5.17768901 -5.625 2.125 C-3.625 0.125 -3.625 0.125 0 0 Z " fill="#565656" transform="translate(43.625,29.875)"/>
<path d="M0 0 C1.23556641 0.01740234 1.23556641 0.01740234 2.49609375 0.03515625 C3.32238281 0.04417969 4.14867188 0.05320312 5 0.0625 C5.63808594 0.07410156 6.27617188 0.08570312 6.93359375 0.09765625 C7.55859375 3.47265625 7.55859375 3.47265625 7.93359375 7.09765625 C5.93359375 9.09765625 5.93359375 9.09765625 2.43359375 9.34765625 C-1.06640625 9.09765625 -1.06640625 9.09765625 -3.06640625 7.09765625 C-3.25390625 4.03515625 -3.25390625 4.03515625 -3.06640625 1.09765625 C-2.06640625 0.09765625 -2.06640625 0.09765625 0 0 Z " fill="#D2D2D2" transform="translate(62.06640625,110.90234375)"/>
<path d="M0 0 C1.98 0 3.96 0 6 0 C6 4.95 6 9.9 6 15 C4.02 15 2.04 15 0 15 C0 10.05 0 5.1 0 0 Z " fill="#595959" transform="translate(51,91)"/>
<path d="M0 0 C0.99 0 1.98 0 3 0 C4.125 6.75 4.125 6.75 3 9 C2.01 9 1.02 9 0 9 C0 9.99 0 10.98 0 12 C-0.99 12.33 -1.98 12.66 -3 13 C-3.33 13.99 -3.66 14.98 -4 16 C-4.66 16 -5.32 16 -6 16 C-6 15.34 -6 14.68 -6 14 C-7.98 14.99 -7.98 14.99 -10 16 C-10 13 -10 13 -8.3125 11.3125 C-5.6402007 9.79578959 -4.02346601 9.7480445 -1 10 C-2.98 6.535 -2.98 6.535 -5 3 C-4.360625 2.87625 -3.72125 2.7525 -3.0625 2.625 C-2.0415625 2.315625 -2.0415625 2.315625 -1 2 C-0.67 1.34 -0.34 0.68 0 0 Z " fill="#B6B6B6" transform="translate(45,56)"/>
<path d="M0 0 C1.65 0 3.3 0 5 0 C5 3.96 5 7.92 5 12 C5.66 12 6.32 12 7 12 C6.67 12.99 6.34 13.98 6 15 C4.33388095 15.042721 2.66617115 15.04063832 1 15 C0 14 0 14 -0.09765625 10.83984375 C-0.08025391 8.90818359 -0.08025391 8.90818359 -0.0625 6.9375 C-0.05347656 5.64714844 -0.04445313 4.35679688 -0.03515625 3.02734375 C-0.02355469 2.02832031 -0.01195313 1.02929688 0 0 Z " fill="#575757" transform="translate(77,92)"/>
<path d="M0 0 C1.65 0 3.3 0 5 0 C5.33 1.65 5.66 3.3 6 5 C7.423125 4.9690625 7.423125 4.9690625 8.875 4.9375 C12 5 12 5 14 6 C13.67 6.66 13.34 7.32 13 8 C12.34 7.67 11.68 7.34 11 7 C9.00039988 6.960008 6.99952758 6.95653201 5 7 C4.34 9.31 3.68 11.62 3 14 C2.67 13.01 2.34 12.02 2 11 C1.34 11 0.68 11 0 11 C-0.33 11.66 -0.66 12.32 -1 13 C-1 12.01 -1 11.02 -1 10 C-1.99 10 -2.98 10 -4 10 C-4 9.34 -4 8.68 -4 8 C-5.98 8 -7.96 8 -10 8 C-10 7.67 -10 7.34 -10 7 C-5.45194365 6.82164485 -2.1205746 7.00214565 2 9 C2 7.68 2 6.36 2 5 C1.01 4.67 0.02 4.34 -1 4 C-0.67 2.68 -0.34 1.36 0 0 Z " fill="#A6A6A6" transform="translate(51,22)"/>
<path d="M0 0 C1.32 0.33 2.64 0.66 4 1 C4.3152595 6.98993047 3.68219822 10.63560356 1 16 C-1.97 15.505 -1.97 15.505 -5 15 C-4.01 14.67 -3.02 14.34 -2 14 C-1.93941406 13.15695313 -1.87882812 12.31390625 -1.81640625 11.4453125 C-1.73261719 10.34960938 -1.64882812 9.25390625 -1.5625 8.125 C-1.48128906 7.03445312 -1.40007812 5.94390625 -1.31640625 4.8203125 C-1 2 -1 2 0 0 Z " fill="#B1B1B1" transform="translate(75,35)"/>
<path d="M0 0 C3.125 0.5 3.125 0.5 5.5 3.375 C7.125 6.5 7.125 6.5 7.125 8.5 C3.165 8.5 -0.795 8.5 -4.875 8.5 C-4.875 0.84782609 -4.875 0.84782609 0 0 Z " fill="#4C4C4D" transform="translate(58.875,27.5)"/>
<path d="M0 0 C0.66 0.33 1.32 0.66 2 1 C1.85950482 2.47968324 1.71245174 3.95874516 1.5625 5.4375 C1.48128906 6.26121094 1.40007813 7.08492188 1.31640625 7.93359375 C1 10 1 10 0 11 C-2.4375 11.1875 -2.4375 11.1875 -5 11 C-7 9 -7 9 -7.4375 6.5625 C-7 4 -7 4 -4.625 2.25 C-3.75875 1.8375 -2.8925 1.425 -2 1 C-1.34 0.67 -0.68 0.34 0 0 Z " fill="#797979" transform="translate(41,96)"/>
<path d="M0 0 C1.32 0 2.64 0 4 0 C3.4950566 4.19491443 1.20250793 6.13484438 -1.75 9 C-2.61109375 9.845625 -3.4721875 10.69125 -4.359375 11.5625 C-6.82337891 13.83696515 -9.35301143 15.94334701 -12 18 C-12.66 17.67 -13.32 17.34 -14 17 C-12.8125 14.125 -12.8125 14.125 -11 11 C-9.34183216 10.31246699 -7.67540664 9.64438717 -6 9 C-5.31246699 7.34183216 -4.64438717 5.67540664 -4 4 C-1.875 3.1875 -1.875 3.1875 0 3 C0 2.01 0 1.02 0 0 Z " fill="#505051" transform="translate(73,52)"/>
<path d="M0 0 C1.51400391 0.01740234 1.51400391 0.01740234 3.05859375 0.03515625 C4.07050781 0.04417969 5.08242188 0.05320312 6.125 0.0625 C7.29869141 0.07990234 7.29869141 0.07990234 8.49609375 0.09765625 C8.82609375 1.74765625 9.15609375 3.39765625 9.49609375 5.09765625 C8.17609375 5.42765625 6.85609375 5.75765625 5.49609375 6.09765625 C5.16609375 5.10765625 4.83609375 4.11765625 4.49609375 3.09765625 C4.16609375 7.38765625 3.83609375 11.67765625 3.49609375 16.09765625 C1.18609375 16.09765625 -1.12390625 16.09765625 -3.50390625 16.09765625 C-3.5307572 13.61841824 -3.55067172 11.13946785 -3.56640625 8.66015625 C-3.57897461 7.59958008 -3.57897461 7.59958008 -3.59179688 6.51757812 C-3.60044213 4.71072066 -3.55610636 2.90378022 -3.50390625 1.09765625 C-2.50390625 0.09765625 -2.50390625 0.09765625 0 0 Z M-2.50390625 1.09765625 C-2.50390625 5.71765625 -2.50390625 10.33765625 -2.50390625 15.09765625 C-0.85390625 15.09765625 0.79609375 15.09765625 2.49609375 15.09765625 C2.49609375 10.47765625 2.49609375 5.85765625 2.49609375 1.09765625 C0.84609375 1.09765625 -0.80390625 1.09765625 -2.50390625 1.09765625 Z " fill="#7D7D7D" transform="translate(24.50390625,90.90234375)"/>
<path d="M0 0 C1.32 0.66 2.64 1.32 4 2 C4 2.66 4 3.32 4 4 C3.01 4.33 2.02 4.66 1 5 C0.26676204 7.01508358 0.26676204 7.01508358 0 9 C-4.38462134 8.49890042 -6.8000997 7.01704885 -10 4 C-10 3.34 -10 2.68 -10 2 C-6.7 2 -3.4 2 0 2 C0 1.34 0 0.68 0 0 Z " fill="#F1F1F1" transform="translate(67,38)"/>
<path d="M0 0 C0.99 0.33 1.98 0.66 3 1 C3.54466387 5.084979 4 8.8725485 4 13 C2.35 13.66 0.7 14.32 -1 15 C-1 13.35 -1 11.7 -1 10 C-1.66 9.67 -2.32 9.34 -3 9 C-2.34 9 -1.68 9 -1 9 C-1.5878125 8.1646875 -1.5878125 8.1646875 -2.1875 7.3125 C-2.455625 6.549375 -2.72375 5.78625 -3 5 C-1.625 2.25 -1.625 2.25 0 0 Z " fill="#DCDCDC" transform="translate(70,21)"/>
<path d="M0 0 C3.88278571 2.25907532 4.8758445 3.86620603 6.4375 8 C5.4475 8 4.4575 8 3.4375 8 C3.1075 6.35 2.7775 4.7 2.4375 3 C1.4475 3 0.4575 3 -0.5625 3 C0.0975 4.98 0.7575 6.96 1.4375 9 C0.4475 9 -0.5425 9 -1.5625 9 C-1.5625 8.34 -1.5625 7.68 -1.5625 7 C-3.2125 7 -4.8625 7 -6.5625 7 C-6.8925 5.02 -7.2225 3.04 -7.5625 1 C-4.61572392 -1.23954982 -3.65173491 -1.0250484 0 0 Z " fill="#8D8D8D" transform="translate(48.5625,68)"/>
<path d="M0 0 C2.5625 1.5625 2.5625 1.5625 5 4 C4.8125 7.75 4.8125 7.75 4 11 C2.741875 11.020625 1.48375 11.04125 0.1875 11.0625 C-0.52019531 11.07410156 -1.22789063 11.08570313 -1.95703125 11.09765625 C-4 11 -4 11 -7 10 C-7 9.34 -7 8.68 -7 8 C-7.66 7.67 -8.32 7.34 -9 7 C-4.6835078 6.23826608 -1.25566547 5.83936396 3 7 C2.505 6.21625 2.01 5.4325 1.5 4.625 C0 2 0 2 0 0 Z " fill="#7D7D7D" transform="translate(63,29)"/>
<path d="M0 0 C1.23556641 0.01740234 1.23556641 0.01740234 2.49609375 0.03515625 C3.32238281 0.04417969 4.14867187 0.05320312 5 0.0625 C5.63808594 0.07410156 6.27617187 0.08570312 6.93359375 0.09765625 C6.60359375 1.08765625 6.27359375 2.07765625 5.93359375 3.09765625 C3.62359375 2.76765625 1.31359375 2.43765625 -1.06640625 2.09765625 C-1.06640625 3.74765625 -1.06640625 5.39765625 -1.06640625 7.09765625 C-0.07640625 6.76765625 0.91359375 6.43765625 1.93359375 6.09765625 C1.93359375 5.43765625 1.93359375 4.77765625 1.93359375 4.09765625 C3.58359375 4.09765625 5.23359375 4.09765625 6.93359375 4.09765625 C6.93359375 5.41765625 6.93359375 6.73765625 6.93359375 8.09765625 C5.93359375 9.09765625 5.93359375 9.09765625 2.49609375 9.28515625 C-1.06640625 9.09765625 -1.06640625 9.09765625 -3.06640625 7.09765625 C-3.25390625 4.03515625 -3.25390625 4.03515625 -3.06640625 1.09765625 C-2.06640625 0.09765625 -2.06640625 0.09765625 0 0 Z " fill="#D4D4D4" transform="translate(6.06640625,110.90234375)"/>
<path d="M0 0 C0.99 0.33 1.98 0.66 3 1 C2.649375 1.78375 2.29875 2.5675 1.9375 3.375 C1.628125 4.24125 1.31875 5.1075 1 6 C1.95865509 8.33075929 1.95865509 8.33075929 5 10 C2.69 10.33 0.38 10.66 -2 11 C-2.33 10.01 -2.66 9.02 -3 8 C-3.99 8 -4.98 8 -6 8 C-6 8.99 -6 9.98 -6 11 C-7.32 10.67 -8.64 10.34 -10 10 C-9.34 10 -8.68 10 -8 10 C-7.67 8.35 -7.34 6.7 -7 5 C-3.535 4.505 -3.535 4.505 0 4 C0 2.68 0 1.36 0 0 Z " fill="#979797" transform="translate(56,55)"/>
<path d="M0 0 C1.98 0.99 1.98 0.99 4 2 C4 3.32 4 4.64 4 6 C4.66 6 5.32 6 6 6 C6 6.66 6 7.32 6 8 C9.465 7.505 9.465 7.505 13 7 C11.8125 8.5 11.8125 8.5 10 10 C7.3125 10.1875 7.3125 10.1875 5 10 C5 11.98 5 13.96 5 16 C2.45904411 13.01713874 1.53931166 10.86506687 1 7 C0.814375 5.741875 0.62875 4.48375 0.4375 3.1875 C0.293125 2.135625 0.14875 1.08375 0 0 Z " fill="#CECECE" transform="translate(32,38)"/>
<path d="M0 0 C2.97 0 5.94 0 9 0 C9 2.64 9 5.28 9 8 C8.67 7.34 8.34 6.68 8 6 C5.69 6 3.38 6 1 6 C0.67 6.66 0.34 7.32 0 8 C0 5.36 0 2.72 0 0 Z " fill="#D7D7D7" transform="translate(32,111)"/>
<path d="M0 0 C0.33 0 0.66 0 1 0 C1.33 8.91 1.66 17.82 2 27 C1.34 27 0.68 27 0 27 C0 26.34 0 25.68 0 25 C-1.32 24.67 -2.64 24.34 -4 24 C-4 22.02 -4 20.04 -4 18 C-2.68 18 -1.36 18 0 18 C0 12.06 0 6.12 0 0 Z " fill="#BFBFBF" transform="translate(100,70)"/>
<path d="M0 0 C0 3.3 0 6.6 0 10 C-1.65 10 -3.3 10 -5 10 C-6.4783226 7.04335481 -6.06032783 4.25770263 -6 1 C-1.125 0 -1.125 0 0 0 Z " fill="#969696" transform="translate(43,47)"/>
<path d="M0 0 C0.33 0.66 0.66 1.32 1 2 C3.97 2 6.94 2 10 2 C10 4 10 4 8.75 5.6875 C7 7 7 7 5.0625 6.75 C4.381875 6.5025 3.70125 6.255 3 6 C2.2575 5.814375 1.515 5.62875 0.75 5.4375 C-0.11625 5.2209375 -0.11625 5.2209375 -1 5 C-1.66 6.32 -2.32 7.64 -3 9 C-3.33 9 -3.66 9 -4 9 C-4.25 6.75 -4.25 6.75 -4 4 C-2 1.6875 -2 1.6875 0 0 Z " fill="#353536" transform="translate(47,43)"/>
<path d="M0 0 C0.33 0 0.66 0 1 0 C1 1.65 1 3.3 1 5 C1.99 5 2.98 5 4 5 C4 5.66 4 6.32 4 7 C4.99 7 5.98 7 7 7 C6.34 5.02 5.68 3.04 5 1 C5.99 1 6.98 1 8 1 C8.12375 1.804375 8.2475 2.60875 8.375 3.4375 C8.58125 4.283125 8.7875 5.12875 9 6 C9.66 6.33 10.32 6.66 11 7 C8.11788698 7.96070434 6.30149956 8.10581883 3.3125 8.0625 C2.10013672 8.04896484 2.10013672 8.04896484 0.86328125 8.03515625 C-0.05904297 8.01775391 -0.05904297 8.01775391 -1 8 C-1.625 5.6875 -1.625 5.6875 -2 3 C-1.34 2.01 -0.68 1.02 0 0 Z " fill="#979697" transform="translate(43,70)"/>
<path d="M0 0 C0.66 0 1.32 0 2 0 C2.08273478 4.55041288 1.86475985 6.90384933 -1 10.53515625 C-3.25949513 12.81999828 -5.48132901 15.00354887 -8 17 C-8.66 17 -9.32 17 -10 17 C-9.67 15.35 -9.34 13.7 -9 12 C-8.1028125 11.87625 -8.1028125 11.87625 -7.1875 11.75 C-4.25494852 10.74455378 -3.54971552 9.67678136 -2 7 C-1.26739841 4.68652128 -0.588562 2.354248 0 0 Z " fill="#B6B6B6" transform="translate(77,56)"/>
<path d="M0 0 C0.33 0 0.66 0 1 0 C1 6.27 1 12.54 1 19 C-2.43600559 13.84599161 -3.24403837 10.22297833 -3 4 C-2.34 4 -1.68 4 -1 4 C-0.67 2.68 -0.34 1.36 0 0 Z " fill="#ECECEC" transform="translate(109,86)"/>
<path d="M0 0 C0.33 0 0.66 0 1 0 C1 1.65 1 3.3 1 5 C1.66 4.67 2.32 4.34 3 4 C4.54023996 3.93049459 6.08334988 3.91547643 7.625 3.9375 C8.85089844 3.95103516 8.85089844 3.95103516 10.1015625 3.96484375 C11.04128906 3.98224609 11.04128906 3.98224609 12 4 C11 6 11 6 9 8 C6.24627091 8.36933645 3.79634339 8.18336678 1 8 C-0.35439668 5.29120665 -0.06501451 2.99066732 0 0 Z " fill="#6C6C6C" transform="translate(38,32)"/>
<path d="M0 0 C5.28 0 10.56 0 16 0 C16 0.99 16 1.98 16 3 C10.39 3 4.78 3 -1 3 C-0.67 2.01 -0.34 1.02 0 0 Z " fill="#2D2D2D" transform="translate(45,52)"/>
<path d="M0 0 C1.51400391 0.01740234 1.51400391 0.01740234 3.05859375 0.03515625 C4.07050781 0.04417969 5.08242188 0.05320313 6.125 0.0625 C7.29869141 0.07990234 7.29869141 0.07990234 8.49609375 0.09765625 C8.49609375 0.42765625 8.49609375 0.75765625 8.49609375 1.09765625 C6.84609375 1.09765625 5.19609375 1.09765625 3.49609375 1.09765625 C3.49609375 2.41765625 3.49609375 3.73765625 3.49609375 5.09765625 C1.84609375 5.42765625 0.19609375 5.75765625 -1.50390625 6.09765625 C-2.16390625 4.44765625 -2.82390625 2.79765625 -3.50390625 1.09765625 C-2.50390625 0.09765625 -2.50390625 0.09765625 0 0 Z " fill="#7D7D7D" transform="translate(52.50390625,53.90234375)"/>
<path d="M0 0 C0.66 0 1.32 0 2 0 C4.125 6.625 4.125 6.625 3 10 C1.68 10 0.36 10 -1 10 C-2.46726798 6.18510326 -1.43336419 3.70988378 0 0 Z " fill="#F3F3F3" transform="translate(51,33)"/>
<path d="M0 0 C0.66 0 1.32 0 2 0 C3.125 5.625 3.125 5.625 2 9 C0.68 8.67 -0.64 8.34 -2 8 C-2 7.34 -2 6.68 -2 6 C-2.66 5.67 -3.32 5.34 -4 5 C-3.34 4.67 -2.68 4.34 -2 4 C-0.86649466 1.98330173 -0.86649466 1.98330173 0 0 Z " fill="#C0C0C0" transform="translate(59,55)"/>
<path d="M0 0 C0.99 0 1.98 0 3 0 C2.48594831 4.96916636 1.76615118 9.29026351 0 14 C-0.33 14 -0.66 14 -1 14 C-1.02694851 12.04174127 -1.04637218 10.08337774 -1.0625 8.125 C-1.07410156 7.03445312 -1.08570312 5.94390625 -1.09765625 4.8203125 C-1 2 -1 2 0 0 Z " fill="#646464" transform="translate(75,35)"/>
<path d="M0 0 C2.31 0 4.62 0 7 0 C7 1.65 7 3.3 7 5 C4.69 5 2.38 5 0 5 C0 3.35 0 1.7 0 0 Z " fill="#FDFDFD" transform="translate(61,113)"/>
<path d="M0 0 C1.66666667 0 3.33333333 0 5 0 C5 0.66 5 1.32 5 2 C5.66 2.33 6.32 2.66 7 3 C6.34 4.98 5.68 6.96 5 9 C3 7 3 7 2 4 C1.01 4.33 0.02 4.66 -1 5 C-0.67 3.35 -0.34 1.7 0 0 Z " fill="#E3E3E3" transform="translate(34,70)"/>
<path d="M0 0 C0.66 1.32 1.32 2.64 2 4 C1.34 4 0.68 4 0 4 C-0.433125 4.928125 -0.433125 4.928125 -0.875 5.875 C-2 8 -2 8 -4 10 C-4.99 9.67 -5.98 9.34 -7 9 C-5.03681826 5.46627288 -2.95929119 2.75520215 0 0 Z " fill="#A9A9A9" transform="translate(64,66)"/>
<path d="M0 0 C1.32 0 2.64 0 4 0 C3.66354211 3.14027363 2.94763914 4.05098295 0.625 6.3125 C-0.674375 7.1478125 -0.674375 7.1478125 -2 8 C-2.99 7.67 -3.98 7.34 -5 7 C-4.34 5.68 -3.68 4.36 -3 3 C-2.01 3 -1.02 3 0 3 C0 2.01 0 1.02 0 0 Z " fill="#767676" transform="translate(73,52)"/>
<path d="M0 0 C0.99 0.33 1.98 0.66 3 1 C3 1.66 3 2.32 3 3 C4.65 3.33 6.3 3.66 8 4 C7.01 4.495 7.01 4.495 6 5 C6 5.99 6 6.98 6 8 C4.68 8.33 3.36 8.66 2 9 C1.34 6.03 0.68 3.06 0 0 Z " fill="#898989" transform="translate(67,47)"/>
<path d="M0 0 C1.32 0.33 2.64 0.66 4 1 C4.33 2.32 4.66 3.64 5 5 C5.99 4.67 6.98 4.34 8 4 C8 4.66 8 5.32 8 6 C8.66 6.33 9.32 6.66 10 7 C9.34 7 8.68 7 8 7 C8 7.66 8 8.32 8 9 C7.01 9.33 6.02 9.66 5 10 C4.01 9.34 3.02 8.68 2 8 C1.957279 6.33388095 1.95936168 4.66617115 2 3 C1.34 2.01 0.68 1.02 0 0 Z " fill="#D2D2D2" transform="translate(65,30)"/>
<path d="M0 0 C0.66 0 1.32 0 2 0 C2.33 0.99 2.66 1.98 3 3 C3.66 3.33 4.32 3.66 5 4 C5 5.32 5 6.64 5 8 C-0.94 7.01 -0.94 7.01 -7 6 C-7 5.67 -7 5.34 -7 5 C-4.69 5 -2.38 5 0 5 C0 3.35 0 1.7 0 0 Z " fill="#F1EEEE" transform="translate(48,23)"/>
<path d="M0 0 C2.97 0 5.94 0 9 0 C9 1.65 9 3.3 9 5 C8.67 4.01 8.34 3.02 8 2 C6.02 2 4.04 2 2 2 C2 3.98 2 5.96 2 8 C1.34 8 0.68 8 0 8 C0 5.36 0 2.72 0 0 Z " fill="#D0D0D0" transform="translate(116,111)"/>
<path d="M0 0 C1 2 1 2 0.3125 4.4375 C-1.15537873 7.30335848 -2.14079458 8.5295515 -5 10 C-7.75 9.6875 -7.75 9.6875 -10 9 C-8 7 -8 7 -5.5625 5.625 C-2.98093321 3.98790886 -1.65874664 2.53177119 0 0 Z " fill="#E1E1E1" transform="translate(65,71)"/>
<path d="M0 0 C0.66 0 1.32 0 2 0 C2 0.66 2 1.32 2 2 C2.99 2.33 3.98 2.66 5 3 C4.34 3 3.68 3 3 3 C2.67 3.99 2.34 4.98 2 6 C2.33 6.66 2.66 7.32 3 8 C-0.3125 8.6875 -0.3125 8.6875 -4 9 C-5.9375 7.5625 -5.9375 7.5625 -7 6 C-6.34 5.67 -5.68 5.34 -5 5 C-5 5.66 -5 6.32 -5 7 C-3.68 6.67 -2.36 6.34 -1 6 C-0.67 4.02 -0.34 2.04 0 0 Z " fill="#A4A4A4" transform="translate(54,37)"/>
<path d="M0 0 C2.3125 -0.3125 2.3125 -0.3125 5 0 C6.81883009 2.3832946 8 3.95818337 8 7 C6.35 7 4.7 7 3 7 C2.67 6.34 2.34 5.68 2 5 C2.66 5 3.32 5 4 5 C4 4.34 4 3.68 4 3 C2.68 3 1.36 3 0 3 C0 2.01 0 1.02 0 0 Z " fill="#222223" transform="translate(58,29)"/>
<path d="M0 0 C0.66 0.33 1.32 0.66 2 1 C2.33 1.99 2.66 2.98 3 4 C3.66 4.66 4.32 5.32 5 6 C2.64046906 8.35953094 1.22104383 8.49141413 -2 9 C-1.34 6.03 -0.68 3.06 0 0 Z " fill="#959595" transform="translate(63,55)"/>
<path d="M0 0 C1.65 0 3.3 0 5 0 C5 0.66 5 1.32 5 2 C5.99 2 6.98 2 8 2 C8 3.32 8 4.64 8 6 C6.02 6 4.04 6 2 6 C2 5.34 2 4.68 2 4 C2.66 4 3.32 4 4 4 C4 3.34 4 2.68 4 2 C2.68 2 1.36 2 0 2 C0 1.34 0 0.68 0 0 Z " fill="#232324" transform="translate(42,30)"/>
<path d="M0 0 C1.32 0.33 2.64 0.66 4 1 C3.67 3.31 3.34 5.62 3 8 C2.01 8 1.02 8 0 8 C0 5.36 0 2.72 0 0 Z " fill="#CFCFCF" transform="translate(10,88)"/>
<path d="M0 0 C-0.61016949 5.49152542 -0.61016949 5.49152542 -2.4375 7.875 C-4 9 -4 9 -6 9 C-6 8.34 -6 7.68 -6 7 C-5.34 7 -4.68 7 -4 7 C-4 5.68 -4 4.36 -4 3 C-4.99 2.67 -5.98 2.34 -7 2 C-4.35261084 0.5393715 -3.10551666 0 0 0 Z " fill="#636364" transform="translate(61,65)"/>
<path d="M0 0 C0.99 0 1.98 0 3 0 C3.33 2.31 3.66 4.62 4 7 C2.68 7 1.36 7 0 7 C-1.125 2.25 -1.125 2.25 0 0 Z " fill="#C3C3C3" transform="translate(45,56)"/>
<path d="M0 0 C0.99 0.33 1.98 0.66 3 1 C2.34 1 1.68 1 1 1 C0.9175 2.093125 0.835 3.18625 0.75 4.3125 C0 8 0 8 -2.0625 9.9375 C-2.701875 10.288125 -3.34125 10.63875 -4 11 C-3.48964169 6.6109185 -2.47785723 3.66291938 0 0 Z " fill="#DFDFDF" transform="translate(76,55)"/>
<path d="M0 0 C0.66 0 1.32 0 2 0 C2 2.31 2 4.62 2 7 C0.35 7.66 -1.3 8.32 -3 9 C-3 7.35 -3 5.7 -3 4 C-3.66 3.67 -4.32 3.34 -5 3 C-4.34 3 -3.68 3 -3 3 C-2.67 2.34 -2.34 1.68 -2 1 C-1.67 1.33 -1.34 1.66 -1 2 C-0.67 1.34 -0.34 0.68 0 0 Z " fill="#E9E9E9" transform="translate(72,27)"/>
<path d="M0 0 C1.65 0 3.3 0 5 0 C4.67 1.65 4.34 3.3 4 5 C2.35 4.67 0.7 4.34 -1 4 C-0.67 2.68 -0.34 1.36 0 0 Z " fill="#E47A7D" transform="translate(51,22)"/>
<path d="M0 0 C1.9375 0.3125 1.9375 0.3125 4 1 C5 4 5 4 4 7 C2.68 6.67 1.36 6.34 0 6 C0 4.02 0 2.04 0 0 Z " fill="#AAAAAA" transform="translate(96,94)"/>
<path d="M0 0 C1.9375 0.5625 1.9375 0.5625 4 2 C4.75 5.625 4.75 5.625 5 9 C3.0625 8.4375 3.0625 8.4375 1 7 C0.25 3.375 0.25 3.375 0 0 Z " fill="#B2B2B2" transform="translate(32,38)"/>
<path d="M0 0 C1.32 0.66 2.64 1.32 4 2 C4 2.66 4 3.32 4 4 C2.68 4.33 1.36 4.66 0 5 C0 4.34 0 3.68 0 3 C-3.3 3.33 -6.6 3.66 -10 4 C-10 3.34 -10 2.68 -10 2 C-6.7 2 -3.4 2 0 2 C0 1.34 0 0.68 0 0 Z " fill="#E3E3E3" transform="translate(67,38)"/>
<path d="M0 0 C1.98 0 3.96 0 6 0 C6 1.32 6 2.64 6 4 C4.02 4 2.04 4 0 4 C0 2.68 0 1.36 0 0 Z " fill="#E8E8E8" transform="translate(118,113)"/>
<path d="M0 0 C1 3 1 3 1 6 C1.99 6.33 2.98 6.66 4 7 C2.68 7 1.36 7 0 7 C0 6.34 0 5.68 0 5 C-3.3 4.67 -6.6 4.34 -10 4 C-10 3.67 -10 3.34 -10 3 C-8.72125 2.87625 -7.4425 2.7525 -6.125 2.625 C-2.65209064 2.30957601 -2.65209064 2.30957601 0 0 Z " fill="#D4D4D4" transform="translate(49,37)"/>
<path d="M0 0 C0.33 0.99 0.66 1.98 1 3 C2.423125 2.9690625 2.423125 2.9690625 3.875 2.9375 C7 3 7 3 9 4 C8.67 4.66 8.34 5.32 8 6 C7.34 5.67 6.68 5.34 6 5 C1.94857881 4.74139865 0.45662331 4.69558446 -3 7 C-3 3 -3 3 -1.5 1.25 C-1.005 0.8375 -0.51 0.425 0 0 Z " fill="#C7C7C7" transform="translate(56,24)"/>
<path d="M0 0 C0.99 0 1.98 0 3 0 C2.67 1.65 2.34 3.3 2 5 C0.68 5.33 -0.64 5.66 -2 6 C-2.33 5.34 -2.66 4.68 -3 4 C-2.34 4 -1.68 4 -1 4 C-0.67 2.68 -0.34 1.36 0 0 Z " fill="#D8D8D8" transform="translate(39,92)"/>
<path d="M0 0 C0.33 0.66 0.66 1.32 1 2 C1.66 2 2.32 2 3 2 C3.66 3.98 4.32 5.96 5 8 C4.01 8 3.02 8 2 8 C2 7.34 2 6.68 2 6 C1.34 6 0.68 6 0 6 C0 4.02 0 2.04 0 0 Z " fill="#5F5C62" transform="translate(45,69)"/>
<path d="M0 0 C0.33 0.66 0.66 1.32 1 2 C1.66 2.33 2.32 2.66 3 3 C2.38125 3.2475 1.7625 3.495 1.125 3.75 C-1.35068687 5.20628639 -1.95125002 6.37812506 -3 9 C-3.33 9 -3.66 9 -4 9 C-4.25 6.75 -4.25 6.75 -4 4 C-2 1.6875 -2 1.6875 0 0 Z " fill="#555556" transform="translate(47,43)"/>
<path d="M0 0 C0.66 0.33 1.32 0.66 2 1 C2 1.66 2 2.32 2 3 C2.66 3 3.32 3 4 3 C4 3.66 4 4.32 4 5 C1.5 6.625 1.5 6.625 -1 8 C-0.67 5.36 -0.34 2.72 0 0 Z " fill="#E2E2E2" transform="translate(79,56)"/>
<path d="M0 0 C0.33 0 0.66 0 1 0 C1.66 2.64 2.32 5.28 3 8 C1.35 7.67 -0.3 7.34 -2 7 C-1.42415568 4.61435923 -0.77772405 2.33317216 0 0 Z " fill="#BDBDBD" transform="translate(43,70)"/>
<path d="M0 0 C1.0625 1.875 1.0625 1.875 2 4 C1.67 4.66 1.34 5.32 1 6 C-1.86724686 5.42655063 -2.8614515 5.1385485 -5 3 C-4.34 3 -3.68 3 -3 3 C-3 2.34 -3 1.68 -3 1 C-2.01 0.67 -1.02 0.34 0 0 Z " fill="#E0E0E0" transform="translate(37,34)"/>
<path d="M0 0 C1.98 0 3.96 0 6 0 C5.01 0.66 4.02 1.32 3 2 C2.67 2.99 2.34 3.98 2 5 C1.01 5 0.02 5 -1 5 C-0.67 3.35 -0.34 1.7 0 0 Z " fill="#6F6F6F" transform="translate(36,91)"/>
<path d="M0 0 C0.33 0.66 0.66 1.32 1 2 C0.22265625 3.7265625 0.22265625 3.7265625 -0.9375 5.625 C-1.618125 6.73875 -2.29875 7.8525 -3 9 C-3.66 7.68 -4.32 6.36 -5 5 C-3.35 3.35 -1.7 1.7 0 0 Z " fill="#B8B8B8" transform="translate(73,58)"/>
<path d="M0 0 C1.65 0.33 3.3 0.66 5 1 C5 1.66 5 2.32 5 3 C3.35 3.33 1.7 3.66 0 4 C0 2.68 0 1.36 0 0 Z " fill="#757575" transform="translate(51,56)"/>
<path d="M0 0 C-0.33 1.98 -0.66 3.96 -1 6 C-1.99 5.67 -2.98 5.34 -4 5 C-4.6875 2.9375 -4.6875 2.9375 -5 1 C-2 0 -2 0 0 0 Z " fill="#A9A9A9" transform="translate(69,54)"/>
<path d="M0 0 C1.32 0 2.64 0 4 0 C4 1.65 4 3.3 4 5 C2.35 5 0.7 5 -1 5 C-0.67 3.35 -0.34 1.7 0 0 Z " fill="#AAAAAA" transform="translate(39,52)"/>
<path d="M0 0 C2.64 0 5.28 0 8 0 C8 0.66 8 1.32 8 2 C6.02 2.33 4.04 2.66 2 3 C1.34 2.01 0.68 1.02 0 0 Z " fill="#585858" transform="translate(57,37)"/>
<path d="M0 0 C1.5 1.375 1.5 1.375 3 3 C3 3.66 3 4.32 3 5 C1.35 5 -0.3 5 -2 5 C-1.125 1.125 -1.125 1.125 0 0 Z " fill="#A3A3A3" transform="translate(58,46)"/>
<path d="M0 0 C1.32 0.66 2.64 1.32 4 2 C4 2.66 4 3.32 4 4 C2.02 4.33 0.04 4.66 -2 5 C-1.34 4.67 -0.68 4.34 0 4 C0 2.68 0 1.36 0 0 Z " fill="#ABA2A2" transform="translate(96,102)"/>
<path d="M0 0 C1.32 0 2.64 0 4 0 C3.6875 1.9375 3.6875 1.9375 3 4 C2.01 4.33 1.02 4.66 0 5 C0 3.35 0 1.7 0 0 Z " fill="#6F6F6F" transform="translate(73,52)"/>
<path d="M0 0 C0.99 0.33 1.98 0.66 3 1 C3.625 3.875 3.625 3.875 4 7 C3.34 7.66 2.68 8.32 2 9 C1.34 6.03 0.68 3.06 0 0 Z " fill="#979797" transform="translate(67,47)"/>
<path d="M0 0 C0.99 0 1.98 0 3 0 C3 1.98 3 3.96 3 6 C0.525 5.01 0.525 5.01 -2 4 C-1.01 3.67 -0.02 3.34 1 3 C0.67 2.01 0.34 1.02 0 0 Z " fill="#B5B5B5" transform="translate(69,43)"/>
</svg>
