<?xml version="1.0" encoding="UTF-8"?>
<svg version="1.1" xmlns="http://www.w3.org/2000/svg" width="204" height="192">
<path d="M0 0 C67.32 0 134.64 0 204 0 C204 63.36 204 126.72 204 192 C136.68 192 69.36 192 0 192 C0 128.64 0 65.28 0 0 Z " fill="#FDFDFD" transform="translate(0,0)"/>
<path d="M0 0 C3.20870233 0.16757757 3.20870233 0.16757757 6 0 C6 -0.66 6 -1.32 6 -2 C8.64 -2 11.28 -2 14 -2 C14.36351562 -1.26136719 14.72703125 -0.52273437 15.1015625 0.23828125 C15.60429687 1.25277344 16.10703125 2.26726562 16.625 3.3125 C17.16640625 4.41851562 17.7078125 5.52453125 18.265625 6.6640625 C19.90008549 9.94390693 19.90008549 9.94390693 21.734375 12.6484375 C27.07362166 20.91155734 26.60072914 28.51070447 26 38 C24.35 38 22.7 38 21 38 C21.05542969 37.06542969 21.11085937 36.13085938 21.16796875 35.16796875 C21.21324696 25.94026869 19.39363935 19.61481235 14.6875 11.625 C14.20112061 10.79895264 13.71474121 9.97290527 13.21362305 9.12182617 C10.05486595 4.02890653 10.05486595 4.02890653 5 1 C4.92875826 4.06339462 4.92508038 6.70713241 5.6875 9.6875 C5.790625 10.450625 5.89375 11.21375 6 12 C4.625 13.5 4.625 13.5 3 15 C2.27802838 17.60611077 2.27802838 17.60611077 2 20 C2.99 20.33 3.98 20.66 5 21 C6.5547669 24.10953379 6.28644437 26.56266761 6 30 C4.1031387 33.9454715 2.59185958 35.65184731 -1.1875 37.875 C-8.60047587 40.0624355 -14.17807181 39.54740266 -21 36 C-21.99 35.34 -22.98 34.68 -24 34 C-23.67 32.35 -23.34 30.7 -23 29 C-20.04655832 29.42192024 -18.14151532 29.90689781 -15.625 31.5625 C-11.16620379 34.00422174 -7.32206078 33.3845995 -2.5625 32 C-1.2940625 31.505 -1.2940625 31.505 0 31 C0.33425735 28.62625139 0.33425735 28.62625139 0 26 C-2.97509971 23.20863566 -6.07721216 22.16830906 -9.9375 21 C-14.01642074 19.76240079 -17.47228548 18.42333162 -21 16 C-22.86794584 12.26410832 -22.68891597 8.0569496 -22 4 C-16.66448202 -3.49674046 -7.62493301 -3.21049811 0 0 Z " fill="#5E3D40" transform="translate(138,68)"/>
<path d="M0 0 C0.12375961 5.88981485 0.21441514 11.77887012 0.2746582 17.66967773 C0.2997755 19.67274156 0.33387595 21.67571398 0.37719727 23.6784668 C0.43797188 26.56061366 0.46623732 29.44154721 0.48828125 32.32421875 C0.51408768 33.21711105 0.5398941 34.11000336 0.56648254 35.029953 C0.56852187 39.56858679 0.46239992 41.40319295 -2.40551758 45.10473633 C-5 47 -5 47 -7 47 C-7 50.3 -7 53.6 -7 57 C-10.96 57 -14.92 57 -19 57 C-19 56.34 -19 55.68 -19 55 C-17.68 55 -16.36 55 -15 55 C-15 40.81 -15 26.62 -15 12 C-14.34 12 -13.68 12 -13 12 C-13 11.34 -13 10.68 -13 10 C-11.35546875 8.37890625 -11.35546875 8.37890625 -9.1875 6.5625 C-6.17536735 4.02660668 -6.17536735 4.02660668 -3.36328125 1.27734375 C-2 0 -2 0 0 0 Z " fill="#6A696A" transform="translate(45,68)"/>
<path d="M0 0 C2.64 0 5.28 0 8 0 C8.36351562 0.73863281 8.72703125 1.47726563 9.1015625 2.23828125 C9.60429687 3.25277344 10.10703125 4.26726562 10.625 5.3125 C11.16640625 6.41851562 11.7078125 7.52453125 12.265625 8.6640625 C13.90008549 11.94390693 13.90008549 11.94390693 15.734375 14.6484375 C21.07362166 22.91155734 20.60072914 30.51070447 20 40 C18.35 40 16.7 40 15 40 C15.05542969 39.06542969 15.11085937 38.13085938 15.16796875 37.16796875 C15.21324696 27.94026869 13.39363935 21.61481235 8.6875 13.625 C8.20112061 12.79895264 7.71474121 11.97290527 7.21362305 11.12182617 C4.05486595 6.02890653 4.05486595 6.02890653 -1 3 C-1.07124174 6.06339462 -1.07491962 8.70713241 -0.3125 11.6875 C-0.209375 12.450625 -0.10625 13.21375 0 14 C-1.375 15.5625 -1.375 15.5625 -3 17 C-3.71447643 19.10332891 -3.71447643 19.10332891 -4 21 C-4.66 21 -5.32 21 -6 21 C-6 20.34 -6 19.68 -6 19 C-6.64066406 18.97421875 -7.28132812 18.9484375 -7.94140625 18.921875 C-14.0589484 18.5207247 -17.9125022 17.42853112 -23 14 C-23.31898502 11.04938857 -23.4433581 9.55901674 -21.5625 7.1875 C-16.6065932 4.89086026 -11.5836121 5.5554773 -6.4375 7 C-5.2309375 7.495 -5.2309375 7.495 -4 8 C-4 6.35 -4 4.7 -4 3 C-2.68 2.67 -1.36 2.34 0 2 C0 1.34 0 0.68 0 0 Z " fill="#F1EBED" transform="translate(144,66)"/>
<path d="M0 0 C2.89608593 -0.05413245 5.79115195 -0.09373641 8.6875 -0.125 C9.91243164 -0.15013672 9.91243164 -0.15013672 11.16210938 -0.17578125 C16.80245109 -0.22145203 20.82292155 0.12529356 25.25 3.9375 C28.1153093 7.31447168 28.34931838 10.58703369 28.27734375 14.9375 C27.8083752 18.42504073 26.29403799 20.4041149 24 23 C18.50699757 27.11975182 12.57106308 26.21903544 6 26 C6 30.29 6 34.58 6 39 C4.35 39 2.7 39 1 39 C1 32.73 1 26.46 1 20 C9.3125 19.625 9.3125 19.625 11.91918945 19.52197266 C12.60198975 19.4863623 13.28479004 19.45075195 13.98828125 19.4140625 C14.68477783 19.3826416 15.38127441 19.3512207 16.09887695 19.31884766 C18.32532739 19.07881747 18.32532739 19.07881747 21 17 C21.43827201 15.09542071 21.43827201 15.09542071 21.3125 13 C21.30669922 11.948125 21.30669922 11.948125 21.30078125 10.875 C21.14912946 8.7583423 21.14912946 8.7583423 19 7 C16.96939341 6.63105418 16.96939341 6.63105418 14.6484375 6.5859375 C13.79765625 6.54726562 12.946875 6.50859375 12.0703125 6.46875 C11.18085937 6.4378125 10.29140625 6.406875 9.375 6.375 C8.02921875 6.31699219 8.02921875 6.31699219 6.65625 6.2578125 C4.4377073 6.16340643 2.21917597 6.07783252 0 6 C0 4.02 0 2.04 0 0 Z " fill="#705659" transform="translate(83,67)"/>
<path d="M0 0 C3.18706942 1.43561686 5.62169105 3.20266329 8.25 5.5 C8.95640625 6.1084375 9.6628125 6.716875 10.390625 7.34375 C12 9 12 9 12 11 C12.99 11.33 13.98 11.66 15 12 C16.585869 15.171738 16.37866445 18.63513822 16.5625 22.125 C16.60568359 22.87910156 16.64886719 23.63320312 16.69335938 24.41015625 C16.7994832 26.27321888 16.90025001 28.13658524 17 30 C17.99 30.33 18.98 30.66 20 31 C20 31.99 20 32.98 20 34 C15.71 34 11.42 34 7 34 C6.9071875 31.40125 6.9071875 31.40125 6.8125 28.75 C6.45685598 24.05424537 6.45685598 24.05424537 3.5 20.4375 C2.675 19.963125 1.85 19.48875 1 19 C-0.65497356 15.69005287 -0.10084335 12.00877 -0.0625 8.375 C-0.05798828 7.57320313 -0.05347656 6.77140625 -0.04882812 5.9453125 C-0.03703168 3.96350994 -0.01909605 1.98174567 0 0 Z " fill="#62373D" transform="translate(47,92)"/>
<path d="M0 0 C5.54645317 -0.36976354 5.54645317 -0.36976354 7.5859375 1.29296875 C9.44453086 3.5366298 10.59410325 6.03006458 11.81640625 8.66015625 C12.97137938 11.06158251 12.97137938 11.06158251 14.58984375 13.37109375 C20.02446346 21.77237646 19.61038877 29.35811818 19 39 C17.35 39 15.7 39 14 39 C14.05542969 38.06542969 14.11085937 37.13085938 14.16796875 36.16796875 C14.22788412 23.95721736 9.8586567 16.00869813 3.22094727 5.94433594 C2.00892899 4.01421924 0.98484392 2.05388211 0 0 Z " fill="#5F3B40" transform="translate(145,67)"/>
<path d="M0 0 C0 0.66 0 1.32 0 2 C-5.80809887 5.87206591 -11.13926657 5.22869111 -18 5 C-18 9.29 -18 13.58 -18 18 C-19.65 18 -21.3 18 -23 18 C-23 12.06 -23 6.12 -23 0 C-20.133125 -0.185625 -17.26625 -0.37125 -14.3125 -0.5625 C-13.41829346 -0.62381104 -12.52408691 -0.68512207 -11.6027832 -0.74829102 C-7.55184435 -0.99133826 -3.96119579 -1.08912715 0 0 Z " fill="#603E44" transform="translate(107,88)"/>
<path d="M0 0 C2.21003415 0.76594334 4.41795739 1.53797883 6.625 2.3125 C7.85476562 2.74175781 9.08453125 3.17101562 10.3515625 3.61328125 C18.83937824 6.83937824 18.83937824 6.83937824 22 10 C22 12.4375 22 12.4375 21 15 C16.70470421 17.96579947 13.15354894 18.49553355 8 18 C7.34 17.34 6.68 16.68 6 16 C8.97411124 14.76078698 11.85262818 13.69941596 15 13 C15.33 11.68 15.66 10.36 16 9 C13.11489313 6.57325409 13.11489313 6.57325409 9.625 7.625 C6 8 6 8 3.125 6.3125 C0.97817034 3.9762442 0.59122876 2.98759216 0 0 Z " fill="#F4E9EA" transform="translate(117,84)"/>
<path d="M0 0 C1 1 1 1 1.25 4.875 C1.20764899 7.50076255 1.16919812 8.71503475 -0.1875 11 C-2.69461993 12.38323858 -4.1819827 12.49315303 -7 12 C-9.5348994 9.72733157 -9.96041822 8.32325124 -10.375 4.9375 C-10 2 -10 2 -8.9375 0.0625 C-5.84787273 -1.63181173 -3.32782582 -0.73951685 0 0 Z " fill="#ECECEC" transform="translate(129,114)"/>
<path d="M0 0 C0 0.66 0 1.32 0 2 C1.83700789 2.77242269 1.83700789 2.77242269 4 3 C5.77190909 1.64555699 5.77190909 1.64555699 7 0 C7.99 0.33 8.98 0.66 10 1 C9.01 2.485 9.01 2.485 8 4 C7.75780685 6.97449608 7.75780685 6.97449608 7.875 10.1875 C7.90207031 11.81751953 7.90207031 11.81751953 7.9296875 13.48046875 C7.95289062 14.31191406 7.97609375 15.14335938 8 16 C7.01 16 6.02 16 5 16 C4.01 17.98 3.02 19.96 2 22 C0.68 21.67 -0.64 21.34 -2 21 C-1.505 20.34 -1.01 19.68 -0.5 19 C1.83397859 14.33204283 1.19159487 10.20334103 0.75 5.125 C0.19396046 2.86527098 0.19396046 2.86527098 -1.8125 1.8125 C-2.534375 1.544375 -3.25625 1.27625 -4 1 C-5.33333333 0.33333333 -6.66666667 -0.33333333 -8 -1 C-4.37673261 -2.2077558 -3.35853631 -1.54311128 0 0 Z " fill="#FAF1F1" transform="translate(109,68)"/>
<path d="M0 0 C0.91136719 0.10570313 1.82273438 0.21140625 2.76171875 0.3203125 C1.12219292 4.9596301 -1.30699177 8.95887108 -3.86328125 13.1328125 C-4.28351563 13.82568359 -4.70375 14.51855469 -5.13671875 15.23242188 C-6.16722795 16.93041998 -7.20229806 18.62564864 -8.23828125 20.3203125 C-9.80078125 19.1953125 -9.80078125 19.1953125 -11.23828125 17.3203125 C-11.05150305 12.6701793 -9.45903276 9.36868914 -7.05078125 5.4453125 C-6.19419922 3.99511719 -6.19419922 3.99511719 -5.3203125 2.515625 C-3.23828125 0.3203125 -3.23828125 0.3203125 0 0 Z " fill="#6E4E55" transform="translate(175.23828125,66.6796875)"/>
<path d="M0 0 C1.65 0 3.3 0 5 0 C6.65497356 3.30994713 6.10084335 6.99123 6.0625 10.625 C6.05798828 11.42679688 6.05347656 12.22859375 6.04882812 13.0546875 C6.03703168 15.03649006 6.01909605 17.01825433 6 19 C4.35 19 2.7 19 1 19 C0.67 12.73 0.34 6.46 0 0 Z " fill="#5E3C41" transform="translate(158,87)"/>
<path d="M0 0 C5.61 0 11.22 0 17 0 C17 1.65 17 3.3 17 5 C11.39 5 5.78 5 0 5 C0 3.35 0 1.7 0 0 Z " fill="#5E3C43" transform="translate(84,67)"/>
<path d="M0 0 C2.81627654 1.09973447 5.40481193 2.45393051 8 4 C7.67 5.65 7.34 7.3 7 9 C5.20491499 8.57674417 3.4139717 8.13589265 1.625 7.6875 C0.62726563 7.44386719 -0.37046875 7.20023437 -1.3984375 6.94921875 C-4 6 -4 6 -6 3 C-8.56282742 2.27034634 -8.56282742 2.27034634 -11 2 C-7.27198642 -0.48534239 -4.31947817 -0.65747809 0 0 Z " fill="#593C42" transform="translate(133,66)"/>
<path d="M0 0 C0.33 0 0.66 0 1 0 C1 6.27 1 12.54 1 19 C2.65 19 4.3 19 6 19 C6 14.71 6 10.42 6 6 C9.96 6 13.92 6 18 6 C17.01 6.99 16.02 7.98 15 9 C14.01 9 13.02 9 12 9 C12 8.34 12 7.68 12 7 C11.34 7 10.68 7 10 7 C9.67 10.3 9.34 13.6 9 17 C8.34 17 7.68 17 7 17 C7 17.99 7 18.98 7 20 C4.69 20 2.38 20 0 20 C0 13.4 0 6.8 0 0 Z " fill="#D5C6C7" transform="translate(83,87)"/>
<path d="M0 0 C0.66 0.33 1.32 0.66 2 1 C2 3.64 2 6.28 2 9 C2.99 9.33 3.98 9.66 5 10 C-0.03511899 11.0070238 -3.23947038 10.97387813 -8 9 C-8 7.02 -8 5.04 -8 3 C-6.865625 2.87625 -5.73125 2.7525 -4.5625 2.625 C-3.386875 2.41875 -2.21125 2.2125 -1 2 C-0.67 1.34 -0.34 0.68 0 0 Z " fill="#FAFAFA" transform="translate(52,117)"/>
<path d="M0 0 C3.19185089 0.3546501 4.63645453 0.61221817 6.875 3 C9.7437254 5.69997685 12.15663267 5.70435636 16 6 C15.34 6.66 14.68 7.32 14 8 C15.32 8.66 16.64 9.32 18 10 C10.29198093 10.47191953 5.50729293 9.33819529 -1 5 C-0.67 3.35 -0.34 1.7 0 0 Z " fill="#6B4549" transform="translate(115,97)"/>
<path d="M0 0 C0.33 4.62 0.66 9.24 1 14 C-1.31 14 -3.62 14 -6 14 C-6.33 10.04 -6.66 6.08 -7 2 C-6.01 2.33 -5.02 2.66 -4 3 C-4 2.34 -4 1.68 -4 1 C-1 0 -1 0 0 0 Z " fill="#5E353C" transform="translate(61,111)"/>
<path d="M0 0 C3.375 -0.125 3.375 -0.125 7 0 C7.66 0.66 8.32 1.32 9 2 C8.625 4.4375 8.625 4.4375 8 7 C8 7.99 8 8.98 8 10 C7.67 10.66 7.34 11.32 7 12 C5.35 10.35 3.7 8.7 2 7 C2 8.65 2 10.3 2 12 C1.34 12 0.68 12 0 12 C0 8.04 0 4.08 0 0 Z " fill="#747474" transform="translate(102,113)"/>
<path d="M0 0 C0.99 0.33 1.98 0.66 3 1 C3.33 6.28 3.66 11.56 4 17 C4.99 17.33 5.98 17.66 7 18 C7 18.99 7 19.98 7 21 C2.71 21 -1.58 21 -6 21 C-6 17.37 -6 13.74 -6 10 C-5.67 10 -5.34 10 -5 10 C-5 13.3 -5 16.6 -5 20 C-3.02 19.67 -1.04 19.34 1 19 C0.67 12.73 0.34 6.46 0 0 Z " fill="#745C5E" transform="translate(60,105)"/>
<path d="M0 0 C0 2.64 0 5.28 0 8 C-3.75 10 -3.75 10 -6 10 C-8.00212229 10.32033957 -10.00239695 10.65259077 -12 11 C-12 11.66 -12 12.32 -12 13 C-12.99 12.67 -13.98 12.34 -15 12 C-14.34 12 -13.68 12 -13 12 C-13 11.34 -13 10.68 -13 10 C-11.35546875 8.37890625 -11.35546875 8.37890625 -9.1875 6.5625 C-6.17536735 4.02660668 -6.17536735 4.02660668 -3.36328125 1.27734375 C-2 0 -2 0 0 0 Z " fill="#737272" transform="translate(45,68)"/>
<path d="M0 0 C0.66 0 1.32 0 2 0 C2 7.92 2 15.84 2 24 C2.66 24.33 3.32 24.66 4 25 C3.67 25.33 3.34 25.66 3 26 C2.96201429 28.0280146 2.9273761 30.05616165 2.91186523 32.08447266 C2.72913897 44.36706626 2.72913897 44.36706626 -1.5625 49.125 C-3.50390625 50.8828125 -3.50390625 50.8828125 -5 52 C-5.33 50.68 -5.66 49.36 -6 48 C-5.34 48 -4.68 48 -4 48 C-3.67 47.01 -3.34 46.02 -3 45 C-2.01 44.34 -1.02 43.68 0 43 C0.43610159 41.06827828 0.43610159 41.06827828 0.34057617 38.82568359 C0.34023628 37.53457169 0.34023628 37.53457169 0.33988953 36.21737671 C0.32440567 35.28712677 0.30892181 34.35687683 0.29296875 33.3984375 C0.28872391 32.44683746 0.28447906 31.49523743 0.28010559 30.51480103 C0.26327896 27.46791586 0.22561954 24.42168609 0.1875 21.375 C0.17245831 19.31250954 0.15876901 17.25000873 0.14648438 15.1875 C0.11336239 10.1247465 0.06155284 5.06248446 0 0 Z " fill="#CDC9CB" transform="translate(44,67)"/>
<path d="M0 0 C4.4201926 5.4183006 5.14013143 8.2098311 5.0625 15.125 C5.05798828 15.87910156 5.05347656 16.63320312 5.04882812 17.41015625 C5.03703499 19.27347127 5.01909942 21.13674555 5 23 C4.67 21.68 4.34 20.36 4 19 C3.34 19 2.68 19 2 19 C1.80448662 17.39679026 1.61888017 15.79237014 1.4375 14.1875 C1.28087891 12.84751953 1.28087891 12.84751953 1.12109375 11.48046875 C1 9 1 9 2 6 C1.34 6 0.68 6 0 6 C-0.33 6.66 -0.66 7.32 -1 8 C-0.67 5.36 -0.34 2.72 0 0 Z " fill="#F2E8EB" transform="translate(154,83)"/>
<path d="M0 0 C0.33 0 0.66 0 1 0 C1 1.65 1 3.3 1 5 C6.61 5 12.22 5 18 5 C18 3.68 18 2.36 18 1 C20.475 1.495 20.475 1.495 23 2 C23 6.29 23 10.58 23 15 C22.67 15 22.34 15 22 15 C21.5359375 13.2984375 21.5359375 13.2984375 21.0625 11.5625 C20.37075469 8.21224901 20.37075469 8.21224901 19 7 C17.58672053 6.84379445 16.1664541 6.74943827 14.74609375 6.68359375 C13.89208984 6.64169922 13.03808594 6.59980469 12.15820312 6.55664062 C11.26037109 6.51732422 10.36253906 6.47800781 9.4375 6.4375 C8.53580078 6.39431641 7.63410156 6.35113281 6.70507812 6.30664062 C4.47021515 6.20021858 2.23523692 6.09820012 0 6 C0 4.02 0 2.04 0 0 Z " fill="#826A6E" transform="translate(83,67)"/>
<path d="M0 0 C0.99 0 1.98 0 3 0 C2.67 1.98 2.34 3.96 2 6 C2.99 4.02 3.98 2.04 5 0 C5.33 0 5.66 0 6 0 C6.33 3.3 6.66 6.6 7 10 C6.01 10 5.02 10 4 10 C3.01 11.98 2.02 13.96 1 16 C-0.32 15.67 -1.64 15.34 -3 15 C-2.505 14.38125 -2.01 13.7625 -1.5 13.125 C0.60494276 8.73970259 0.25075227 4.78286739 0 0 Z " fill="#E4D2D4" transform="translate(110,74)"/>
<path d="M0 0 C0 0.66 0 1.32 0 2 C-1.98 2.33 -3.96 2.66 -6 3 C-6.33 4.98 -6.66 6.96 -7 9 C-5.02 9.66 -3.04 10.32 -1 11 C-1 10.01 -1 9.02 -1 8 C-1.99 8 -2.98 8 -4 8 C-4 7.34 -4 6.68 -4 6 C-2.35 6 -0.7 6 1 6 C1.04254356 7.99954746 1.04080783 10.00041636 1 12 C0 13 0 13 -2.875 13.25 C-6 13 -6 13 -7.875 11.9375 C-9.64273274 8.8930714 -9.36823916 6.4368988 -9 3 C-6.82246161 -0.75020501 -4.02857537 -0.26857169 0 0 Z " fill="#777777" transform="translate(93,113)"/>
<path d="M0 0 C0 0.66 0 1.32 0 2 C-3.42094242 4.28062828 -4.68187222 4.21925007 -8.6875 4.125 C-10.17830078 4.09792969 -10.17830078 4.09792969 -11.69921875 4.0703125 C-12.45847656 4.04710938 -13.21773438 4.02390625 -14 4 C-14 3.34 -14 2.68 -14 2 C-15.65 1.67 -17.3 1.34 -19 1 C-19 0.67 -19 0.34 -19 0 C-16.77156512 -0.19600577 -14.54220107 -0.38146569 -12.3125 -0.5625 C-10.45044922 -0.71912109 -10.45044922 -0.71912109 -8.55078125 -0.87890625 C-5.44164467 -0.98493841 -2.99189028 -0.77228525 0 0 Z " fill="#5A343C" transform="translate(107,88)"/>
<path d="M0 0 C1 1 1 1 1.25 4.875 C1.20764899 7.50076255 1.16919812 8.71503475 -0.1875 11 C-2.69461993 12.38323858 -4.1819827 12.49315303 -7 12 C-9.5348994 9.72733157 -9.96041822 8.32325124 -10.375 4.9375 C-10 2 -10 2 -8.9375 0.0625 C-5.84787273 -1.63181173 -3.32782582 -0.73951685 0 0 Z M-8 2 C-8.04092937 4.33297433 -8.04241723 6.66705225 -8 9 C-5.09926819 9.67801034 -5.09926819 9.67801034 -2 10 C-1.34 9.34 -0.68 8.68 0 8 C-0.32326553 4.40320934 -0.32326553 4.40320934 -1 1 C-4.80621045 0.56152641 -4.80621045 0.56152641 -8 2 Z " fill="#747474" transform="translate(129,114)"/>
<path d="M0 0 C2.31 0.33 4.62 0.66 7 1 C7.38218767 2.65614657 7.71395102 4.32457024 8 6 C7 7 7 7 3.9375 7.0625 C2.968125 7.041875 1.99875 7.02125 1 7 C1 8.65 1 10.3 1 12 C0.67 12 0.34 12 0 12 C0 8.04 0 4.08 0 0 Z " fill="#515151" transform="translate(158,113)"/>
<path d="M0 0 C0.66 0 1.32 0 2 0 C2.33 3.3 2.66 6.6 3 10 C4.32 10 5.64 10 7 10 C7.33 6.7 7.66 3.4 8 0 C8.66 0 9.32 0 10 0 C10.46174617 8.00360036 10.46174617 8.00360036 8.8125 11.5625 C7 13 7 13 4.4375 13.4375 C3.633125 13.293125 2.82875 13.14875 2 13 C-0.20914 9.68629 -0.22481553 8.6553979 -0.125 4.8125 C-0.10695312 3.91144531 -0.08890625 3.01039062 -0.0703125 2.08203125 C-0.04710937 1.39496094 -0.02390625 0.70789063 0 0 Z " fill="#767676" transform="translate(139,113)"/>
<path d="M0 0 C0.61875 0.28875 1.2375 0.5775 1.875 0.875 C6.15866124 2.41711805 10.52928212 3.18398547 15 4 C14.01 4.66 13.02 5.32 12 6 C11.67 6.66 11.34 7.32 11 8 C9.39479996 7.93976735 7.79065673 7.85091401 6.1875 7.75 C4.84751953 7.68039063 4.84751953 7.68039063 3.48046875 7.609375 C1 7 1 7 -0.82421875 4.953125 C-1.21222656 4.30859375 -1.60023437 3.6640625 -2 3 C-1.34 2.01 -0.68 1.02 0 0 Z " fill="#72474D" transform="translate(123,81)"/>
<path d="M0 0 C0.33 0 0.66 0 1 0 C1.33 5.94 1.66 11.88 2 18 C3.32 18.66 4.64 19.32 6 20 C6.66 20.66 7.32 21.32 8 22 C7 25 7 25 5 27 C4.67 26.01 4.34 25.02 4 24 C3.01 24 2.02 24 1 24 C1.66 23.67 2.32 23.34 3 23 C3 22.34 3 21.68 3 21 C2.34 21 1.68 21 1 21 C-0.17426264 18.65147472 -0.11508173 17.26225935 -0.09765625 14.6484375 C-0.09443359 13.79765625 -0.09121094 12.946875 -0.08789062 12.0703125 C-0.07951172 11.18085937 -0.07113281 10.29140625 -0.0625 9.375 C-0.05798828 8.4778125 -0.05347656 7.580625 -0.04882812 6.65625 C-0.03702591 4.43743352 -0.02056155 2.21874982 0 0 Z " fill="#F5EEEE" transform="translate(46,93)"/>
<path d="M0 0 C1.79237442 2.68856164 2.98446183 4.9533855 4 8 C3.67 8.66 3.34 9.32 3 10 C2.7677354 12.71262116 2.58063765 15.40773126 2.4375 18.125 C2.39431641 18.87910156 2.35113281 19.63320312 2.30664062 20.41015625 C2.2005168 22.27321888 2.09974999 24.13658524 2 26 C0.02 26 -1.96 26 -4 26 C-4 25.67 -4 25.34 -4 25 C-2.35 25 -0.7 25 1 25 C0.88562349 22.27001324 0.75888594 19.5415418 0.625 16.8125 C0.5940625 16.04357422 0.563125 15.27464844 0.53125 14.48242188 C0.35306461 11.02265556 0.15284732 8.37596338 -1.1640625 5.13671875 C-1.43992188 4.43160156 -1.71578125 3.72648437 -2 3 C-1.34 2.01 -0.68 1.02 0 0 Z " fill="#CBBABB" transform="translate(163,81)"/>
<path d="M0 0 C1.98 0 3.96 0 6 0 C4.35821735 4.77609498 1.73453298 8.79382904 -1 13 C-3 9.25 -3 9.25 -3 7 C-2.01 7 -1.02 7 0 7 C0 5.68 0 4.36 0 3 C0 2.01 0 1.02 0 0 Z " fill="#5C424A" transform="translate(172,67)"/>
<path d="M0 0 C3.0916909 2.52956528 3.90931332 5.22454612 5 9 C3.35 9.33 1.7 9.66 0 10 C-0.99 8.02 -1.98 6.04 -3 4 C-2.01 2.68 -1.02 1.36 0 0 Z " fill="#694647" transform="translate(157,78)"/>
<path d="M0 0 C3.76687864 1.88343932 4.79421646 2.69132469 7 6 C6.34 6.66 5.68 7.32 5 8 C4.01 7.34 3.02 6.68 2 6 C1.67 9.63 1.34 13.26 1 17 C0.67 17 0.34 17 0 17 C0 11.39 0 5.78 0 0 Z " fill="#715B5E" transform="translate(47,92)"/>
<path d="M0 0 C2.375 0.25 2.375 0.25 5 1 C6.3125 3.0625 6.3125 3.0625 7 5 C6.34 5.66 5.68 6.32 5 7 C2 7 2 7 -1 5 C-0.67 3.35 -0.34 1.7 0 0 Z " fill="#6A5057" transform="translate(115,97)"/>
<path d="M0 0 C1.32 0.33 2.64 0.66 4 1 C5.4783226 3.95664519 5.06032783 6.74229737 5 10 C3.68 10.33 2.36 10.66 1 11 C0.67 7.37 0.34 3.74 0 0 Z " fill="#5C383D" transform="translate(105,70)"/>
<path d="M0 0 C4.29 0.33 8.58 0.66 13 1 C13 2.32 13 3.64 13 5 C9.37 5 5.74 5 2 5 C2.99 4.34 3.98 3.68 5 3 C2.525 2.01 2.525 2.01 0 1 C0 0.67 0 0.34 0 0 Z " fill="#552F30" transform="translate(123,101)"/>
<path d="M0 0 C2.1875 0.3125 2.1875 0.3125 4 1 C3.67 2.65 3.34 4.3 3 6 C3.66 6 4.32 6 5 6 C5.33 5.34 5.66 4.68 6 4 C6.33 4.99 6.66 5.98 7 7 C6.01 8.485 6.01 8.485 5 10 C2.36 7.69 -0.28 5.38 -3 3 C-2.01 2.01 -1.02 1.02 0 0 Z " fill="#F4EBEE" transform="translate(49,88)"/>
<path d="M0 0 C5.5 -0.36666667 5.5 -0.36666667 7.875 1.375 C9 3 9 3 9 5 C7.35 5.66 5.7 6.32 4 7 C2.02 3.535 2.02 3.535 0 0 Z " fill="#65484C" transform="translate(145,67)"/>
<path d="M0 0 C0.33 0.99 0.66 1.98 1 3 C-2.46754221 6.70668305 -4.37799102 7.91463111 -9.5625 8.1875 C-13 8 -13 8 -15 6 C-13.906875 6.020625 -12.81375 6.04125 -11.6875 6.0625 C-8.05615809 6.18544452 -8.05615809 6.18544452 -5 5 C-4.67 4.34 -4.34 3.68 -4 3 C-1.9375 2.375 -1.9375 2.375 0 2 C0 1.34 0 0.68 0 0 Z " fill="#DCC6C8" transform="translate(138,94)"/>
<path d="M0 0 C1.65 0 3.3 0 5 0 C5 2.31 5 4.62 5 7 C3.35 6.67 1.7 6.34 0 6 C0 4.02 0 2.04 0 0 Z " fill="#ABABAB" transform="translate(44,120)"/>
<path d="M0 0 C2.31 0.33 4.62 0.66 7 1 C7.33 1.99 7.66 2.98 8 4 C7.34 4 6.68 4 6 4 C5.67 4.66 5.34 5.32 5 6 C5 4.68 5 3.36 5 2 C4.34 2 3.68 2 3 2 C3 2.66 3 3.32 3 4 C-4.75 3.25 -4.75 3.25 -7 1 C-4.36 1.33 -1.72 1.66 1 2 C0.67 1.67 0.34 1.34 0 1 C0 0.67 0 0.34 0 0 Z " fill="#583739" transform="translate(133,86)"/>
<path d="M0 0 C1.52519276 0.08937803 3.04681929 0.24537146 4.5625 0.4375 C5.80193359 0.59025391 5.80193359 0.59025391 7.06640625 0.74609375 C7.70449219 0.82988281 8.34257812 0.91367188 9 1 C7 4 7 4 3.875 4.6875 C2.92625 4.790625 1.9775 4.89375 1 5 C0.34 3.68 -0.32 2.36 -1 1 C-0.67 0.67 -0.34 0.34 0 0 Z " fill="#573840" transform="translate(122,68)"/>
<path d="M0 0 C0.33 0 0.66 0 1 0 C1 3.63 1 7.26 1 11 C-0.32 11 -1.64 11 -3 11 C-2.67 8.69 -2.34 6.38 -2 4 C-1.34 4 -0.68 4 0 4 C0 2.68 0 1.36 0 0 Z " fill="#57353B" transform="translate(88,95)"/>
<path d="M0 0 C0.33 0.99 0.66 1.98 1 3 C1.99 2.67 2.98 2.34 4 2 C3.67 3.32 3.34 4.64 3 6 C2.34 6 1.68 6 1 6 C0.67 7.65 0.34 9.3 0 11 C-0.66 10.67 -1.32 10.34 -2 10 C-2.625 7.4375 -2.625 7.4375 -3 5 C-2.34 4.67 -1.68 4.34 -1 4 C-0.34786708 1.97536745 -0.34786708 1.97536745 0 0 Z " fill="#EEEEEE" transform="translate(111,115)"/>
<path d="M0 0 C2.31 0 4.62 0 7 0 C6.01 0.33 5.02 0.66 4 1 C4 1.66 4 2.32 4 3 C6.64 3 9.28 3 12 3 C12 3.33 12 3.66 12 4 C8.04 4 4.08 4 0 4 C0 2.68 0 1.36 0 0 Z " fill="#71484E" transform="translate(89,89)"/>
<path d="M0 0 C0.66 0.66 1.32 1.32 2 2 C1.67 2.99 1.34 3.98 1 5 C3.97 5.495 3.97 5.495 7 6 C7 6.66 7 7.32 7 8 C1.58461538 8.36923077 1.58461538 8.36923077 -1.375 6.5 C-1.91125 6.005 -2.4475 5.51 -3 5 C-2.01 3.35 -1.02 1.7 0 0 Z " fill="#EBE4E3" transform="translate(127,76)"/>
<path d="M0 0 C0.680625 -0.00515625 1.36125 -0.0103125 2.0625 -0.015625 C4 0.25 4 0.25 7 2.25 C2.72000646 4.38999677 -2.49048355 3.34321611 -7 2.25 C-4.00261059 0.25174039 -3.36652492 -0.02550398 0 0 Z " fill="#796264" transform="translate(129,65.75)"/>
<path d="M0 0 C2.5243635 2.5243635 2.46010689 3.86986324 2.8125 7.375 C2.97685547 8.80972656 2.97685547 8.80972656 3.14453125 10.2734375 C2.97491305 13.47326196 2.13251415 14.67462281 0 17 C-0.66 16.67 -1.32 16.34 -2 16 C-1.67 15.484375 -1.34 14.96875 -1 14.4375 C0.72651677 10.22911538 0.41933513 6.25800538 -1 2 C-0.67 1.34 -0.34 0.68 0 0 Z " fill="#EFDFE0" transform="translate(143,86)"/>
<path d="M0 0 C1.65 0 3.3 0 5 0 C5 0.66 5 1.32 5 2 C9.29 2 13.58 2 18 2 C18 2.33 18 2.66 18 3 C12.06 3 6.12 3 0 3 C0 2.01 0 1.02 0 0 Z " fill="#F9EFED" transform="translate(83,84)"/>
<path d="M0 0 C1.32 0.33 2.64 0.66 4 1 C4 3.31 4 5.62 4 8 C2.68 7.67 1.36 7.34 0 7 C0 4.69 0 2.38 0 0 Z " fill="#F6F6F6" transform="translate(149,113)"/>
<path d="M0 0 C0.99 0 1.98 0 3 0 C3.36923077 4.55384615 3.36923077 4.55384615 1.5 6.8125 C1.005 7.204375 0.51 7.59625 0 8 C-2 5 -2 5 -1.6875 2.875 C-1 1 -1 1 0 0 Z " fill="#563B40" transform="translate(166,79)"/>
<path d="M0 0 C0.99 0 1.98 0 3 0 C3 0.66 3 1.32 3 2 C4.32 2.66 5.64 3.32 7 4 C6.67 4.99 6.34 5.98 6 7 C5.01 6.67 4.02 6.34 3 6 C3 5.34 3 4.68 3 4 C1.68 3.34 0.36 2.68 -1 2 C-0.67 1.34 -0.34 0.68 0 0 Z " fill="#EBDEDE" transform="translate(56,97)"/>
<path d="M0 0 C2 3 2 3 2 5 C2.66 5 3.32 5 4 5 C4.33 6.32 4.66 7.64 5 9 C4.01 9 3.02 9 2 9 C0.25 6.75 0.25 6.75 -1 4 C-0.6875 1.6875 -0.6875 1.6875 0 0 Z " fill="#F2E8E8" transform="translate(155,69)"/>
<path d="M0 0 C2.64 0 5.28 0 8 0 C8.33 1.65 8.66 3.3 9 5 C7.35 5.33 5.7 5.66 4 6 C4.66 4.35 5.32 2.7 6 1 C4.02 1 2.04 1 0 1 C0 0.67 0 0.34 0 0 Z " fill="#DEDADB" transform="translate(172,66)"/>
<path d="M0 0 C0.66 0.99 1.32 1.98 2 3 C1.125 6.1875 1.125 6.1875 0 9 C-1.32 8.67 -2.64 8.34 -4 8 C-2.68 5.36 -1.36 2.72 0 0 Z " fill="#F1E2E4" transform="translate(111,81)"/>
<path d="M0 0 C0.66 0.33 1.32 0.66 2 1 C2.625 3.5625 2.625 3.5625 3 6 C1.68 6.33 0.36 6.66 -1 7 C-1 6.01 -1 5.02 -1 4 C-1.66 3.67 -2.32 3.34 -3 3 C-2.01 2.01 -1.02 1.02 0 0 Z " fill="#6B4B53" transform="translate(120,68)"/>
<path d="M0 0 C0 0.99 0 1.98 0 3 C-2.375 3.1875 -2.375 3.1875 -5 3 C-5.66 2.01 -6.32 1.02 -7 0 C-3.98968256 -0.93423645 -3.13349732 -1.04449911 0 0 Z " fill="#F4E9EB" transform="translate(126,97)"/>
<path d="M0 0 C0.33 0.66 0.66 1.32 1 2 C2.65 1.67 4.3 1.34 6 1 C5.67 2.32 5.34 3.64 5 5 C3.35 4.67 1.7 4.34 0 4 C0 2.68 0 1.36 0 0 Z " fill="#EBEBEB" transform="translate(141,119)"/>
<path d="M0 0 C1.65 0 3.3 0 5 0 C4.67 1.32 4.34 2.64 4 4 C2.68 4 1.36 4 0 4 C0 2.68 0 1.36 0 0 Z " fill="#E5E5E5" transform="translate(159,115)"/>
<path d="M0 0 C1.65 0 3.3 0 5 0 C4.67 1.32 4.34 2.64 4 4 C2.68 4 1.36 4 0 4 C0 2.68 0 1.36 0 0 Z " fill="#E6E6E6" transform="translate(104,115)"/>
<path d="M0 0 C3.63 0 7.26 0 11 0 C9.515 1.485 9.515 1.485 8 3 C7.01 3 6.02 3 5 3 C5 2.34 5 1.68 5 1 C3.35 1 1.7 1 0 1 C0 0.67 0 0.34 0 0 Z " fill="#F4E9E7" transform="translate(90,93)"/>
<path d="M0 0 C0.33 0 0.66 0 1 0 C0.67 2.31 0.34 4.62 0 7 C-1.32 7.33 -2.64 7.66 -4 8 C-2.87548273 5.0280615 -1.77706209 2.66559313 0 0 Z " fill="#E5D9DC" transform="translate(171,79)"/>
<path d="M0 0 C0.66 0.33 1.32 0.66 2 1 C2 1.99 2 2.98 2 4 C1.01 4.33 0.02 4.66 -1 5 C-1.33 5.66 -1.66 6.32 -2 7 C-2.125 4.625 -2.125 4.625 -2 2 C-1.34 1.34 -0.68 0.68 0 0 Z " fill="#EDD6DA" transform="translate(123,73)"/>
<path d="M0 0 C0.33 0.66 0.66 1.32 1 2 C-0.4375 4.625 -0.4375 4.625 -2 7 C-4 3.25 -4 3.25 -4 1 C-2.68 0.67 -1.36 0.34 0 0 Z " fill="#56393D" transform="translate(173,73)"/>
<path d="M0 0 C0.66 0 1.32 0 2 0 C5 4.38461538 5 4.38461538 5 7 C4.34 7 3.68 7 3 7 C2.67 7.66 2.34 8.32 2 9 C2.061875 8.236875 2.12375 7.47375 2.1875 6.6875 C2.25898085 3.95474688 2.25898085 3.95474688 0.5 2.1875 C0.005 1.795625 -0.49 1.40375 -1 1 C-0.67 0.67 -0.34 0.34 0 0 Z " fill="#E9E1E2" transform="translate(146,71)"/>
<path d="M0 0 C2.0625 0.4375 2.0625 0.4375 4 1 C4 1.99 4 2.98 4 4 C2.35 4 0.7 4 -1 4 C-1 1 -1 1 0 0 Z " fill="#ECECEC" transform="translate(88,120)"/>
<path d="M0 0 C1.98 0.66 3.96 1.32 6 2 C6 2.66 6 3.32 6 4 C4.68 4.33 3.36 4.66 2 5 C1.01 3.68 0.02 2.36 -1 1 C-0.67 0.67 -0.34 0.34 0 0 Z " fill="#674347" transform="translate(51,110)"/>
<path d="M0 0 C0.66 0.33 1.32 0.66 2 1 C0.02 3.31 -1.96 5.62 -4 8 C-4.33 6.68 -4.66 5.36 -5 4 C-4.34 4 -3.68 4 -3 4 C-2.67 3.01 -2.34 2.02 -2 1 C-1.34 0.67 -0.68 0.34 0 0 Z " fill="#E1E1E1" transform="translate(43,111)"/>
<path d="M0 0 C2.64 0.33 5.28 0.66 8 1 C7.67 1.99 7.34 2.98 7 4 C5.35 3.67 3.7 3.34 2 3 C2 2.34 2 1.68 2 1 C1.34 0.67 0.68 0.34 0 0 Z " fill="#5D2D34" transform="translate(124,83)"/>
<path d="M0 0 C0.66 0.33 1.32 0.66 2 1 C2 1.66 2 2.32 2 3 C1.34 3 0.68 3 0 3 C0 4.65 0 6.3 0 8 C-0.99 7.01 -1.98 6.02 -3 5 C-2.01 3.35 -1.02 1.7 0 0 Z " fill="#6C4E4E" transform="translate(157,78)"/>
<path d="M0 0 C0 0.99 0 1.98 0 3 C-2.66666667 1.66666667 -5.33333333 0.33333333 -8 -1 C-4.37673261 -2.2077558 -3.35853631 -1.54311128 0 0 Z " fill="#E9D8DA" transform="translate(109,68)"/>
</svg>
