<?xml version="1.0" encoding="UTF-8"?>
<svg version="1.1" xmlns="http://www.w3.org/2000/svg" width="225" height="225">
<path d="M0 0 C74.25 0 148.5 0 225 0 C225 74.25 225 148.5 225 225 C150.75 225 76.5 225 0 225 C0 150.75 0 76.5 0 0 Z " fill="#FDFDFD" transform="translate(0,0)"/>
<path d="M0 0 C0.66 0 1.32 0 2 0 C3.26171875 1.5390625 3.26171875 1.5390625 4.6875 3.625 C11.65756515 13.12506476 20.5703558 18.17446703 32.1875 20.3125 C33.78944515 20.55671262 35.39298532 20.79174084 37 21 C37.33 19.35 37.66 17.7 38 16 C38.66 16.33 39.32 16.66 40 17 C40.40729228 19.32156597 40.74438677 21.6568787 41 24 C38.03 24 35.06 24 32 24 C32 24.99 32 25.98 32 27 C20.56145484 27.54469263 11.90531593 24.18098209 3.32421875 16.5 C2.18165421 15.36709093 1.08408162 14.18899274 0 13 C-0.37769531 13.51949219 -0.75539062 14.03898437 -1.14453125 14.57421875 C-6.53845467 21.40820603 -13.40202376 25.35903436 -22 27 C-23.58211573 27.06548492 -25.16670081 27.08578381 -26.75 27.0625 C-27.54921875 27.05347656 -28.3484375 27.04445313 -29.171875 27.03515625 C-29.77515625 27.02355469 -30.3784375 27.01195313 -31 27 C-31 26.01 -31 25.02 -31 24 C-33.97 24 -36.94 24 -40 24 C-39.34 21.36 -38.68 18.72 -38 16 C-37.34 16.33 -36.68 16.66 -36 17 C-36 18.32 -36 19.64 -36 21 C-23.18606959 18.92796019 -11.14801152 14.76646867 -3.0625 4.125 C-2.24458984 2.95324219 -2.24458984 2.95324219 -1.41015625 1.7578125 C-0.94480469 1.17773438 -0.47945312 0.59765625 0 0 Z " fill="#D7B773" transform="translate(70,71)"/>
<path d="M0 0 C0.66 0 1.32 0 2 0 C2 0.66 2 1.32 2 2 C2.99 1.34 3.98 0.68 5 0 C8.4375 -0.4375 8.4375 -0.4375 12 0 C15.20850753 2.71489099 15.91613572 4.32908579 16.4375 8.5 C15.9421493 12.46280559 14.84563205 15.15436795 12 18 C5.53846154 18.35897436 5.53846154 18.35897436 2 16 C2 21.28 2 26.56 2 32 C1.34 32 0.68 32 0 32 C0 21.44 0 10.88 0 0 Z " fill="#B00000" transform="translate(138,110)"/>
<path d="M0 0 C2.34863757 0.38314638 3.6583967 0.62194512 5.28125 2.41796875 C5.6834375 3.00191406 6.085625 3.58585937 6.5 4.1875 C12.16682954 11.17754863 21.38862923 14.34396716 30 16 C29.18853551 13.80591279 29.18853551 13.80591279 26.96875 13.25390625 C25.32359118 12.79315766 23.67775485 12.33482136 22.03125 11.87890625 C21.3609375 11.58886719 20.690625 11.29882812 20 11 C19.505 9.515 19.505 9.515 19 8 C23.11390262 8.81019497 27.2132475 9.68135227 31.3125 10.5625 C32.56675781 10.83191406 33.82101563 11.10132812 35.11328125 11.37890625 C36.06589844 11.58386719 37.01851563 11.78882812 38 12 C38.33 10.35 38.66 8.7 39 7 C39.99 7.495 39.99 7.495 41 8 C41.40729228 10.32156597 41.74438677 12.6568787 42 15 C39.03 15 36.06 15 33 15 C33 15.99 33 16.98 33 18 C21.56145484 18.54469263 12.90531593 15.18098209 4.32421875 7.5 C3.18165421 6.36709093 2.08408162 5.18899274 1 4 C0.62230469 4.51949219 0.24460937 5.03898437 -0.14453125 5.57421875 C-5.53845467 12.40820603 -12.40202376 16.35903436 -21 18 C-22.58211573 18.06548492 -24.16670081 18.08578381 -25.75 18.0625 C-26.54921875 18.05347656 -27.3484375 18.04445313 -28.171875 18.03515625 C-28.77515625 18.02355469 -29.3784375 18.01195313 -30 18 C-29.34 16.68 -28.68 15.36 -28 14 C-27.67 14.66 -27.34 15.32 -27 16 C-15.25975946 13.19685268 -7.42377024 9.74369844 0 0 Z " fill="#D6B56F" transform="translate(69,80)"/>
<path d="M0 0 C0.99 1.0209375 0.99 1.0209375 2 2.0625 C2.996573 3.04515438 3.99699841 4.02390821 5 5 C5.56976563 5.56589844 6.13953125 6.13179688 6.7265625 6.71484375 C11.93324471 11.61083916 17.39670864 14.36460569 24 17 C24.93457031 17.37511719 25.86914062 17.75023438 26.83203125 18.13671875 C27.54746094 18.42160156 28.26289062 18.70648438 29 19 C29 19.66 29 20.32 29 21 C20.73764236 20.68221701 12.75391367 17.68121464 6.78125 11.82421875 C5.61260546 10.43026351 4.48054345 9.00409721 3.40234375 7.5390625 C2.93957031 7.03117187 2.47679688 6.52328125 2 6 C1.01 6 0.02 6 -1 6 C-2.59380468 7.60599213 -2.59380468 7.60599213 -4.125 9.6875 C-10.69087873 17.44842361 -18.11814208 19.76245891 -28 21 C-28 20.34 -28 19.68 -28 19 C-26.9378125 18.57589844 -25.875625 18.15179688 -24.78125 17.71484375 C-14.48321649 13.4860768 -6.69866114 9.21065907 0 0 Z " fill="#F9F7ED" transform="translate(70,75)"/>
<path d="M0 0 C1.43655854 -0.08131463 2.8744483 -0.13933559 4.3125 -0.1875 C5.51326172 -0.23970703 5.51326172 -0.23970703 6.73828125 -0.29296875 C9 0 9 0 10.78125 1.03125 C12.67312263 4.08735194 12.31396309 7.21462893 12.1875 10.6875 C12.17396484 11.38939453 12.16042969 12.09128906 12.14648438 12.81445312 C12.11120182 14.54329829 12.05739583 16.27174765 12 18 C10.20866022 18.05391993 8.41686101 18.09275571 6.625 18.125 C5.62726563 18.14820313 4.62953125 18.17140625 3.6015625 18.1953125 C1 18 1 18 -1 16 C-1.375 13.0625 -1.375 13.0625 -1 10 C0.625 8.125 0.625 8.125 3 7 C6.25 6.8125 6.25 6.8125 9 7 C8.67 5.35 8.34 3.7 8 2 C5.36 2.33 2.72 2.66 0 3 C0 2.01 0 1.02 0 0 Z " fill="#B42127" transform="translate(159,110)"/>
<path d="M0 0 C1.45792884 -0.05399736 2.91642712 -0.09279177 4.375 -0.125 C5.18710938 -0.14820312 5.99921875 -0.17140625 6.8359375 -0.1953125 C9 0 9 0 11 2 C11.14507695 4.74485593 11.18652423 7.38480543 11.125 10.125 C11.11597656 10.87910156 11.10695312 11.63320312 11.09765625 12.41015625 C11.0740687 14.27357254 11.03819719 16.13682593 11 18 C9.68 18 8.36 18 7 18 C5.80375 18.04125 4.6075 18.0825 3.375 18.125 C0 18 0 18 -2 16 C-2.3125 13 -2.3125 13 -2 10 C1.08888522 7.94074319 1.70935927 7.7609626 5.1875 7.875 C7.0746875 7.936875 7.0746875 7.936875 9 8 C8.34 6.35 7.68 4.7 7 3 C4.36 3 1.72 3 -1 3 C-0.67 2.01 -0.34 1.02 0 0 Z " fill="#AE0509" transform="translate(121,110)"/>
<path d="M0 0 C0.99 0 1.98 0 3 0 C3.33 2.97 3.66 5.94 4 9 C4.33 8.67 4.66 8.34 5 8 C11.23490601 7.53815511 11.23490601 7.53815511 13.71484375 9.03515625 C15.70058694 12.07111012 15.31480828 15.19141872 15.1875 18.6875 C15.17396484 19.38939453 15.16042969 20.09128906 15.14648438 20.81445312 C15.11120182 22.54329829 15.05739583 24.27174765 15 26 C14.01 26 13.02 26 12 26 C11.67 21.38 11.34 16.76 11 12 C9.35 11.67 7.7 11.34 6 11 C3.22957891 13.77042109 3.60203894 15.76533805 3.375 19.625 C3.30023438 20.81351563 3.22546875 22.00203125 3.1484375 23.2265625 C3.09945312 24.14179687 3.05046875 25.05703125 3 26 C2.01 26 1.02 26 0 26 C0 17.42 0 8.84 0 0 Z " fill="#B6292C" transform="translate(39,102)"/>
<path d="M0 0 C0.99 0 1.98 0 3 0 C3.33 2.97 3.66 5.94 4 9 C4.33 8.67 4.66 8.34 5 8 C8.4375 7.8125 8.4375 7.8125 12 8 C14 10 14 10 14.1953125 13.6953125 C14.182009 15.17200108 14.15814835 16.64862358 14.125 18.125 C14.11597656 18.87910156 14.10695313 19.63320312 14.09765625 20.41015625 C14.0740687 22.27357254 14.03819719 24.13682593 14 26 C13.34 26 12.68 26 12 26 C11.67 21.38 11.34 16.76 11 12 C9.35 11.67 7.7 11.34 6 11 C3.22957891 13.77042109 3.60203894 15.76533805 3.375 19.625 C3.30023438 20.81351563 3.22546875 22.00203125 3.1484375 23.2265625 C3.09945312 24.14179687 3.05046875 25.05703125 3 26 C2.01 26 1.02 26 0 26 C0 17.42 0 8.84 0 0 Z " fill="#B51B27" transform="translate(100,102)"/>
<path d="M0 0 C0.90105469 0.02707031 1.80210938 0.05414063 2.73046875 0.08203125 C3.76107422 0.13423828 3.76107422 0.13423828 4.8125 0.1875 C4.8125 1.1775 4.8125 2.1675 4.8125 3.1875 C2.1725 3.1875 -0.4675 3.1875 -3.1875 3.1875 C-3.5175 4.8375 -3.8475 6.4875 -4.1875 8.1875 C-3.54941406 8.53683594 -2.91132813 8.88617188 -2.25390625 9.24609375 C-1.42761719 9.70113281 -0.60132813 10.15617187 0.25 10.625 C1.07371094 11.07746094 1.89742187 11.52992187 2.74609375 11.99609375 C4.8125 13.1875 4.8125 13.1875 5.8125 14.1875 C6.2810614 20.51307884 6.2810614 20.51307884 4.62109375 22.90234375 C2.18443991 24.63378892 0.58227715 24.49021859 -2.375 24.375 C-3.72658203 24.33439453 -3.72658203 24.33439453 -5.10546875 24.29296875 C-5.79253906 24.25816406 -6.47960937 24.22335938 -7.1875 24.1875 C-7.5175 22.8675 -7.8475 21.5475 -8.1875 20.1875 C-5.2175 20.5175 -2.2475 20.8475 0.8125 21.1875 C1.4725 19.2075 2.1325 17.2275 2.8125 15.1875 C1.925625 14.94 1.03875 14.6925 0.125 14.4375 C-3.41288088 13.10245061 -5.58999645 11.93779788 -8.1875 9.1875 C-8.6875 6.125 -8.6875 6.125 -8.1875 3.1875 C-5.82450796 -0.08551163 -3.90459025 -0.15212689 0 0 Z " fill="#B42127" transform="translate(28.1875,103.8125)"/>
<path d="M0 0 C2.4375 0.75 2.4375 0.75 4.4375 2.75 C4.99177252 9.73383372 4.99177252 9.73383372 3.3125 12.8125 C0.47430106 14.23159947 -1.57224676 13.53006606 -4.5625 12.75 C-6.22934015 11.08315985 -5.77322764 9.09356931 -5.8125 6.8125 C-5.83828125 5.91660156 -5.8640625 5.02070312 -5.890625 4.09765625 C-5.78234375 3.32292969 -5.6740625 2.54820313 -5.5625 1.75 C-2.5625 -0.25 -2.5625 -0.25 0 0 Z " fill="#FAF6F6" transform="translate(146.5625,112.25)"/>
<path d="M0 0 C2.31 0 4.62 0 7 0 C9 2 9 2 9.25 5 C9 8 9 8 7 10 C4.375 10.125 4.375 10.125 2 10 C2 11.32 2 12.64 2 14 C1.34 14 0.68 14 0 14 C0 9.38 0 4.76 0 0 Z " fill="#3D3D3D" transform="translate(196,141)"/>
<path d="M0 0 C-0.33 0.99 -0.66 1.98 -1 3 C-2.98 3 -4.96 3 -7 3 C-7 3.99 -7 4.98 -7 6 C-5.21782547 7.28820508 -5.21782547 7.28820508 -3 8.375 C-0.7890625 9.66796875 -0.7890625 9.66796875 1 11 C1.625 13.6875 1.625 13.6875 1 16 C-1 18 -1 18 -3.1640625 18.1953125 C-3.97617188 18.17210937 -4.78828125 18.14890625 -5.625 18.125 C-6.44226563 18.10695312 -7.25953125 18.08890625 -8.1015625 18.0703125 C-8.72804688 18.04710937 -9.35453125 18.02390625 -10 18 C-9.67 17.01 -9.34 16.02 -9 15 C-7.02 15 -5.04 15 -3 15 C-3.03955898 13.07690578 -3.03955898 13.07690578 -4 11 C-4.99 10.525625 -5.98 10.05125 -7 9.5625 C-10 8 -10 8 -11.0625 5.5 C-11 3 -11 3 -10.0625 1.1875 C-6.76781888 -0.70943762 -3.75761536 -0.18480076 0 0 Z " fill="#AE0D11" transform="translate(95,110)"/>
<path d="M0 0 C0.66 0 1.32 0 2 0 C2 1.65 2 3.3 2 5 C3.65 5 5.3 5 7 5 C7 5.66 7 6.32 7 7 C5.35 7 3.7 7 2 7 C2.33 11.29 2.66 15.58 3 20 C4.32 20.33 5.64 20.66 7 21 C7 21.66 7 22.32 7 23 C4.125 23.1875 4.125 23.1875 1 23 C-1.42130331 19.36804504 -1.21022785 17.61650652 -1.125 13.3125 C-1.09792969 11.54326172 -1.09792969 11.54326172 -1.0703125 9.73828125 C-1.04710937 8.83464844 -1.02390625 7.93101563 -1 7 C-1.66 7 -2.32 7 -3 7 C-3 6.34 -3 5.68 -3 5 C-2.01 5 -1.02 5 0 5 C0 3.35 0 1.7 0 0 Z " fill="#AE0107" transform="translate(178,105)"/>
<path d="M0 0 C2.9375 0.1875 2.9375 0.1875 3.9375 1.1875 C4.0703125 3 4.0703125 3 4.0625 5.1875 C4.06507813 5.909375 4.06765625 6.63125 4.0703125 7.375 C3.9375 9.1875 3.9375 9.1875 2.9375 10.1875 C0 10.375 0 10.375 -3.0625 10.1875 C-5.0625 8.1875 -5.0625 8.1875 -5.3125 5.1875 C-4.96470552 1.01396625 -4.18057901 0.25595382 0 0 Z " fill="#F3F3F3" transform="translate(178.0625,140.8125)"/>
<path d="M0 0 C1.32 0 2.64 0 4 0 C5.53214888 3.06429776 5.22938548 5.6165642 5 9 C3.84360194 11.31279611 2.82590172 13.17409828 1 15 C-3.61982692 15.26149964 -5.77484052 15.11257974 -10 13 C-9.67 9.7 -9.34 6.4 -9 3 C-8.67 3 -8.34 3 -8 3 C-7.67 5.64 -7.34 8.28 -7 11 C-4.09926819 11.67801034 -4.09926819 11.67801034 -1 12 C1.16512323 10.24524938 1.16512323 10.24524938 1.23046875 8.125 C1.21628906 7.42375 1.20210937 6.7225 1.1875 6 C1.18105469 5.29875 1.17460937 4.5975 1.16796875 3.875 C1.10706133 1.90943627 1.10706133 1.90943627 0 0 Z " fill="#B00D14" transform="translate(149,113)"/>
<path d="M0 0 C5.93744585 -0.64772137 5.93744585 -0.64772137 8.7109375 1.04296875 C10.70593955 4.07174459 10.31473204 7.19351244 10.1875 10.6875 C10.17396484 11.38939453 10.16042969 12.09128906 10.14648438 12.81445312 C10.11120182 14.54329829 10.05739583 16.27174765 10 18 C9.01 18 8.02 18 7 18 C6.67 13.38 6.34 8.76 6 4 C1.35954625 2.90194193 1.35954625 2.90194193 -2 3 C-1.34 2.01 -0.68 1.02 0 0 Z " fill="#AD050C" transform="translate(44,110)"/>
<path d="M0 0 C0.66 1.32 1.32 2.64 2 4 C1.1646875 3.505 1.1646875 3.505 0.3125 3 C-2.32401158 1.85988688 -4.15554856 1.7693688 -7 2 C-8.39287806 3.17036305 -8.39287806 3.17036305 -8.1875 6.4375 C-8.39564928 10.05032721 -8.39564928 10.05032721 -6 12 C-2.91652174 12.16681109 -2.91652174 12.16681109 0 12 C0 10.68 0 9.36 0 8 C-1.32 7.67 -2.64 7.34 -4 7 C-2.02 7 -0.04 7 2 7 C2 8.98 2 10.96 2 13 C-1.09173752 14.54586876 -3.59429552 14.29359521 -7 14 C-9.4375 12.4375 -9.4375 12.4375 -11 10 C-11.42213381 6.56262469 -11.60856522 4.17909511 -10 1.0625 C-6.73357754 -0.67278693 -3.65648548 -0.17982715 0 0 Z " fill="#353535" transform="translate(162,137)"/>
<path d="M0 0 C1.32 0.33 2.64 0.66 4 1 C1.03 4.96 1.03 4.96 -2 9 C-0.02 11.64 1.96 14.28 4 17 C3.01 17.33 2.02 17.66 1 18 C-1.31 15.03 -3.62 12.06 -6 9 C-4.16172132 5.84866512 -2.24027294 2.88035092 0 0 Z " fill="#B11D21" transform="translate(77,110)"/>
<path d="M0 0 C0.90105469 0.02707031 1.80210938 0.05414063 2.73046875 0.08203125 C3.76107422 0.13423828 3.76107422 0.13423828 4.8125 0.1875 C4.8125 1.1775 4.8125 2.1675 4.8125 3.1875 C2.1725 3.1875 -0.4675 3.1875 -3.1875 3.1875 C-3.95706136 5.53283951 -3.95706136 5.53283951 -4.1875 8.1875 C-2.85371425 10.0229799 -2.85371425 10.0229799 -1.1875 11.1875 C-3 11.875 -3 11.875 -5.1875 12.1875 C-6.9375 11.125 -6.9375 11.125 -8.1875 9.1875 C-8.82597487 4.07970104 -8.82597487 4.07970104 -6.98828125 1.51171875 C-4.55932453 -0.27443381 -2.98027437 -0.11611459 0 0 Z " fill="#B0151C" transform="translate(28.1875,103.8125)"/>
<path d="M0 0 C2.64 0 5.28 0 8 0 C8 0.66 8 1.32 8 2 C7.0409375 2.433125 7.0409375 2.433125 6.0625 2.875 C3.84793921 3.82823451 3.84793921 3.82823451 3 6 C2.77141886 8.0374763 2.58975722 10.08040303 2.4375 12.125 C2.35371094 13.22070312 2.26992187 14.31640625 2.18359375 15.4453125 C2.12300781 16.28835937 2.06242188 17.13140625 2 18 C1.34 18 0.68 18 0 18 C0 12.06 0 6.12 0 0 Z " fill="#B00C0E" transform="translate(190,110)"/>
<path d="M0 0 C0.99 0 1.98 0 3 0 C3 5.94 3 11.88 3 18 C2.01 18 1.02 18 0 18 C0 12.06 0 6.12 0 0 Z " fill="#AF121A" transform="translate(59,110)"/>
<path d="M0 0 C2.875 -0.125 2.875 -0.125 6 0 C8 2 8 2 8.1953125 5.6953125 C8.182009 7.17200108 8.15814835 8.64862358 8.125 10.125 C8.11597656 10.87910156 8.10695313 11.63320312 8.09765625 12.41015625 C8.0740687 14.27357254 8.03819719 16.13682593 8 18 C7.34 18 6.68 18 6 18 C5.67 13.38 5.34 8.76 5 4 C2.525 3.01 2.525 3.01 0 2 C0 1.34 0 0.68 0 0 Z " fill="#B00000" transform="translate(106,110)"/>
<path d="M0 0 C1.43655854 -0.08131463 2.8744483 -0.13933559 4.3125 -0.1875 C5.51326172 -0.23970703 5.51326172 -0.23970703 6.73828125 -0.29296875 C9 0 9 0 10.78125 1.03125 C12.67312263 4.08735194 12.31396309 7.21462893 12.1875 10.6875 C12.17396484 11.38939453 12.16042969 12.09128906 12.14648438 12.81445312 C12.11120182 14.54329829 12.05739583 16.27174765 12 18 C11.34 17.67 10.68 17.34 10 17 C10.33 13.04 10.66 9.08 11 5 C10.01 4.67 9.02 4.34 8 4 C8 3.34 8 2.68 8 2 C5.36 2.33 2.72 2.66 0 3 C0 2.01 0 1.02 0 0 Z " fill="#AD0A0C" transform="translate(159,110)"/>
<path d="M0 0 C1.134375 0.020625 2.26875 0.04125 3.4375 0.0625 C2.5625 4.9375 2.5625 4.9375 1.4375 6.0625 C-0.22867115 6.10313832 -1.89638095 6.105221 -3.5625 6.0625 C-3.94468767 4.40635343 -4.27645102 2.73792976 -4.5625 1.0625 C-3.5625 0.0625 -3.5625 0.0625 0 0 Z " fill="#F7EEEF" transform="translate(126.5625,119.9375)"/>
<path d="M0 0 C2.9375 0.1875 2.9375 0.1875 3.9375 1.1875 C4.0703125 3 4.0703125 3 4.0625 5.1875 C4.06507813 5.909375 4.06765625 6.63125 4.0703125 7.375 C3.9375 9.1875 3.9375 9.1875 2.9375 10.1875 C0 10.375 0 10.375 -3.0625 10.1875 C-5.0625 8.1875 -5.0625 8.1875 -5.3125 5.1875 C-4.96470552 1.01396625 -4.18057901 0.25595382 0 0 Z M-2.0625 1.1875 C-3.41868499 2.31284105 -3.41868499 2.31284105 -3.125 5.25 C-3.104375 6.219375 -3.08375 7.18875 -3.0625 8.1875 C-1.17070797 8.8689823 -1.17070797 8.8689823 0.9375 9.1875 C1.5975 8.5275 2.2575 7.8675 2.9375 7.1875 C2.61551034 4.08823181 2.61551034 4.08823181 1.9375 1.1875 C0.6175 1.1875 -0.7025 1.1875 -2.0625 1.1875 Z " fill="#363636" transform="translate(178.0625,140.8125)"/>
<path d="M0 0 C0.66 0.33 1.32 0.66 2 1 C2.40729228 3.32156597 2.74438677 5.6568787 3 8 C0.03 8 -2.94 8 -6 8 C-6 7.01 -6 6.02 -6 5 C-4.35 5 -2.7 5 -1 5 C-0.67 3.35 -0.34 1.7 0 0 Z " fill="#DBBF84" transform="translate(108,87)"/>
<path d="M0 0 C0.94875 0.04125 1.8975 0.0825 2.875 0.125 C2.545 1.775 2.215 3.425 1.875 5.125 C0.225 5.455 -1.425 5.785 -3.125 6.125 C-3.785 4.805 -4.445 3.485 -5.125 2.125 C-3.125 0.125 -3.125 0.125 0 0 Z " fill="#FBF8F8" transform="translate(165.125,119.875)"/>
<path d="M0 0 C1.8871875 0.061875 1.8871875 0.061875 3.8125 0.125 C3.8125 0.785 3.8125 1.445 3.8125 2.125 C1.5025 2.455 -0.8075 2.785 -3.1875 3.125 C-3.5175 5.435 -3.8475 7.745 -4.1875 10.125 C-5.1775 9.465 -6.1675 8.805 -7.1875 8.125 C-7.5625 5.125 -7.5625 5.125 -7.1875 2.125 C-4.09861478 0.06574319 -3.47814073 -0.1140374 0 0 Z " fill="#B31C21" transform="translate(126.1875,117.875)"/>
<path d="M0 0 C0.33 0 0.66 0 1 0 C1 4.62 1 9.24 1 14 C0.01 14 -0.98 14 -2 14 C-2 10.04 -2 6.08 -2 2 C-1.34 2 -0.68 2 0 2 C0 1.34 0 0.68 0 0 Z " fill="#B20D1C" transform="translate(102,114)"/>
<path d="M0 0 C2.0625 0.4375 2.0625 0.4375 4 1 C4 2.98 4 4.96 4 7 C2.0625 7.5625 2.0625 7.5625 0 8 C-1 7 -1 7 -1.125 4 C-1 1 -1 1 0 0 Z " fill="#F7F7F7" transform="translate(199,142)"/>
<path d="M0 0 C0.66 0.99 1.32 1.98 2 3 C0.1128125 2.9071875 0.1128125 2.9071875 -1.8125 2.8125 C-5.13343838 2.7399651 -5.13343838 2.7399651 -7.875 4.5 C-8.24625 4.995 -8.6175 5.49 -9 6 C-9.66 6 -10.32 6 -11 6 C-11 4.35 -11 2.7 -11 1 C-7.30992118 -0.18082522 -3.85119054 -0.28527337 0 0 Z " fill="#B0080D" transform="translate(150,110)"/>
<path d="M0 0 C0.33 0 0.66 0 1 0 C1.04898438 0.77085938 1.09796875 1.54171875 1.1484375 2.3359375 C1.22320312 3.33882813 1.29796875 4.34171875 1.375 5.375 C1.44460937 6.37273437 1.51421875 7.37046875 1.5859375 8.3984375 C1.76363964 11.15508879 1.76363964 11.15508879 4 13 C6.06874034 13.6425235 6.06874034 13.6425235 8 14 C8 14.66 8 15.32 8 16 C5.125 16.1875 5.125 16.1875 2 16 C-0.42130331 12.36804504 -0.21022785 10.61650652 -0.125 6.3125 C-0.09792969 4.54326172 -0.09792969 4.54326172 -0.0703125 2.73828125 C-0.04710937 1.83464844 -0.02390625 0.93101563 0 0 Z " fill="#B73535" transform="translate(177,112)"/>
<path d="M0 0 C0 3 0 3 -1.42578125 4.640625 C-2.04839844 5.17171875 -2.67101563 5.7028125 -3.3125 6.25 C-4.23482422 7.06210938 -4.23482422 7.06210938 -5.17578125 7.890625 C-5.77777344 8.25671875 -6.37976562 8.6228125 -7 9 C-7.99 8.67 -8.98 8.34 -10 8 C-6.88983545 4.71211176 -3.98381075 2.16264012 0 0 Z " fill="#FBFBF5" transform="translate(66,82)"/>
<path d="M0 0 C3.5 -0.3125 3.5 -0.3125 7 0 C7.66 0.66 8.32 1.32 9 2 C8.34 2 7.68 2 7 2 C6.67 2.66 6.34 3.32 6 4 C5.236875 3.835 4.47375 3.67 3.6875 3.5 C0.96403764 2.90854604 0.96403764 2.90854604 -2 3 C-1.34 2.01 -0.68 1.02 0 0 Z " fill="#B41B1E" transform="translate(44,110)"/>
<path d="M0 0 C3.25543229 0.34879632 4.01873107 1.02133261 6.25 3.5625 C6.8275 4.366875 7.405 5.17125 8 6 C7.01 6.33 6.02 6.66 5 7 C0 1.125 0 1.125 0 0 Z " fill="#AF1116" transform="translate(73,121)"/>
<path d="M0 0 C1.48117801 0.28127421 2.95993249 0.57533732 4.4375 0.875 C5.67306641 1.11863281 5.67306641 1.11863281 6.93359375 1.3671875 C7.61550781 1.57601562 8.29742187 1.78484375 9 2 C9.33 2.66 9.66 3.32 10 4 C7.03 4 4.06 4 1 4 C0.67 2.68 0.34 1.36 0 0 Z " fill="#AE0C10" transform="translate(20,124)"/>
<path d="M0 0 C2.64 0 5.28 0 8 0 C7.67 0.99 7.34 1.98 7 3 C6.071875 2.979375 5.14375 2.95875 4.1875 2.9375 C0.97713989 2.84230396 0.97713989 2.84230396 -2 4 C-1.34 2.68 -0.68 1.36 0 0 Z " fill="#AC0609" transform="translate(87,110)"/>
<path d="M0 0 C0.99 0 1.98 0 3 0 C3.33 0.99 3.66 1.98 4 3 C4.66 3.33 5.32 3.66 6 4 C5.67 4.99 5.34 5.98 5 7 C3.0625 6.3125 3.0625 6.3125 1 5 C0.25 2.375 0.25 2.375 0 0 Z " fill="#B6282B" transform="translate(84,113)"/>
<path d="M0 0 C0.33 0 0.66 0 1 0 C1.1953125 2.05078125 1.390625 4.1015625 1.5859375 6.15234375 C1.72257813 6.76207031 1.85921875 7.37179688 2 8 C2.66 8.33 3.32 8.66 4 9 C4 9.66 4 10.32 4 11 C2.35 10.67 0.7 10.34 -1 10 C-0.67 6.7 -0.34 3.4 0 0 Z " fill="#B72E34" transform="translate(140,116)"/>
<path d="M0 0 C2.875 -0.1875 2.875 -0.1875 6 0 C6.66 0.99 7.32 1.98 8 3 C4.88742431 3 2.89234315 2.82638376 0 2 C0 1.34 0 0.68 0 0 Z " fill="#AD060B" transform="translate(106,110)"/>
<path d="M0 0 C2.64 0 5.28 0 8 0 C8 0.66 8 1.32 8 2 C3.545 2.495 3.545 2.495 -1 3 C-0.67 2.01 -0.34 1.02 0 0 Z " fill="#AD0406" transform="translate(121,110)"/>
<path d="M0 0 C2.64 0 5.28 0 8 0 C8 0.99 8 1.98 8 3 C5.36 2.67 2.72 2.34 0 2 C0 1.34 0 0.68 0 0 Z " fill="#AF0709" transform="translate(25,104)"/>
<path d="M0 0 C1.5 1.3125 1.5 1.3125 3 3 C3 3.99 3 4.98 3 6 C1.35 6 -0.3 6 -2 6 C-2 5.34 -2 4.68 -2 4 C-1.34 4 -0.68 4 0 4 C0 2.68 0 1.36 0 0 Z " fill="#D6B269" transform="translate(108,89)"/>
<path d="M0 0 C2 3 2 3 2 7 C1.01 7.33 0.02 7.66 -1 8 C-1 4.88742431 -0.82638376 2.89234315 0 0 Z " fill="#B73238" transform="translate(31,120)"/>
<path d="M0 0 C0.99 0.33 1.98 0.66 3 1 C3 3.31 3 5.62 3 8 C0.77810176 5.77810176 0.07401108 3.91517292 -1 1 C-0.67 0.67 -0.34 0.34 0 0 Z " fill="#AE060A" transform="translate(31,117)"/>
<path d="M0 0 C0.33 0.66 0.66 1.32 1 2 C2.32 2 3.64 2 5 2 C5 2.66 5 3.32 5 4 C2.69 4 0.38 4 -2 4 C-1.34 2.68 -0.68 1.36 0 0 Z " fill="#D4AF61" transform="translate(41,94)"/>
<path d="M0 0 C0.78375 0.04125 1.5675 0.0825 2.375 0.125 C2.705 1.115 3.035 2.105 3.375 3.125 C0.735 2.795 -1.905 2.465 -4.625 2.125 C-2.625 0.125 -2.625 0.125 0 0 Z " fill="#F4EEDF" transform="translate(95.625,92.875)"/>
</svg>
