<?xml version="1.0" encoding="UTF-8"?>
<svg version="1.1" xmlns="http://www.w3.org/2000/svg" width="198" height="98">
<path d="M0 0 C65.34 0 130.68 0 198 0 C198 32.34 198 64.68 198 98 C132.66 98 67.32 98 0 98 C0 65.66 0 33.32 0 0 Z " fill="#FEFEFE" transform="translate(0,0)"/>
<path d="M0 0 C43.56 0 87.12 0 132 0 C132 23.1 132 46.2 132 70 C88.44 70 44.88 70 0 70 C0 46.9 0 23.8 0 0 Z " fill="#2672A0" transform="translate(66,0)"/>
<path d="M0 0 C0.7425 0.350625 1.485 0.70125 2.25 1.0625 C5.25482851 2.08687336 6.09198816 1.99962907 9 1 C10.66519519 0.65939189 12.33157466 0.32441604 14 0 C14.0825 1.11375 14.165 2.2275 14.25 3.375 C14.57873787 7.05753944 14.57873787 7.05753944 17.0625 8.4375 C17.701875 8.623125 18.34125 8.80875 19 9 C19 9.66 19 10.32 19 11 C16.84765625 12.47265625 16.84765625 12.47265625 14.0625 14.0625 C10.84169663 15.77468905 10.84169663 15.77468905 8 18 C10.75471394 20.25162602 10.75471394 20.25162602 13.5625 19.9375 C18.38696256 18.62173748 22.60544567 16.35360519 27 14 C29.72288323 15.17464751 31.11469882 15.79514494 33 18 C33.88581649 21.85940815 33.74597449 25.6211511 33.625 29.5625 C33.63466797 31.14321289 33.63466797 31.14321289 33.64453125 32.75585938 C33.53630562 40.46447617 33.53630562 40.46447617 31.15771484 42.83959961 C28.12902793 44.46840125 26.25566133 43.84930296 23 43 C22.01 42.505 22.01 42.505 21 42 C20.9175 43.010625 20.835 44.02125 20.75 45.0625 C19.27587926 50.34115295 14.55639438 52.33394209 10.140625 55.0078125 C7 56 7 56 3.671875 54.7421875 C1 53 1 53 0 52 C-0.14115161 49.32941149 -0.04247107 46.67567762 0 44 C-2.97 46.475 -2.97 46.475 -6 49 C-8.91517292 47.92598892 -10.77810176 47.22189824 -13 45 C-13.1953125 42.8359375 -13.1953125 42.8359375 -13.125 40.375 C-13.10695313 39.55773438 -13.08890625 38.74046875 -13.0703125 37.8984375 C-13.03550781 36.95871094 -13.03550781 36.95871094 -13 36 C-14.98 35.34 -16.96 34.68 -19 34 C-19 26.41 -19 18.82 -19 11 C-16.36 11.66 -13.72 12.32 -11 13 C-8.82967524 11.56009377 -8.82967524 11.56009377 -7 10 C-4.5 10.75 -4.5 10.75 -2 12 C-0.67323492 12.35858516 0.65835921 12.7018576 2 13 C2.66 12.01 3.32 11.02 4 10 C3.34 9.649375 2.68 9.29875 2 8.9375 C0 7 0 7 -0.25 3.3125 C-0.1675 2.219375 -0.085 1.12625 0 0 Z " fill="#549CBE" transform="translate(27,11)"/>
<path d="M0 0 C1.93798828 1.10742188 1.93798828 1.10742188 5.00439453 3.31054688 C5.12037106 7.08112235 5.19156849 10.8512408 5.25439453 14.62304688 C5.30466797 16.23083008 5.30466797 16.23083008 5.35595703 17.87109375 C5.36884766 18.89912109 5.38173828 19.92714844 5.39501953 20.98632812 C5.4159668 21.93419189 5.43691406 22.88205566 5.45849609 23.85864258 C5.00439453 26.31054688 5.00439453 26.31054688 3.17529297 28.15893555 C0.13723306 29.77055594 -1.73785581 29.16039461 -4.99560547 28.31054688 C-5.65560547 27.98054688 -6.31560547 27.65054688 -6.99560547 27.31054688 C-7.11935547 28.34179688 -7.24310547 29.37304688 -7.37060547 30.43554688 C-8.44526619 34.37329624 -10.57318141 35.68177068 -13.99560547 37.74804688 C-18.59873863 40.31054688 -18.59873863 40.31054688 -20.99560547 40.31054688 C-21.34446573 34.99042795 -21.34446573 34.99042795 -20.99560547 32.31054688 C-19.12060547 30.31054688 -19.12060547 30.31054688 -16.99560547 29.31054688 C-16.33560547 29.31054688 -15.67560547 29.31054688 -14.99560547 29.31054688 C-14.99560547 21.72054687 -14.99560547 14.13054688 -14.99560547 6.31054688 C-12.99498047 5.07304687 -10.99435547 3.83554687 -8.93310547 2.56054688 C-8.31814209 2.15868164 -7.70317871 1.75681641 -7.06958008 1.34277344 C-4.57992831 -0.0924607 -2.78332021 -0.96159729 0 0 Z " fill="#EAD743" transform="translate(54.99560546875,25.689453125)"/>
<path d="M0 0 C5.61 0 11.22 0 17 0 C17 9.57 17 19.14 17 29 C11.39 29 5.78 29 0 29 C0 27.68 0 26.36 0 25 C4.29 25 8.58 25 13 25 C13 22.69 13 20.38 13 18 C8.71 18 4.42 18 0 18 C0 12.06 0 6.12 0 0 Z " fill="#E5EEF3" transform="translate(136,24)"/>
<path d="M0 0 C6 2 6 2 7 3 C7.07179964 4.51928038 7.08392007 6.04167482 7.0625 7.5625 C7.05347656 8.38878906 7.04445313 9.21507812 7.03515625 10.06640625 C7.01775391 11.02353516 7.01775391 11.02353516 7 12 C7.86625 12.2475 8.7325 12.495 9.625 12.75 C16.375 15.25 16.375 15.25 19 18 C19.5227042 22.70433783 19.3402984 27.28623692 19 32 C14.25 30.125 14.25 30.125 12 29 C12 31.64 12 34.28 12 37 C7.125 35.125 7.125 35.125 6 34 C5.92820036 32.48071962 5.91607993 30.95832518 5.9375 29.4375 C5.94652344 28.61121094 5.95554687 27.78492187 5.96484375 26.93359375 C5.97644531 26.29550781 5.98804688 25.65742187 6 25 C4.02 24.34 2.04 23.68 0 23 C0 15.41 0 7.82 0 0 Z " fill="#216F9E" transform="translate(8,22)"/>
<path d="M0 0 C3.03523421 0.44635797 5.2739272 -0.67369891 8.125 -1.6875 C8.12910889 -1.06705811 8.13321777 -0.44661621 8.13745117 0.19262695 C8.1703511 3.00438664 8.24098648 5.81396855 8.3125 8.625 C8.31830078 9.60146484 8.32410156 10.57792969 8.33007812 11.58398438 C8.41265509 14.25397285 8.52981911 16.70736396 9.125 19.3125 C11.47599096 21.58019925 11.47599096 21.58019925 14.125 22.3125 C13.320625 22.786875 12.51625 23.26125 11.6875 23.75 C8.13482428 27.30267572 8.23921377 30.45322325 8.125 35.3125 C2.25 32.4375 2.25 32.4375 1.125 31.3125 C0.98384839 28.64191149 1.08252893 25.98817762 1.125 23.3125 C-0.855 24.9625 -2.835 26.6125 -4.875 28.3125 C-5.535 27.9825 -6.195 27.6525 -6.875 27.3125 C-6.545 24.6725 -6.215 22.0325 -5.875 19.3125 C-1.125 21.1875 -1.125 21.1875 1.125 22.3125 C1.34987512 17.484299 1.31371642 13.0149993 0.125 8.3125 C-2.35828753 5.93497429 -4.59200302 4.71562349 -7.72265625 3.328125 C-8.43292969 2.99296875 -9.14320312 2.6578125 -9.875 2.3125 C-9.875 1.6525 -9.875 0.9925 -9.875 0.3125 C-5.97068892 -2.05797459 -4.116696 -1.5094552 0 0 Z " fill="#559DBF" transform="translate(25.875,31.6875)"/>
<path d="M0 0 C4.875 1.875 4.875 1.875 6 3 C6.30758516 6.78350955 6.278377 10.58052188 6.3125 14.375 C6.34150391 15.44234375 6.37050781 16.5096875 6.40039062 17.609375 C6.40876953 18.63289063 6.41714844 19.65640625 6.42578125 20.7109375 C6.44036377 21.65243652 6.45494629 22.59393555 6.4699707 23.56396484 C6 26 6 26 4.16479492 27.84228516 C1.10286057 29.47978292 -0.71643847 28.90821915 -4 28 C-4.99 27.34 -5.98 26.68 -7 26 C-7.38717284 23.26878071 -7.55524168 20.85896583 -7.5625 18.125 C-7.59923828 17.40441406 -7.63597656 16.68382813 -7.67382812 15.94140625 C-7.69140625 13.8203125 -7.69140625 13.8203125 -7 10 C-4.01953125 7.6953125 -4.01953125 7.6953125 -1 6 C-0.0311941 2.86734521 -0.0311941 2.86734521 0 0 Z " fill="#529BBE" transform="translate(54,26)"/>
<path d="M0 0 C5.61 0 11.22 0 17 0 C17 5.94 17 11.88 17 18 C11.39 18 5.78 18 0 18 C0 14.37 0 10.74 0 7 C4.62 7 9.24 7 14 7 C14 6.01 14 5.02 14 4 C9.38 4 4.76 4 0 4 C0 2.68 0 1.36 0 0 Z " fill="#E5EEF3" transform="translate(156,24)"/>
<path d="M0 0 C5.61 0 11.22 0 17 0 C17 5.94 17 11.88 17 18 C11.39 18 5.78 18 0 18 C0 14.37 0 10.74 0 7 C4.62 7 9.24 7 14 7 C14 5.68 14 4.36 14 3 C9.38 3 4.76 3 0 3 C0 2.01 0 1.02 0 0 Z " fill="#EAF1F6" transform="translate(115,24)"/>
<path d="M0 0 C5.61 0 11.22 0 17 0 C17 1.32 17 2.64 17 4 C12.38 4 7.76 4 3 4 C3 4.99 3 5.98 3 7 C7.62 7 12.24 7 17 7 C17 10.63 17 14.26 17 18 C11.39 18 5.78 18 0 18 C0 16.68 0 15.36 0 14 C4.29 14 8.58 14 13 14 C13 13.01 13 12.02 13 11 C8.71 11 4.42 11 0 11 C0 7.37 0 3.74 0 0 Z " fill="#D9E222" transform="translate(74,24)"/>
<path d="M0 0 C1.32 0 2.64 0 4 0 C4 4.62 4 9.24 4 14 C4.99 14 5.98 14 7 14 C7 10.7 7 7.4 7 4 C7.99 4 8.98 4 10 4 C10 7.3 10 10.6 10 14 C11.32 14 12.64 14 14 14 C14 9.38 14 4.76 14 0 C14.99 0 15.98 0 17 0 C17 5.94 17 11.88 17 18 C11.39 18 5.78 18 0 18 C0 12.06 0 6.12 0 0 Z " fill="#E7F0F4" transform="translate(94,24)"/>
<path d="M0 0 C1.3479743 0.63654342 2.68596724 1.29605388 4 2 C4.86991115 7.04548468 4.86991115 7.04548468 4 10 C-0.19951858 13.81700429 -6.21454824 17.2754977 -12 17 C-14.1640625 14.9921875 -14.1640625 14.9921875 -16 13 C-14.37829621 11.99466333 -12.75252763 10.99588093 -11.125 10 C-9.76761719 9.1646875 -9.76761719 9.1646875 -8.3828125 8.3125 C-6 7 -6 7 -4 7 C-4 6.34 -4 5.68 -4 5 C-6.475 4.01 -6.475 4.01 -9 3 C-5.85820714 -0.28460162 -4.46423774 -1.44431221 0 0 Z " fill="#93DAF4" transform="translate(50,15)"/>
<path d="M0 0 C0.66 0.33 1.32 0.66 2 1 C2 8.92 2 16.84 2 25 C7.61 25 13.22 25 19 25 C15 28 15 28 13.1875 27.75 C12.465625 27.5025 11.74375 27.255 11 27 C8.66905466 26.6503582 6.33595238 26.31445513 4 26 C4.33 28.97 4.66 31.94 5 35 C4.34 35 3.68 35 3 35 C3 32.69 3 30.38 3 28 C2.01 28 1.02 28 0 28 C0 30.31 0 32.62 0 35 C-0.66 35 -1.32 35 -2 35 C-3 32 -4 29 -5 26 C-7.31 26.33 -9.62 26.66 -12 27 C-12 27.33 -12 27.66 -12 28 C-14.31 28 -16.62 28 -19 28 C-19 27.01 -19 26.02 -19 25 C-13.06 25 -7.12 25 -1 25 C-1.03926123 19.39142834 -1.03926123 19.39142834 -1.09008789 13.78295898 C-1.10656113 9.07745803 -0.79091592 4.63962487 0 0 Z " fill="#1567A0" transform="translate(175,17)"/>
<path d="M0 0 C0.99 0 1.98 0 3 0 C3 2.31 3 4.62 3 7 C5.31 7 7.62 7 10 7 C10 7.99 10 8.98 10 10 C7.69 10 5.38 10 3 10 C3 13.63 3 17.26 3 21 C7.62 21 12.24 21 17 21 C17 22.32 17 23.64 17 25 C11.39 25 5.78 25 0 25 C0 16.75 0 8.5 0 0 Z " fill="#EFF5F8" transform="translate(177,17)"/>
<path d="M0 0 C0 7.26 0 14.52 0 22 C-6 20 -6 20 -7 19 C-7.18021767 16.35877716 -7.27801916 13.76853102 -7.3125 11.125 C-7.34150391 10.39152344 -7.37050781 9.65804687 -7.40039062 8.90234375 C-7.4642487 3.50879281 -7.4642487 3.50879281 -5.16796875 0.9921875 C-3 0 -3 0 0 0 Z " fill="#1F6EA1" transform="translate(54,33)"/>
<path d="M0 0 C5 2 5 2 7 3 C7 10.26 7 17.52 7 25 C5.02 24.01 3.04 23.02 1 22 C0.67 14.74 0.34 7.48 0 0 Z " fill="#1B6B9F" transform="translate(33,29)"/>
<path d="M0 0 C1.175625 0.6496875 1.175625 0.6496875 2.375 1.3125 C3.11363281 1.66570313 3.85226563 2.01890625 4.61328125 2.3828125 C5.29777344 2.73085938 5.98226563 3.07890625 6.6875 3.4375 C7.38488281 3.79070313 8.08226563 4.14390625 8.80078125 4.5078125 C9.58001953 4.90613281 9.58001953 4.90613281 10.375 5.3125 C8.625 7.375 8.625 7.375 6.375 9.3125 C3.8199925 9.14766081 2.16827591 8.20913796 -0.125 7.0625 C-0.95 6.815 -1.775 6.5675 -2.625 6.3125 C-3.264375 6.8075 -3.90375 7.3025 -4.5625 7.8125 C-5.5834375 8.555 -5.5834375 8.555 -6.625 9.3125 C-10.12400021 8.54271995 -12.081333 7.856167 -14.625 5.3125 C-12.74133147 4.24899337 -10.8424671 3.21236771 -8.9375 2.1875 C-7.88175781 1.60742188 -6.82601563 1.02734375 -5.73828125 0.4296875 C-2.625 -0.6875 -2.625 -0.6875 0 0 Z " fill="#91D9F6" transform="translate(22.625,15.6875)"/>
<path d="M0 0 C0.66 0.66 1.32 1.32 2 2 C1.625 5.625 1.625 5.625 1 9 C1.66 8.67 2.32 8.34 3 8 C5.2072923 7.92907158 7.41667452 7.91584975 9.625 7.9375 C10.81351563 7.94652344 12.00203125 7.95554687 13.2265625 7.96484375 C14.14179687 7.97644531 15.05703125 7.98804688 16 8 C16 10.97 16 13.94 16 17 C10.72 17 5.44 17 0 17 C0 16.01 0 15.02 0 14 C4.29 14 8.58 14 13 14 C13 13.01 13 12.02 13 11 C8.71 11 4.42 11 0 11 C0 7.37 0 3.74 0 0 Z " fill="#EAF011" transform="translate(74,24)"/>
<path d="M0 0 C0.33 0 0.66 0 1 0 C1 5.94 1 11.88 1 18 C-1.296537 19.1482685 -2.58313167 19.11561175 -5.1328125 19.09765625 C-5.93847656 19.09443359 -6.74414062 19.09121094 -7.57421875 19.08789062 C-8.41597656 19.07951172 -9.25773437 19.07113281 -10.125 19.0625 C-10.97449219 19.05798828 -11.82398437 19.05347656 -12.69921875 19.04882812 C-14.79950909 19.03702874 -16.8997633 19.01909306 -19 19 C-19 18.67 -19 18.34 -19 18 C-13.39 18 -7.78 18 -2 18 C-2 14.37 -2 10.74 -2 7 C-6.62 7 -11.24 7 -16 7 C-16 6.01 -16 5.02 -16 4 C-10.72 4 -5.44 4 0 4 C0 2.68 0 1.36 0 0 Z " fill="#0F63A6" transform="translate(93,24)"/>
<path d="M0 0 C3.3 0 6.6 0 10 0 C10 3.3 10 6.6 10 10 C6.7 10 3.4 10 0 10 C0 6.7 0 3.4 0 0 Z " fill="#1A6A9A" transform="translate(139,28)"/>
<path d="M0 0 C2.80627606 0.42519334 4.53979232 -0.49622137 7.0625 -1.6875 C7.0625 0.6225 7.0625 2.9325 7.0625 5.3125 C4.59237192 6.92758375 3.23348459 7.32009932 0.25 7.1875 C-3.66005537 6.11415147 -6.49601606 4.44622004 -9.9375 2.3125 C-9.9375 1.6525 -9.9375 0.9925 -9.9375 0.3125 C-6.00334504 -2.07609408 -4.15317127 -1.47370593 0 0 Z " fill="#95DBF7" transform="translate(25.9375,31.6875)"/>
<path d="M0 0 C0.99 0 1.98 0 3 0 C3 1.32 3 2.64 3 4 C7.62 4 12.24 4 17 4 C17 4.99 17 5.98 17 7 C12.38 7 7.76 7 3 7 C3 10.63 3 14.26 3 18 C2.67 18 2.34 18 2 18 C1.67 21.63 1.34 25.26 1 29 C0.67 29 0.34 29 0 29 C0 19.43 0 9.86 0 0 Z " fill="#0A6093" transform="translate(153,24)"/>
<path d="M0 0 C1.3479743 0.63654342 2.68596724 1.29605388 4 2 C4 4.64 4 7.28 4 10 C-0.75 8.125 -0.75 8.125 -3 7 C-3 6.34 -3 5.68 -3 5 C-4.98 4.34 -6.96 3.68 -9 3 C-5.85820714 -0.28460162 -4.46423774 -1.44431221 0 0 Z " fill="#8AD0EE" transform="translate(50,15)"/>
<path d="M0 0 C5.875 1.875 5.875 1.875 7 3 C7.07179964 4.51928038 7.08392007 6.04167482 7.0625 7.5625 C7.05347656 8.38878906 7.04445313 9.21507813 7.03515625 10.06640625 C7.01775391 11.02353516 7.01775391 11.02353516 7 12 C1.125 9.125 1.125 9.125 0 8 C-0.14115161 5.32941149 -0.04247107 2.67567762 0 0 Z " fill="#26709A" transform="translate(27,55)"/>
<path d="M0 0 C2.4375 0.875 2.4375 0.875 4.4375 3.875 C4.0625 6.0625 4.0625 6.0625 3.4375 7.875 C3.1075 7.875 2.7775 7.875 2.4375 7.875 C2.1075 6.225 1.7775 4.575 1.4375 2.875 C1.1075 3.865 0.7775 4.855 0.4375 5.875 C-0.2225 5.875 -0.8825 5.875 -1.5625 5.875 C-1.5625 6.535 -1.5625 7.195 -1.5625 7.875 C-0.5725 8.535 0.4175 9.195 1.4375 9.875 C-0.375 10.5625 -0.375 10.5625 -2.5625 10.875 C-4.3125 9.75 -4.3125 9.75 -5.5625 7.875 C-5.99951584 4.96156107 -5.96032069 3.50313794 -4.375 1 C-2.5625 -0.125 -2.5625 -0.125 0 0 Z " fill="#636262" transform="translate(56.5625,3.125)"/>
<path d="M0 0 C2.11657821 1.31571078 3.68929702 2.55800182 5.3125 4.4375 C-0.03504797 7.47587953 -0.03504797 7.47587953 -2.8125 7.3125 C-5.02433441 6.28031061 -6.80492872 4.98389784 -8.6875 3.4375 C-3.43168605 -0.71825987 -3.43168605 -0.71825987 0 0 Z " fill="#8FD7F5" transform="translate(35.6875,6.5625)"/>
<path d="M0 0 C0.66 0.33 1.32 0.66 2 1 C1.67 3.64 1.34 6.28 1 9 C0.195625 9.28875 -0.60875 9.5775 -1.4375 9.875 C-4.1326468 10.73262568 -4.1326468 10.73262568 -5 13 C-5.29359745 9.9465865 -5.4451258 7.04256578 -5 4 C-2.5 1.4375 -2.5 1.4375 0 0 Z " fill="#569FC1" transform="translate(20,21)"/>
<path d="M0 0 C0.99 0 1.98 0 3 0 C3 2.31 3 4.62 3 7 C3.66 7 4.32 7 5 7 C5 4.69 5 2.38 5 0 C5.99 0 6.98 0 8 0 C8 2.64 8 5.28 8 8 C5.66705225 8.04241723 3.33297433 8.04092937 1 8 C0 7 0 7 -0.0625 3.4375 C-0.041875 2.303125 -0.02125 1.16875 0 0 Z " fill="#C6D72D" transform="translate(175,45)"/>
<path d="M0 0 C4.875 1.875 4.875 1.875 6 3 C6.04092937 5.33297433 6.04241723 7.66705225 6 10 C3.83125748 9.49396008 2.00032373 9.00016187 0 8 C0 5.36 0 2.72 0 0 Z " fill="#1C6D9C" transform="translate(21,22)"/>
<path d="M0 0 C0.33 0.66 0.66 1.32 1 2 C-1.125 3.625 -1.125 3.625 -4 5 C-7.3125 4.1875 -7.3125 4.1875 -10 3 C-10 2.01 -10 1.02 -10 0 C-6.24527715 -2.59942351 -4.03404839 -1.7929104 0 0 Z " fill="#93DAF2" transform="translate(39,53)"/>
<path d="M0 0 C2.5625 0.1875 2.5625 0.1875 4.5625 2.1875 C4.1875 4.8125 4.1875 4.8125 3.5625 7.1875 C2.5725 7.1875 1.5825 7.1875 0.5625 7.1875 C0.8925 5.2075 1.2225 3.2275 1.5625 1.1875 C0.9025 1.1875 0.2425 1.1875 -0.4375 1.1875 C-0.4375 3.4975 -0.4375 5.8075 -0.4375 8.1875 C-1.4275 7.8575 -2.4175 7.5275 -3.4375 7.1875 C-3.48004356 5.18795254 -3.47830783 3.18708364 -3.4375 1.1875 C-2.4375 0.1875 -2.4375 0.1875 0 0 Z " fill="#CDDB29" transform="translate(168.4375,44.8125)"/>
<path d="M0 0 C4.875 1.875 4.875 1.875 6 3 C6.04080783 4.99958364 6.04254356 7.00045254 6 9 C1.125 8.125 1.125 8.125 0 7 C-0.04092937 4.66702567 -0.04241723 2.33294775 0 0 Z " fill="#1B6C9B" transform="translate(27,11)"/>
<path d="M0 0 C4.875 1.875 4.875 1.875 6 3 C6.08713831 4.70772358 6.10700007 6.41898649 6.09765625 8.12890625 C6.09282227 9.68061523 6.09282227 9.68061523 6.08789062 11.26367188 C6.07951172 12.35228516 6.07113281 13.44089844 6.0625 14.5625 C6.05798828 15.65498047 6.05347656 16.74746094 6.04882812 17.87304688 C6.03699826 20.58208495 6.02051543 23.29101599 6 26 C5.67 26 5.34 26 5 26 C5 18.74 5 11.48 5 4 C3.35 4.66 1.7 5.32 0 6 C0 4.02 0 2.04 0 0 Z " fill="#7EB2CD" transform="translate(54,26)"/>
<path d="M0 0 C4.29 0 8.58 0 13 0 C13 0.99 13 1.98 13 3 C8.71 3 4.42 3 0 3 C0 2.01 0 1.02 0 0 Z " fill="#0F6395" transform="translate(115,28)"/>
<path d="M0 0 C2.5625 0.1875 2.5625 0.1875 4.5625 2.1875 C4.6875 4.8125 4.6875 4.8125 4.5625 7.1875 C3.5725 7.5175 2.5825 7.8475 1.5625 8.1875 C1.5625 5.8775 1.5625 3.5675 1.5625 1.1875 C0.5725 1.6825 0.5725 1.6825 -0.4375 2.1875 C-0.90401207 4.31326782 -0.90401207 4.31326782 -1.0625 6.75 C-1.13726562 7.57628906 -1.21203125 8.40257812 -1.2890625 9.25390625 C-1.33804688 9.89199219 -1.38703125 10.53007813 -1.4375 11.1875 C-1.7675 11.1875 -2.0975 11.1875 -2.4375 11.1875 C-2.63156478 9.54242782 -2.81757935 7.89640406 -3 6.25 C-3.10441406 5.33347656 -3.20882812 4.41695312 -3.31640625 3.47265625 C-3.35636719 2.71855469 -3.39632812 1.96445312 -3.4375 1.1875 C-2.4375 0.1875 -2.4375 0.1875 0 0 Z " fill="#DDE71B" transform="translate(189.4375,44.8125)"/>
<path d="M0 0 C2.53541298 0.09086451 5.03554784 0.2370945 7.5625 0.4375 C8.62887695 0.51581055 8.62887695 0.51581055 9.71679688 0.59570312 C11.47821999 0.72574107 13.23916173 0.86226897 15 1 C14.67 2.32 14.34 3.64 14 5 C14 4.01 14 3.02 14 2 C9.71 2 5.42 2 1 2 C1 6.29 1 10.58 1 15 C0.67 15 0.34 15 0 15 C-0.19390729 12.68802845 -0.37996367 10.3753971 -0.5625 8.0625 C-0.71912109 6.13083984 -0.71912109 6.13083984 -0.87890625 4.16015625 C-0.91886719 3.11730469 -0.95882812 2.07445312 -1 1 C-0.67 0.67 -0.34 0.34 0 0 Z " fill="#5390B4" transform="translate(114,26)"/>
<path d="M0 0 C0 2.31 0 4.62 0 7 C-0.66 7 -1.32 7 -2 7 C-2 8.32 -2 9.64 -2 11 C-2.99 11 -3.98 11 -5 11 C-5 7.7 -5 4.4 -5 1 C-2 0 -2 0 0 0 Z " fill="#77A366" transform="translate(191,46)"/>
<path d="M0 0 C0.33 1.32 0.66 2.64 1 4 C1.66 4 2.32 4 3 4 C3 7.3 3 10.6 3 14 C2.01 14 1.02 14 0 14 C0 9.38 0 4.76 0 0 Z " fill="#0B6093" transform="translate(98,24)"/>
<path d="M0 0 C3.3 0 6.6 0 10 0 C10 0.99 10 1.98 10 3 C6.7 3 3.4 3 0 3 C0 2.01 0 1.02 0 0 Z " fill="#0E6294" transform="translate(160,35)"/>
<path d="M0 0 C1.2065625 0.0309375 1.2065625 0.0309375 2.4375 0.0625 C2.4375 0.7225 2.4375 1.3825 2.4375 2.0625 C1.7775 2.0625 1.1175 2.0625 0.4375 2.0625 C0.1075 4.0425 -0.2225 6.0225 -0.5625 8.0625 C-1.5525 8.0625 -2.5425 8.0625 -3.5625 8.0625 C-3.60491723 5.72955225 -3.60342937 3.39547433 -3.5625 1.0625 C-2.5625 0.0625 -2.5625 0.0625 0 0 Z " fill="#CAD92B" transform="translate(160.5625,44.9375)"/>
<path d="M0 0 C5.61 0 11.22 0 17 0 C17 0.33 17 0.66 17 1 C13.7 1.33 10.4 1.66 7 2 C7 2.33 7 2.66 7 3 C4.69 3 2.38 3 0 3 C0 2.01 0 1.02 0 0 Z " fill="#11659D" transform="translate(156,42)"/>
<path d="M0 0 C2.97 0 5.94 0 9 0 C9 0.99 9 1.98 9 3 C6.03 3 3.06 3 0 3 C0 2.01 0 1.02 0 0 Z " fill="#0C5F93" transform="translate(119,35)"/>
<path d="M0 0 C2.475 0.495 2.475 0.495 5 1 C5.33 2.98 5.66 4.96 6 7 C5.01 7.495 5.01 7.495 4 8 C1.875 7.0625 1.875 7.0625 0 6 C0.185625 5.38125 0.37125 4.7625 0.5625 4.125 C1.23686176 1.95839822 1.23686176 1.95839822 0 0 Z " fill="#B3B3B3" transform="translate(54,5)"/>
<path d="M0 0 C5.61 0 11.22 0 17 0 C13 3 13 3 11.046875 2.72265625 C10.37140625 2.48417969 9.6959375 2.24570312 9 2 C7.41974995 1.78807905 5.83601539 1.60076629 4.25 1.4375 C3.45078125 1.35371094 2.6515625 1.26992188 1.828125 1.18359375 C1.22484375 1.12300781 0.6215625 1.06242187 0 1 C0 0.67 0 0.34 0 0 Z " fill="#10649C" transform="translate(177,42)"/>
<path d="M0 0 C0 1.98 0 3.96 0 6 C-2.16874252 5.49396008 -3.99967627 5.00016187 -6 4 C-6 3.34 -6 2.68 -6 2 C-1.125 0 -1.125 0 0 0 Z " fill="#4F99BC" transform="translate(53,18)"/>
<path d="M0 0 C2.475 0.99 2.475 0.99 5 2 C5 2.66 5 3.32 5 4 C3.35 4.66 1.7 5.32 0 6 C0 4.02 0 2.04 0 0 Z " fill="#1D6E9D" transform="translate(41,18)"/>
<path d="M0 0 C2.475 0.99 2.475 0.99 5 2 C3.68799596 3.35432675 2.35368596 4.68733482 1 6 C0.67 6 0.34 6 0 6 C0 4.02 0 2.04 0 0 Z " fill="#89D6F7" transform="translate(54,26)"/>
</svg>
