<?xml version="1.0" encoding="UTF-8"?>
<svg version="1.1" xmlns="http://www.w3.org/2000/svg" width="368" height="137">
<path d="M0 0 C121.44 0 242.88 0 368 0 C368 45.21 368 90.42 368 137 C246.56 137 125.12 137 0 137 C0 91.79 0 46.58 0 0 Z " fill="#FDFDFD" transform="translate(0,0)"/>
<path d="M0 0 C5.58913029 3.68644763 10.86394153 8.47911668 13.5703125 14.6953125 C9.23196248 14.6953125 9.0110946 14.59888506 6.1328125 11.8203125 C1.23546604 7.43030214 -2.770944 6.18663979 -9.3359375 6.39453125 C-11.60693962 6.59246462 -11.60693962 6.59246462 -13.9921875 8.1328125 C-16.16356396 11.51383293 -16.16356396 11.51383293 -15.4296875 19.6953125 C62.7803125 19.6953125 140.9903125 19.6953125 221.5703125 19.6953125 C221.5703125 22.3353125 221.5703125 24.9753125 221.5703125 27.6953125 C214.6403125 27.6953125 207.7103125 27.6953125 200.5703125 27.6953125 C200.5703125 31.9853125 200.5703125 36.2753125 200.5703125 40.6953125 C203.0453125 39.2103125 203.0453125 39.2103125 205.5703125 37.6953125 C209.77324383 37.16039397 211.96839924 37.38845476 215.7578125 39.3203125 C221.08422183 43.81816926 223.20899669 48.08215444 223.8828125 54.8203125 C223.47874297 59.83077471 222.07749535 64.31822405 219.5703125 68.6953125 C218.5803125 69.0253125 217.5903125 69.3553125 216.5703125 69.6953125 C213.3828125 67.7578125 213.3828125 67.7578125 210.5703125 65.6953125 C211.2256649 62.62073369 212.30203996 60.06871549 213.6953125 57.2578125 C215.07518349 54.24989229 215.59474885 52.99465778 215.3203125 49.6328125 C215.0728125 48.9934375 214.8253125 48.3540625 214.5703125 47.6953125 C211.97769217 46.64206049 210.21363667 46.46689487 207.5625 47.40820312 C203.15852758 49.75364729 203.15852758 49.75364729 200.828125 53.98364258 C200.55751446 56.68641662 200.51274271 59.29243729 200.5703125 62.0078125 C200.55291016 63.40483398 200.55291016 63.40483398 200.53515625 64.83007812 C200.51166239 67.12072951 200.52447787 69.4051727 200.5703125 71.6953125 C193.71626222 68.99454434 193.71626222 68.99454434 191.5703125 66.6953125 C190.92840517 63.99395247 190.75326404 61.48532355 190.5703125 58.6953125 C189.5803125 59.3553125 188.5903125 60.0153125 187.5703125 60.6953125 C184.38097119 62.45296553 181.49638709 63.58946767 177.76171875 63.4140625 C172.76658798 61.77573084 168.9201018 57.61170185 165.5703125 53.6953125 C163.71305058 49.85467829 163.04703911 46.96871183 163.5703125 42.6953125 C166.04151603 37.84795172 168.44666223 35.5398266 173.5703125 33.6953125 C178.16563345 32.77624831 180.54682497 34.10094226 184.3203125 36.5703125 C186.60888131 38.18165176 188.58945151 39.71445151 190.5703125 41.6953125 C190.9003125 37.0753125 191.2303125 32.4553125 191.5703125 27.6953125 C179.0303125 27.6953125 166.4903125 27.6953125 153.5703125 27.6953125 C153.5703125 42.2153125 153.5703125 56.7353125 153.5703125 71.6953125 C146.44159963 68.84382735 146.44159963 68.84382735 144.5703125 66.6953125 C144.23094063 63.66789995 144.34140177 60.72837962 144.5703125 57.6953125 C143.84328125 58.1284375 143.84328125 58.1284375 143.1015625 58.5703125 C137.94773243 61.42474146 134.46026027 62.45530576 128.5703125 61.6953125 C121.09009118 57.95520184 116.21742045 51.4895748 113.5703125 43.6953125 C113.5703125 42.3753125 113.5703125 41.0553125 113.5703125 39.6953125 C114.19679687 39.51355469 114.82328125 39.33179688 115.46875 39.14453125 C116.28601563 38.89316406 117.10328125 38.64179687 117.9453125 38.3828125 C118.75742188 38.13917969 119.56953125 37.89554688 120.40625 37.64453125 C122.90215879 36.78163065 122.90215879 36.78163065 124.5703125 33.6953125 C124.5703125 32.0453125 124.5703125 30.3953125 124.5703125 28.6953125 C117.3103125 28.6953125 110.0503125 28.6953125 102.5703125 28.6953125 C102.5703125 43.2153125 102.5703125 57.7353125 102.5703125 72.6953125 C92.5703125 66.6953125 92.5703125 66.6953125 91.43505859 62.43408203 C91.43662613 60.81456634 91.49227495 59.19445923 91.59375 57.578125 C91.60789948 56.72096893 91.62204895 55.86381287 91.6366272 54.98068237 C91.69238403 52.25692229 91.81772397 49.54155922 91.9453125 46.8203125 C91.99550027 44.96886934 92.04112299 43.11729643 92.08203125 41.265625 C92.19197792 36.73897827 92.36433558 32.21856566 92.5703125 27.6953125 C88.6103125 27.6953125 84.6503125 27.6953125 80.5703125 27.6953125 C80.5703125 42.2153125 80.5703125 56.7353125 80.5703125 71.6953125 C74.5703125 69.6953125 74.5703125 69.6953125 71.5703125 67.6953125 C71.22973633 65.81591797 71.22973633 65.81591797 71.27734375 63.5625 C71.28701172 62.75683594 71.29667969 61.95117188 71.30664062 61.12109375 C71.33177734 60.27933594 71.35691406 59.43757813 71.3828125 58.5703125 C71.40311523 57.29607422 71.40311523 57.29607422 71.42382812 55.99609375 C71.45923031 53.89556413 71.51303849 51.79535957 71.5703125 49.6953125 C67.2803125 50.0253125 62.9903125 50.3553125 58.5703125 50.6953125 C58.2403125 53.0053125 57.9103125 55.3153125 57.5703125 57.6953125 C55.8828125 58.4453125 55.8828125 58.4453125 53.5703125 58.6953125 C49.8077853 56.30931964 47.40688193 53.75509757 45.5703125 49.6953125 C45.1953125 46.5078125 45.1953125 46.5078125 45.5703125 43.6953125 C48.92150769 41.46118237 49.988088 41.45683488 53.89453125 41.5 C55.43657227 41.50966797 55.43657227 41.50966797 57.00976562 41.51953125 C58.08162109 41.53628906 59.15347656 41.55304687 60.2578125 41.5703125 C61.88299805 41.58384766 61.88299805 41.58384766 63.54101562 41.59765625 C66.21754198 41.62123798 68.89395491 41.65710914 71.5703125 41.6953125 C71.5703125 37.0753125 71.5703125 32.4553125 71.5703125 27.6953125 C60.0203125 27.6953125 48.4703125 27.6953125 36.5703125 27.6953125 C36.5703125 42.2153125 36.5703125 56.7353125 36.5703125 71.6953125 C29.65541888 68.92935505 29.65541888 68.92935505 27.5703125 66.6953125 C26.92840517 63.99395247 26.75326404 61.48532355 26.5703125 58.6953125 C25.6421875 59.3346875 24.7140625 59.9740625 23.7578125 60.6328125 C19.18060442 63.59453538 15.98500812 64.3066491 10.5703125 63.6953125 C3.78754476 60.60472963 -1.55794654 55.62867912 -4.4296875 48.6953125 C-4.97732364 45.34311554 -4.76832778 42.82467771 -3.4296875 39.6953125 C-0.61535912 36.37245448 2.97173454 33.1377428 7.3828125 32.38671875 C14.43330358 31.97124338 18.96313123 34.60387211 24.5703125 38.6953125 C25.2303125 39.3553125 25.8903125 40.0153125 26.5703125 40.6953125 C26.9003125 36.4053125 27.2303125 32.1153125 27.5703125 27.6953125 C14.3703125 27.6953125 1.1703125 27.6953125 -12.4296875 27.6953125 C-12.4296875 42.2153125 -12.4296875 56.7353125 -12.4296875 71.6953125 C-15.3996875 70.0453125 -18.3696875 68.3953125 -21.4296875 66.6953125 C-21.4296875 53.8253125 -21.4296875 40.9553125 -21.4296875 27.6953125 C-25.0596875 27.6953125 -28.6896875 27.6953125 -32.4296875 27.6953125 C-32.4296875 25.0553125 -32.4296875 22.4153125 -32.4296875 19.6953125 C-28.4696875 19.3653125 -24.5096875 19.0353125 -20.4296875 18.6953125 C-21.4196875 17.0453125 -22.4096875 15.3953125 -23.4296875 13.6953125 C-24.21340507 9.93999913 -24.2810166 6.28986542 -22.4453125 2.8515625 C-15.98652698 -5.28172297 -8.58140283 -4.59249387 0 0 Z " fill="#59595B" transform="translate(123.4296875,21.3046875)"/>
<path d="M0 0 C0.79792969 0.00386719 1.59585938 0.00773437 2.41796875 0.01171875 C3.21589844 0.00785156 4.01382813 0.00398438 4.8359375 0 C10.79136108 0.01011108 10.79136108 0.01011108 11.91796875 1.13671875 C12.01322242 4.0586654 12.04349611 6.95692204 12.03149414 9.87915039 C12.03164017 10.79613205 12.03178619 11.71311371 12.03193665 12.65788269 C12.03123715 15.70423711 12.02344303 18.7505312 12.015625 21.796875 C12.01376095 23.90294868 12.01233699 26.00902278 12.01133728 28.11509705 C12.00751106 33.67014758 11.99767989 39.22517216 11.9866333 44.7802124 C11.97642142 50.44396615 11.97184014 56.10772408 11.96679688 61.77148438 C11.95605771 72.8932406 11.93898005 84.01497752 11.91796875 95.13671875 C8.91796875 96.13671875 8.91796875 96.13671875 7.21630859 95.34814453 C6.30679443 94.72141846 6.30679443 94.72141846 5.37890625 94.08203125 C4.71632813 93.63214844 4.05375 93.18226562 3.37109375 92.71875 C2.6853125 92.23792969 1.99953125 91.75710937 1.29296875 91.26171875 C0.25269531 90.55208984 0.25269531 90.55208984 -0.80859375 89.828125 C-5.83964965 86.37910035 -5.83964965 86.37910035 -7.08203125 85.13671875 C-7.18244582 82.52521587 -7.21820182 79.9401351 -7.21142578 77.328125 C-7.2131781 76.51028534 -7.21493042 75.69244568 -7.21673584 74.849823 C-7.2211551 72.13293365 -7.21821611 69.41610882 -7.21484375 66.69921875 C-7.21551677 64.81974271 -7.21648678 62.94026676 -7.21774292 61.06079102 C-7.21921999 57.11636529 -7.21706504 53.17196217 -7.21240234 49.22753906 C-7.20670505 44.15959372 -7.20998401 39.09170133 -7.21597481 34.02375793 C-7.21958017 30.14114988 -7.21844195 26.25855447 -7.21584702 22.37594604 C-7.21517768 20.50674432 -7.21600641 18.63754147 -7.21832657 16.76834106 C-7.22085268 14.16063371 -7.21701309 11.55301334 -7.21142578 8.9453125 C-7.21345001 8.16501678 -7.21547424 7.38472107 -7.21755981 6.58078003 C-7.19088196 -0.10535699 -6.65667065 0.01130165 0 0 Z " fill="#B62C33" transform="translate(41.08203125,28.86328125)"/>
<path d="M0 0 C0.79792969 0.00386719 1.59585938 0.00773437 2.41796875 0.01171875 C3.21589844 0.00785156 4.01382813 0.00398438 4.8359375 0 C10.79136108 0.01011108 10.79136108 0.01011108 11.91796875 1.13671875 C12.45491818 7.09648452 12.66036922 13.05385374 12.81738281 19.03442383 C12.88394582 21.04601614 12.97923982 23.05688163 13.10449219 25.06567383 C14.09387447 41.25277011 14.09387447 41.25277011 10.45849609 46.07110596 C5.5236981 50.63898901 -0.26522737 54.13671875 -7.08203125 54.13671875 C-7.10729773 46.60702223 -7.12486266 39.07733655 -7.13696289 31.54760742 C-7.14200495 28.98380118 -7.14883839 26.41999784 -7.1574707 23.85620117 C-7.16954189 20.18016854 -7.17526067 16.50417377 -7.1796875 12.828125 C-7.18484879 11.67397598 -7.19001007 10.51982697 -7.19532776 9.33070374 C-7.19540329 8.26967941 -7.19547882 7.20865509 -7.19555664 6.11547852 C-7.19777725 5.17615982 -7.19999786 4.23684113 -7.20228577 3.26905823 C-6.94875179 -1.22657762 -3.77632786 0.00641142 0 0 Z " fill="#B52D33" transform="translate(63.08203125,40.86328125)"/>
<path d="M0 0 C5.94 0 11.88 0 18 0 C18 17.82 18 35.64 18 54 C13.01938586 53.00387717 10.8399399 51.82064821 6.75 49 C5.69296875 48.278125 4.6359375 47.55625 3.546875 46.8125 C1 45 1 45 0 44 C-0.0927833 42.61839885 -0.11747043 41.23211962 -0.11352539 39.84741211 C-0.11341209 38.52615578 -0.11341209 38.52615578 -0.11329651 37.1782074 C-0.10555458 35.74227989 -0.10555458 35.74227989 -0.09765625 34.27734375 C-0.0962413 33.30213272 -0.09482635 32.32692169 -0.09336853 31.32215881 C-0.08775133 28.19390857 -0.07519593 25.06572877 -0.0625 21.9375 C-0.05748722 19.82226666 -0.05292393 17.70703219 -0.04882812 15.59179688 C-0.03777631 10.39450393 -0.02050016 5.19726392 0 0 Z " fill="#B5282E" transform="translate(13,41)"/>
<path d="M0 0 C5.28 0 10.56 0 16 0 C17.19982311 13.4646816 17.19982311 13.4646816 16 19 C13.13872412 22.40035684 10.18893114 23.69525096 6 25 C5.34 25.33 4.68 25.66 4 26 C1.02030947 26.40632144 -1.1002499 26.54554984 -3.7265625 24.953125 C-5.375 23.625 -5.375 23.625 -8 21 C-8 20.34 -8 19.68 -8 19 C-6.82630859 18.58427734 -6.82630859 18.58427734 -5.62890625 18.16015625 C-4.61699219 17.79792969 -3.60507813 17.43570313 -2.5625 17.0625 C-1.55316406 16.70285156 -0.54382813 16.34320313 0.49609375 15.97265625 C2.90313745 15.23122361 2.90313745 15.23122361 4 14 C4.6183246 8.68240841 3.08281516 6.23887084 0 2 C0 1.34 0 0.68 0 0 Z " fill="#F8F8F8" transform="translate(252,49)"/>
<path d="M0 0 C4.29477197 2.46551724 4.29477197 2.46551724 6 5 C6.73810279 8.14252854 6.70582012 10.85321863 6 14 C4.12379387 16.50160818 2.76108697 17.61945652 0 19 C-4.18144011 19.39447548 -6.30946048 19.45035186 -9.875 17.125 C-12.5873239 14.4126761 -12.93914093 13.53758847 -13.375 9.6875 C-13 6 -13 6 -10.625 3.125 C-6.86324168 0.07976707 -4.85493523 -0.56018483 0 0 Z " fill="#F8F8F8" transform="translate(225,107)"/>
<path d="M0 0 C1.69867523 0.9751016 3.34835906 2.03449916 4.98828125 3.10546875 C4.98828125 4.42546875 4.98828125 5.74546875 4.98828125 7.10546875 C-0.43527156 12.52902156 -6.52281015 14.42551516 -13.99609375 14.50390625 C-16.54170679 14.00070367 -17.42605468 13.12402884 -19.01171875 11.10546875 C-19.63671875 8.79296875 -19.63671875 8.79296875 -19.01171875 6.10546875 C-14.00945556 0.56963082 -7.55338458 -3.35868946 0 0 Z " fill="#FAFAFA" transform="translate(145.01171875,62.89453125)"/>
<path d="M0 0 C0.66 0 1.32 0 2 0 C2 3.3 2 6.6 2 10 C2.99 9.67 3.98 9.34 5 9 C5 9.66 5 10.32 5 11 C11.27 11 17.54 11 24 11 C23.34 11.66 22.68 12.32 22 13 C16.39 13 10.78 13 5 13 C4.67 30.49 4.34 47.98 4 66 C6.64 65.01 9.28 64.02 12 63 C11.34 64.32 10.68 65.64 10 67 C8.35 67 6.7 67 5 67 C5 67.99 5 68.98 5 70 C4.01 70.495 4.01 70.495 3 71 C2.67 79.25 2.34 87.5 2 96 C1.34 95.67 0.68 95.34 0 95 C0 63.65 0 32.3 0 0 Z " fill="#FAF0EE" transform="translate(52,29)"/>
<path d="M0 0 C11.45045045 -0.36936937 11.45045045 -0.36936937 13.90625 1.28125 C15.73473366 4.15458146 14.66102502 6.81506126 14 10 C13.01 10.33 12.02 10.66 11 11 C12.32 13.31 13.64 15.62 15 18 C13.125 17.8125 13.125 17.8125 11 17 C9.75 14.4375 9.75 14.4375 9 12 C7.02 12 5.04 12 3 12 C3 13.98 3 15.96 3 18 C2.01 18 1.02 18 0 18 C0 12.06 0 6.12 0 0 Z " fill="#5A5A5A" transform="translate(159,108)"/>
<path d="M0 0 C10.17966102 -0.48474576 10.17966102 -0.48474576 13.75 1.625 C15 4 15 4 14.9375 7.125 C14 10 14 10 11 12 C8.73828125 12.1953125 8.73828125 12.1953125 6.3125 12.125 C5.50425781 12.10695313 4.69601562 12.08890625 3.86328125 12.0703125 C2.94095703 12.03550781 2.94095703 12.03550781 2 12 C2 13.98 2 15.96 2 18 C1.34 18 0.68 18 0 18 C0 12.06 0 6.12 0 0 Z " fill="#525252" transform="translate(327,108)"/>
<path d="M0 0 C3.63247926 0.57452478 5.53878659 1.95879392 8.296875 4.36328125 C8.296875 5.02328125 8.296875 5.68328125 8.296875 6.36328125 C3.73286735 10.34464962 0.30693812 11.94257489 -5.6875 12.61328125 C-7.703125 12.36328125 -7.703125 12.36328125 -9.4765625 11.05078125 C-10.703125 9.36328125 -10.703125 9.36328125 -10.578125 6.36328125 C-8.81728727 0.3261233 -5.8111269 -0.1804108 0 0 Z " fill="#F7F7F7" transform="translate(306.703125,63.63671875)"/>
<path d="M0 0 C4.29477197 2.46551724 4.29477197 2.46551724 6 5 C6.73810279 8.14252854 6.70582012 10.85321863 6 14 C4.12379387 16.50160818 2.76108697 17.61945652 0 19 C-4.18144011 19.39447548 -6.30946048 19.45035186 -9.875 17.125 C-12.5873239 14.4126761 -12.93914093 13.53758847 -13.375 9.6875 C-13 6 -13 6 -10.625 3.125 C-6.86324168 0.07976707 -4.85493523 -0.56018483 0 0 Z M-8.9375 4.0625 C-10.63902633 7.1652833 -10.42519574 9.53769185 -10 13 C-8.60314994 15.6469872 -8.60314994 15.6469872 -6 17 C-2.22315121 17 0.03513544 16.78395245 3 14.375 C4.45331917 10.92336696 3.92604949 8.57190516 3 5 C-0.85941974 2.42705351 -4.70149261 1.73952821 -8.9375 4.0625 Z " fill="#5A5A5A" transform="translate(225,107)"/>
<path d="M0 0 C0.33 0.99 0.66 1.98 1 3 C0.30132812 2.97679688 -0.39734375 2.95359375 -1.1171875 2.9296875 C-2.48230469 2.90261719 -2.48230469 2.90261719 -3.875 2.875 C-4.77992187 2.85179688 -5.68484375 2.82859375 -6.6171875 2.8046875 C-9.18806994 2.75675164 -9.18806994 2.75675164 -11 5 C-11.24253813 7.21072977 -11.24253813 7.21072977 -11.125 9.625 C-11.08375 11.06875 -11.0425 12.5125 -11 14 C-8.03 14.33 -5.06 14.66 -2 15 C-1.67 13.02 -1.34 11.04 -1 9 C-0.01 9 0.98 9 2 9 C2 11.31 2 13.62 2 16 C-1.65851291 18.34144827 -4.72830036 18.44965259 -9 18 C-11.75329021 16.20437595 -13.52627461 14.94745078 -15 12 C-15.375 8.6875 -15.375 8.6875 -15 5 C-9.89806945 -1.17602119 -7.43018539 -1.0785753 0 0 Z " fill="#696969" transform="translate(117,108)"/>
<path d="M0 0 C0.66 0 1.32 0 2 0 C2.07347656 1.37285156 2.07347656 1.37285156 2.1484375 2.7734375 C2.22320312 3.96195312 2.29796875 5.15046875 2.375 6.375 C2.44460938 7.55835937 2.51421875 8.74171875 2.5859375 9.9609375 C2.70217346 13.10562319 2.70217346 13.10562319 5 15 C7.5 15.33333333 7.5 15.33333333 10 15 C12.77042109 12.22957891 12.39796106 10.23466195 12.625 6.375 C12.69976562 5.18648438 12.77453125 3.99796875 12.8515625 2.7734375 C12.90054687 1.85820313 12.94953125 0.94296875 13 0 C13.66 0 14.32 0 15 0 C15.05418326 2.08304538 15.09287551 4.16649768 15.125 6.25 C15.14820313 7.41015625 15.17140625 8.5703125 15.1953125 9.765625 C15.00925052 12.84681133 14.71695953 14.4785909 13 17 C9.90826248 18.54586876 7.40570448 18.29359521 4 18 C1.7890625 16.43359375 1.7890625 16.43359375 0 14 C-0.390625 10.546875 -0.390625 10.546875 -0.25 6.75 C-0.21390625 5.48671875 -0.1778125 4.2234375 -0.140625 2.921875 C-0.09421875 1.95765625 -0.0478125 0.9934375 0 0 Z " fill="#565656" transform="translate(271,108)"/>
<path d="M0 0 C6.0546875 -0.1953125 6.0546875 -0.1953125 8 0 C8.66 0.66 9.32 1.32 10 2 C9.44444444 6.55555556 9.44444444 6.55555556 8 8 C5.32941149 8.14115161 2.67567762 8.04247107 0 8 C0 5.36 0 2.72 0 0 Z " fill="#F4F4F4" transform="translate(329,110)"/>
<path d="M0 0 C6.75 -0.125 6.75 -0.125 9 1 C9.125 3.375 9.125 3.375 9 6 C7 8 7 8 3.375 8.125 C2.26125 8.08375 1.1475 8.0425 0 8 C0 5.36 0 2.72 0 0 Z " fill="#FCFCFC" transform="translate(162,110)"/>
<path d="M0 0 C0.66 0.66 1.32 1.32 2 2 C1.34 2.66 0.68 3.32 0 4 C-2.33333333 4 -4.66666667 4 -7 4 C-9.5654594 6.5654594 -9.54046087 8.47686668 -10 12 C-10.99 12.33 -11.98 12.66 -13 13 C-13.3125 9.8125 -13.3125 9.8125 -13 6 C-8.90398626 1.04166758 -6.37717504 -0.39857344 0 0 Z " fill="#717171" transform="translate(225,107)"/>
<path d="M0 0 C0.99 0 1.98 0 3 0 C3 2.31 3 4.62 3 7 C-0.64812473 9.33479983 -3.74187788 9.38018947 -8 9 C-10.4375 7.625 -10.4375 7.625 -12 6 C-12 5.34 -12 4.68 -12 4 C-10.948125 4.495 -10.948125 4.495 -9.875 5 C-6.73996884 6.09044562 -4.29436818 6.15322643 -1 6 C-0.67 4.02 -0.34 2.04 0 0 Z " fill="#636363" transform="translate(116,117)"/>
<path d="M0 0 C0.66 0.66 1.32 1.32 2 2 C1.625 5.625 1.625 5.625 1 9 C-0.32 9.33 -1.64 9.66 -3 10 C-2.34 7.36 -1.68 4.72 -1 2 C-3.97 1.67 -6.94 1.34 -10 1 C-10 3.64 -10 6.28 -10 9 C-10.33 9 -10.66 9 -11 9 C-11 6.03 -11 3.06 -11 0 C-3.2797546 -1.33619632 -3.2797546 -1.33619632 0 0 Z " fill="#6E6E6E" transform="translate(172,109)"/>
<path d="M0 0 C1.625 1.4375 1.625 1.4375 2.5625 4.375 C2.625 7.4375 2.625 7.4375 1.1875 9.3125 C0.671875 9.68375 0.15625 10.055 -0.375 10.4375 C-1.035 9.7775 -1.695 9.1175 -2.375 8.4375 C-2.08895102 6.76207024 -1.75718767 5.09364657 -1.375 3.4375 C-3.34322886 1.46927114 -6.72308709 1.77501619 -9.375 1.4375 C-9.375 1.1075 -9.375 0.7775 -9.375 0.4375 C-3.18160377 -0.75353774 -3.18160377 -0.75353774 0 0 Z " fill="#6A6B6B" transform="translate(339.375,108.5625)"/>
<path d="M0 0 C3.875 1.875 3.875 1.875 5 3 C5.14115161 5.67058851 5.04247107 8.32432238 5 11 C4.34 10.67 3.68 10.34 3 10 C2.27129528 7.68529088 1.60760482 5.3494053 1 3 C0.67 2.01 0.34 1.02 0 0 Z " fill="#555555" transform="translate(226,109)"/>
<path d="M0 0 C0 0.99 0 1.98 0 3 C-1 4 -1 4 -3.5625 4.0625 C-4.7690625 4.0315625 -4.7690625 4.0315625 -6 4 C-6 4.99 -6 5.98 -6 7 C-6.99 7.33 -7.98 7.66 -9 8 C-9 6.02 -9 4.04 -9 2 C-7.6078125 2.061875 -7.6078125 2.061875 -6.1875 2.125 C-2.84190281 2.27136339 -2.84190281 2.27136339 0 0 Z " fill="#F7F0EF" transform="translate(63,92)"/>
<path d="M0 0 C4.67692308 1.47692308 4.67692308 1.47692308 6.3125 4.125 C6.539375 4.74375 6.76625 5.3625 7 6 C5.68 6 4.36 6 3 6 C0.75 3.5 0.75 3.5 -1 1 C-0.67 0.67 -0.34 0.34 0 0 Z " fill="#686868" transform="translate(130,30)"/>
<path d="M0 0 C0.99 0.33 1.98 0.66 3 1 C2.375 2.875 2.375 2.875 1 5 C-2.125 6.25 -2.125 6.25 -5 7 C-3.88820837 3.66462511 -2.52588702 2.36292656 0 0 Z " fill="#656565" transform="translate(228,119)"/>
</svg>
